<svg width="77" height="78" viewBox="0 0 77 78" fill="none" xmlns="http://www.w3.org/2000/svg">
<path d="M10.9116 2.30732C25.4386 3.35706 38.632 1.41609 56.9776 2.30732C60.6894 1.58694 60.6731 4.08273 61.4199 12.5916C60.5326 18.5273 61.444 22.1838 61.4199 33.1603C61.1107 40.8643 60.0657 42.7947 56.9776 43.4482C42.0449 43.936 25.8357 44.4503 10.9116 43.4482C7.57279 43.3812 6.72344 38.4636 6.47018 33.1621C7.12228 25.6131 6.06015 18.7281 6.47018 12.5899C6.60026 4.65339 7.25234 0.581229 10.9116 2.30908V2.30732Z" fill="#FFDAD6"/>
<path d="M5.50428 1.54643C22.4044 1.23644 39.9704 0.489643 51.5702 1.54643C36.1156 2.39187 20.9159 2.09244 5.50428 1.54643ZM5.50428 1.54643C2.20937 1.70495 0.808706 4.38039 1.06196 11.8308C0.793201 4.42267 2.66678 1.10787 5.50428 1.5482M56.0117 11.8308C55.606 5.25225 54.9048 2.14528 51.5702 1.5482C54.4835 0.769693 55.9652 3.88722 56.0117 11.8308ZM56.0117 11.8308C56.3683 17.8897 55.9402 25.3506 56.0117 32.4012M56.0117 32.4012C56.0789 23.3586 55.8532 17.548 56.0117 11.829M56.0117 32.4012C56.2296 38.5693 54.2794 42.18 51.5702 42.6873M56.0117 32.4012C55.8773 40.0013 54.2346 42.2522 51.5702 42.6873M51.5702 42.6873C36.8951 43.2896 21.4896 42.9004 5.50428 42.6873M51.5702 42.6873C34.2773 42.2469 16.6872 42.0814 5.50428 42.6873M5.50428 42.6873C2.13529 41.9775 1.4496 40.0471 1.06196 32.4012M5.50428 42.6873C2.71588 42.881 0.734625 40.1563 1.06196 32.4012M1.06196 32.4012C1.3023 24.4312 0.840579 16.6973 1.06196 11.829C1.13174 22.839 1.22391 28.0525 1.06196 32.4012Z" stroke="#46464F" stroke-linecap="round"/>
<path d="M12.1894 21.9513C12.2204 21.6342 12.2747 21.1111 12.2902 20.8575C12.3445 19.1614 12.4763 17.3384 12.484 15.6422C12.515 15.4203 12.6081 15.2935 12.6778 15.135C12.7207 15.0571 12.7756 15.0122 12.8329 15.0082C12.9724 15.0082 13.112 15.2618 13.174 15.5313C13.1663 16.6233 13.0577 17.6554 13.0267 18.7492C12.9647 19.7954 12.9182 21.2855 12.9647 22.0147C12.9724 22.0147 12.9957 21.9971 13.0345 21.9971L13.2825 21.9037C13.3213 21.8861 13.3446 21.8861 13.3523 21.8861C13.6237 21.8403 13.8718 21.7769 14.1198 21.7769C14.4687 21.7769 14.7943 21.8879 15.1277 22.2049C15.4766 22.5536 15.7634 23.5523 15.7324 24.2974C15.7944 25.1375 15.4688 25.724 15.182 26.263C14.7842 26.8122 14.3128 27.0948 13.833 27.0714C13.4531 27.1348 13.1973 26.8953 12.8484 26.4849C12.6633 26.2418 12.5077 25.9155 12.3935 25.5309C12.2793 25.1464 12.2095 24.7137 12.1894 24.2656C12.1817 23.4943 12.1817 22.7227 12.1894 21.9513ZM13.0189 24.1388C12.9569 24.6778 13.2593 25.1692 13.4143 25.4704C13.6159 25.5655 13.957 25.6113 14.1974 25.5655C14.492 25.4387 14.8564 25.1692 14.9339 24.4559C15.0269 23.8535 14.6935 23.2194 14.4455 23.0609C14.3519 23.0091 14.2555 22.9825 14.1586 22.9816C13.8097 22.9816 13.4066 23.267 13.174 23.5523C13.0577 23.7425 12.9879 23.8376 13.0189 24.1388ZM16.2191 22.6329C16.3044 21.6025 16.599 20.9843 16.9556 20.3185C17.1417 20.1283 17.4053 20.0332 17.6766 20.0332C18.0022 20.0332 18.3356 20.16 18.5682 20.4136C18.8163 20.7307 19.2892 21.3806 19.5063 21.8227C19.4985 22.0147 19.5528 22.4744 19.452 22.5219C19.2802 22.5563 19.1069 22.5018 18.9481 22.3634C18.6535 22.0288 18.4364 21.6659 18.1263 21.6184C17.8472 21.6342 17.5603 21.5233 17.2967 21.8245C17.289 21.8245 17.258 21.9037 17.2502 21.9196C17.1107 22.3 16.9789 22.6329 16.9014 23.0926C16.9246 23.9486 16.8471 24.7888 16.9556 25.6289C17.1029 26.1679 16.9401 26.6593 16.8083 27.119C16.7892 27.1759 16.7638 27.2228 16.7342 27.2558C16.7045 27.2889 16.6715 27.3072 16.6378 27.3092C16.5547 27.2978 16.4757 27.231 16.4129 27.119C16.2734 26.9429 16.1648 26.5166 16.1183 26.2313C16.1183 25.2168 16.1338 23.5523 16.2191 22.6329ZM19.4968 24.7729V23.0609C19.4193 22.839 19.4193 22.2842 19.4968 22.0622C19.7526 21.6818 20.117 21.2855 20.3806 20.9526C20.6287 20.6514 20.9233 20.5563 21.1946 20.5563C21.9467 20.5563 22.7064 21.2538 23.1793 22.4585C23.3964 23.0609 23.5205 23.8852 23.3732 24.5668C23.0398 25.7399 22.5436 26.4691 21.9001 26.7685C21.5435 27.0556 21.1947 26.9605 20.8225 26.9605C19.931 26.58 19.8147 26.5325 19.4968 24.7729ZM20.2333 24.7729C20.2953 25.0265 20.4891 25.5021 20.6287 25.5655C20.7605 25.7064 20.9466 25.7557 21.1404 25.7557C21.7063 25.7557 22.6599 25.2009 22.7374 23.8694C22.815 23.3145 22.5514 23.0134 22.3963 22.6646C22.1172 22.3476 21.7451 21.9196 21.3962 21.9196C21.284 21.9173 21.1728 21.9654 21.0706 22.0605C21.018 22.1187 20.9686 22.1884 20.9233 22.2683C20.8303 22.4427 20.745 22.6488 20.6287 22.7597C20.5279 22.9658 20.3108 23.3145 20.2876 23.5682C20.1868 23.9645 20.2566 24.3608 20.2333 24.7729ZM23.6884 23.7901C23.766 22.7597 23.9753 22.1732 24.3784 21.4757C24.7196 20.6831 25.2467 20.1759 25.7507 20.3661C26.0995 20.3344 26.3631 20.9209 26.588 21.3806C26.743 21.8086 26.7508 22.3793 26.7353 22.8865C26.6965 23.0274 26.6267 23.267 26.5337 23.2828C26.4019 23.2652 26.2081 23.4237 26.1461 23.0768C26.1073 22.8707 25.991 22.2366 25.9057 22.1415C25.7274 21.9037 25.5491 21.9654 25.3553 21.983C24.9521 22.1891 24.7041 22.9165 24.4715 23.584C24.4792 23.7901 24.3397 24.5034 24.5257 24.6936C24.673 25.0582 24.8436 25.3594 25.0529 25.5179C25.4328 25.8174 25.8437 25.9459 26.2391 26.0886L27.1772 26.5008C27.2392 26.6117 27.34 26.9446 27.3245 27.0873C27.2857 27.3867 27.0764 27.6896 26.9291 27.7848C26.6422 27.8482 26.4252 27.7372 26.1461 27.5787C25.7584 27.436 25.3941 27.3251 25.0142 27.0855C24.5878 26.8019 24.1536 26.3105 23.8823 25.5972C23.704 25.104 23.6574 24.4083 23.6884 23.7901ZM28.689 24.6144C28.6425 24.3608 28.6269 24.1388 28.5417 24.0279C28.5417 24.0103 28.5339 24.0103 28.5262 24.0103H28.4641C28.4099 24.5985 28.4486 25.3911 28.3013 25.9301C28.2238 26.2947 28.123 26.7051 27.9525 26.9129C27.8051 26.9605 27.6423 26.9129 27.5648 26.6276C27.433 26.1996 27.4253 25.5814 27.5105 25.1216C27.7121 24.8205 27.7509 24.5985 27.7586 24.0279C27.7741 23.7901 27.7354 23.4731 27.7121 23.2177V18.7016C27.6346 18.0359 27.6656 17.4494 27.6579 16.7994C27.7121 16.6092 27.7664 16.5616 27.8827 16.5775C28.0765 16.4824 28.1928 17.0055 28.2471 17.3067C28.2471 17.3701 28.3246 18.3688 28.3478 18.7016C28.3711 18.9236 28.3944 19.6211 28.3944 19.7003V21.6184C28.4099 21.6818 28.4564 21.7452 28.4951 21.7135C29.5263 20.9033 29.4487 20.9033 29.8364 20.6514C30.0922 20.4136 30.317 20.1283 30.5729 20.1283C30.6582 20.1283 30.7434 20.16 30.8365 20.2393C30.8985 20.3802 31.0303 20.8892 31.0148 21.0477C30.914 21.3648 30.7047 21.3471 30.5186 21.444C30.3325 21.5849 30.2318 21.6659 30.1697 21.6976C30.1852 21.7294 30.0535 21.9513 29.1309 22.9182V23.0134C29.3014 23.9328 29.565 24.9314 30.0147 25.3277C30.1 25.3594 30.1852 25.2802 30.2628 25.2168C30.3791 25.1991 30.4954 25.1851 30.5574 25.4228C30.7279 25.7874 30.6504 26.4215 30.6039 26.8319C30.4643 27.0873 30.3093 27.2458 30.1155 27.2141C29.4952 26.6593 29.0611 25.7698 28.689 24.6144ZM32.0321 22.3634C32.35 21.5233 32.7454 20.7941 33.2571 20.4612C33.4354 20.4136 33.5439 20.3344 33.7067 20.3502C34.3114 20.3819 34.8929 21.1252 34.9239 22.4744C34.9316 23.6157 34.389 24.6936 33.8463 24.7729C33.739 24.8482 33.6263 24.8858 33.5129 24.8839C33.2028 24.8839 32.8927 24.6144 32.6213 24.2815C32.5605 24.1712 32.4958 24.0705 32.4275 23.9803C32.419 23.9725 32.4097 23.9684 32.4004 23.9684C32.391 23.9684 32.3818 23.9725 32.3732 23.9803C32.2647 24.3132 32.1174 24.7888 32.1252 25.1851C32.2414 26.5483 32.9547 27.6896 33.6369 27.5945C34.0091 27.6896 34.3269 27.4043 34.7068 27.1982C34.9782 26.9763 35.1022 26.9605 35.4278 26.9129H35.4821C35.5519 26.8812 35.6216 26.9922 35.6371 27.1982V27.7848C35.5503 27.9883 35.4446 28.1547 35.3262 28.2744C35.2078 28.3941 35.079 28.4647 34.9472 28.4822C34.5285 28.7042 34.1099 29.0212 33.6835 28.9895C33.2183 29.0371 32.7919 28.7993 32.3732 28.2762C31.9546 27.8323 31.6755 27.0714 31.4894 26.1837C31.3111 24.7888 31.6755 23.5065 32.0321 22.3634ZM32.6368 23.1243C32.6756 23.1243 32.8772 23.156 32.9159 23.1719C33.1563 23.4255 33.3966 23.3779 33.6524 23.3779C33.854 23.2511 34.0866 23.0134 34.1874 22.6646C34.2727 22.0305 33.885 21.9513 33.6524 21.7611C33.2571 21.7769 32.9314 22.4268 32.6678 22.9658C32.6601 23.0134 32.6368 23.0768 32.6368 23.1243ZM36.7759 23.8993L36.7915 22.6012C36.7915 22.3634 36.7604 21.3806 36.7527 21.1904C36.7372 21.0636 36.7217 20.8416 36.6674 20.7624C36.3418 20.8099 36.1325 20.8575 35.8844 21.1111C35.7216 21.127 35.6285 21.3489 35.458 21.3014C35.3339 21.2062 35.2487 20.9209 35.1401 20.7307C35.1013 20.5088 35.1013 20.0491 35.1711 19.8588L35.427 19.3991C35.8766 19.3815 36.21 19.2406 36.6286 19.0821L36.6829 18.9553L36.6984 16.4665C36.8302 16.1654 36.9543 16.1019 37.1403 16.1812C37.2637 16.39 37.3462 16.6826 37.3729 17.0055C37.4272 17.2591 37.3651 18.4005 37.4659 18.6065L37.6132 18.7016C38.0629 18.6224 38.3032 18.3846 38.7529 18.4956L39.1095 18.5273C39.3343 18.5907 39.4041 18.9236 39.3576 19.3199C39.2878 19.4608 39.2336 19.5894 39.156 19.6193C38.7529 19.6845 38.373 19.9064 37.9621 20.0808L37.9466 20.0966C37.7916 20.1125 37.621 20.2076 37.4892 20.3027L37.4504 20.4136C37.4504 21.1111 37.3962 21.6976 37.4814 22.411C37.4814 22.7439 37.4504 25.0265 37.621 25.8667C37.7063 26.0252 37.776 26.152 37.9001 26.1661C37.9602 26.1645 38.02 26.1491 38.0784 26.1203C38.4273 25.9442 38.4893 25.9935 38.7374 25.1375C38.7449 24.8789 38.7683 24.6232 38.8072 24.3766C38.8614 24.0754 38.9234 23.8834 39.1173 23.9011C39.3498 23.8218 39.3654 24.4083 39.4196 24.6461C39.3964 24.979 39.3964 25.3277 39.3033 25.6131C39.0475 26.6751 39.001 26.9446 38.1327 27.5311C38.0086 27.5945 37.8536 27.7848 37.714 27.7848C37.5124 27.7671 37.3186 27.6579 37.1868 27.3092C37.0628 26.7702 36.807 26.2154 36.8612 25.4387C36.8535 24.9455 36.807 24.44 36.7837 23.9328C36.7759 23.9151 36.7759 23.9134 36.7759 23.8993ZM39.9037 24.1705V24.0596C40.0045 22.4744 40.7565 20.7624 41.6171 21.0477C41.9815 21.0794 42.3614 21.6818 42.3536 22.4568C42.3536 22.8073 42.1598 22.6153 42.059 22.6646C41.7954 22.4744 41.5938 22.3951 41.3225 22.4585C40.9271 22.8707 40.5317 23.584 40.5395 24.5668C40.4542 25.3119 40.7643 25.6923 41.0744 25.6923C41.1787 25.6994 41.2823 25.6559 41.3768 25.5655C42.0357 24.868 42.4544 23.5365 42.749 22.1574C42.749 22.0305 42.749 21.8086 42.7567 21.5233L42.7878 19.5894C42.7955 19.304 42.7955 19.0662 42.7955 18.9553C42.8265 18.2736 42.8343 17.6079 42.9428 16.9421C42.9661 16.4348 43.0591 15.452 43.0901 15.0399C43.097 14.9001 43.1243 14.7677 43.1686 14.6602C43.2129 14.5528 43.272 14.4751 43.3382 14.4375C43.4777 14.4534 43.7491 14.6594 43.7723 14.9448C43.8654 15.3886 43.8111 15.7849 43.8266 16.2446C43.8111 16.4348 43.8731 17.2116 43.8731 17.4494C43.8731 17.9073 43.7956 19.3516 43.7723 19.7479C43.7336 20.4136 43.532 20.9526 43.4778 21.6501V22.6646C43.4778 22.6646 43.4855 22.6805 43.4855 22.7122L43.5243 22.9024C43.5239 22.9196 43.5267 22.9366 43.532 22.9499L43.6793 23.9645C43.7879 24.8046 43.9662 25.5021 44.1212 26.263C44.129 26.5325 44.1367 26.7544 44.0205 26.9446C43.9972 27.0239 43.9662 27.0397 43.9352 27.0397C43.8499 27.0397 43.7569 26.8636 43.6793 26.7702C43.3537 26.1045 43.1987 25.0265 43.0436 24.1547C42.8653 24.3608 42.5784 25.3277 42.4544 25.5637C42.1675 26.1679 41.8187 26.7861 41.4233 27.0556C41.245 27.1031 41.0434 27.1824 40.8496 27.1824C40.6325 27.1824 40.4154 27.0873 40.2449 26.7702C40.1763 26.6409 40.1116 26.5033 40.051 26.3581C39.8572 25.724 39.8882 24.8839 39.9037 24.1705ZM45.0696 22.3634C45.3875 21.5233 45.7829 20.7941 46.2946 20.4612C46.4729 20.4136 46.5814 20.3344 46.7442 20.3502C47.3489 20.3819 47.9304 21.1252 47.9614 22.4744C47.9692 23.6157 47.4265 24.6936 46.8838 24.7729C46.7766 24.8482 46.6638 24.8858 46.5504 24.8839C46.2403 24.8839 45.9302 24.6144 45.6588 24.2815C45.5981 24.1712 45.5333 24.0705 45.465 23.9803C45.4565 23.9725 45.4472 23.9684 45.4379 23.9684C45.4285 23.9684 45.4193 23.9725 45.4108 23.9803C45.3022 24.3132 45.1549 24.7888 45.1627 25.1851C45.279 26.5483 45.9922 27.6896 46.6745 27.5945C47.0466 27.6896 47.3645 27.4043 47.7444 27.1982C48.0157 26.9763 48.1397 26.9605 48.4654 26.9129H48.5196C48.5894 26.8812 48.6592 26.9922 48.6747 27.1982V27.7848C48.5878 27.9883 48.4822 28.1547 48.3638 28.2744C48.2453 28.3941 48.1165 28.4647 47.9847 28.4822C47.566 28.7042 47.1474 29.0212 46.721 28.9895C46.2558 29.0371 45.8294 28.7993 45.4108 28.2762C44.9921 27.8323 44.713 27.0714 44.5269 26.1837C44.3486 24.7888 44.713 23.5065 45.0696 22.3634ZM45.6744 23.1243C45.7131 23.1243 45.9147 23.156 45.9535 23.1719C46.1938 23.4255 46.4341 23.3779 46.69 23.3779C46.8915 23.2511 47.1241 23.0134 47.2249 22.6646C47.3102 22.0305 46.9226 21.9513 46.69 21.7611C46.2946 21.7769 45.969 22.4268 45.7054 22.9658C45.6976 23.0134 45.6744 23.0768 45.6744 23.1243ZM49.3095 22.3634C49.6274 21.5233 50.0228 20.7941 50.5345 20.4612C50.7128 20.4136 50.8213 20.3344 50.9841 20.3502C51.5888 20.3819 52.1703 21.1252 52.2013 22.4744C52.2091 23.6157 51.6664 24.6936 51.1237 24.7729C51.0164 24.8482 50.9037 24.8858 50.7903 24.8839C50.4802 24.8839 50.1701 24.6144 49.8988 24.2815C49.838 24.1712 49.7732 24.0705 49.7049 23.9803C49.6964 23.9725 49.6872 23.9684 49.6778 23.9684C49.6685 23.9684 49.6592 23.9725 49.6506 23.9803C49.5421 24.3132 49.3948 24.7888 49.4026 25.1851C49.5189 26.5483 50.2321 27.6896 50.9144 27.5945C51.2865 27.6896 51.6043 27.4043 51.9842 27.1982C52.2556 26.9763 52.3796 26.9605 52.7052 26.9129H52.7595C52.8293 26.8812 52.899 26.9922 52.9146 27.1982V27.7848C52.8277 27.9883 52.7221 28.1547 52.6036 28.2744C52.4852 28.3941 52.3564 28.4647 52.2246 28.4822C51.8059 28.7042 51.3873 29.0212 50.9609 28.9895C50.4957 29.0371 50.0693 28.7993 49.6506 28.2762C49.232 27.8323 48.9529 27.0714 48.7668 26.1837C48.5885 24.7888 48.9529 23.5065 49.3095 22.3634ZM49.9142 23.1243C49.953 23.1243 50.1546 23.156 50.1933 23.1719C50.4337 23.4255 50.674 23.3779 50.9299 23.3779C51.1314 23.2511 51.364 23.0134 51.4648 22.6646C51.5501 22.0305 51.1624 21.9513 50.9299 21.7611C50.5345 21.7769 50.2089 22.4268 49.9453 22.9658C49.9375 23.0134 49.9142 23.0768 49.9142 23.1243ZM53.03 22.6311C53.1153 21.6025 53.4099 20.9843 53.7665 20.3185C53.9526 20.1283 54.2162 20.0332 54.4875 20.0332C54.8131 20.0332 55.1465 20.16 55.3791 20.4136C55.6272 20.7307 56.1001 21.3806 56.3172 21.8227C56.3094 22.0147 56.3637 22.4744 56.2629 22.5219C56.0911 22.5563 55.9178 22.5018 55.7589 22.3634C55.4643 22.0288 55.2473 21.6659 54.9372 21.6184C54.6581 21.6342 54.3712 21.5233 54.1076 21.8245C54.0999 21.8245 54.0688 21.9037 54.0611 21.9196C53.9215 22.3 53.7897 22.6329 53.7122 23.0926C53.7355 23.9486 53.658 24.7888 53.7665 25.6289C53.9138 26.1679 53.751 26.6593 53.6192 27.119C53.6001 27.1759 53.5747 27.2228 53.5451 27.2558C53.5154 27.2889 53.4824 27.3072 53.4486 27.3092C53.3655 27.2978 53.2866 27.231 53.2238 27.119C53.0843 26.9429 52.9757 26.5166 52.9292 26.2313C52.9292 25.2168 52.9447 23.5523 53.03 22.6329V22.6311Z" fill="#46464F"/>
<path fill-rule="evenodd" clip-rule="evenodd" d="M69.4347 56.4671C70.1945 54.6776 72.7228 40.0868 73.8658 43.5214C75.0081 46.963 78.4202 74.3392 76.2899 77.0833C74.1604 79.8221 62.1282 63.6303 61.0868 59.9739C60.0462 56.3156 68.6836 55.8348 70.0446 55.1478" fill="#FFDAD6"/>
</svg>
