<svg width="159" height="32" viewBox="0 0 159 32" fill="none" xmlns="http://www.w3.org/2000/svg">
<path d="M51.4457 9.12C50.8057 9.12 50.2097 9.016 49.6577 8.808C49.1137 8.592 48.6377 8.292 48.2297 7.908C47.8297 7.516 47.5177 7.056 47.2937 6.528C47.0697 6 46.9577 5.424 46.9577 4.8C46.9577 4.176 47.0697 3.6 47.2937 3.072C47.5177 2.544 47.8337 2.088 48.2417 1.704C48.6497 1.312 49.1257 1.012 49.6697 0.804C50.2137 0.588 50.8097 0.48 51.4577 0.48C52.1457 0.48 52.7737 0.6 53.3417 0.84C53.9097 1.072 54.3897 1.42 54.7817 1.884L53.7737 2.832C53.4697 2.504 53.1297 2.26 52.7537 2.1C52.3777 1.932 51.9697 1.848 51.5297 1.848C51.0897 1.848 50.6857 1.92 50.3177 2.064C49.9577 2.208 49.6417 2.412 49.3697 2.676C49.1057 2.94 48.8977 3.252 48.7457 3.612C48.6017 3.972 48.5297 4.368 48.5297 4.8C48.5297 5.232 48.6017 5.628 48.7457 5.988C48.8977 6.348 49.1057 6.66 49.3697 6.924C49.6417 7.188 49.9577 7.392 50.3177 7.536C50.6857 7.68 51.0897 7.752 51.5297 7.752C51.9697 7.752 52.3777 7.672 52.7537 7.512C53.1297 7.344 53.4697 7.092 53.7737 6.756L54.7817 7.716C54.3897 8.172 53.9097 8.52 53.3417 8.76C52.7737 9 52.1417 9.12 51.4457 9.12ZM58.7663 9.084C58.1103 9.084 57.5263 8.944 57.0143 8.664C56.5023 8.376 56.0983 7.984 55.8023 7.488C55.5063 6.992 55.3583 6.428 55.3583 5.796C55.3583 5.156 55.5063 4.592 55.8023 4.104C56.0983 3.608 56.5023 3.22 57.0143 2.94C57.5263 2.66 58.1103 2.52 58.7663 2.52C59.4303 2.52 60.0183 2.66 60.5303 2.94C61.0503 3.22 61.4543 3.604 61.7423 4.092C62.0383 4.58 62.1863 5.148 62.1863 5.796C62.1863 6.428 62.0383 6.992 61.7423 7.488C61.4543 7.984 61.0503 8.376 60.5303 8.664C60.0183 8.944 59.4303 9.084 58.7663 9.084ZM58.7663 7.8C59.1343 7.8 59.4623 7.72 59.7503 7.56C60.0383 7.4 60.2623 7.168 60.4223 6.864C60.5903 6.56 60.6743 6.204 60.6743 5.796C60.6743 5.38 60.5903 5.024 60.4223 4.728C60.2623 4.424 60.0383 4.192 59.7503 4.032C59.4623 3.872 59.1383 3.792 58.7783 3.792C58.4103 3.792 58.0823 3.872 57.7943 4.032C57.5143 4.192 57.2903 4.424 57.1223 4.728C56.9543 5.024 56.8703 5.38 56.8703 5.796C56.8703 6.204 56.9543 6.56 57.1223 6.864C57.2903 7.168 57.5143 7.4 57.7943 7.56C58.0823 7.72 58.4063 7.8 58.7663 7.8ZM67.2567 2.52C67.7687 2.52 68.2247 2.62 68.6247 2.82C69.0327 3.02 69.3527 3.328 69.5847 3.744C69.8167 4.152 69.9327 4.68 69.9327 5.328V9H68.4327V5.52C68.4327 4.952 68.2967 4.528 68.0247 4.248C67.7607 3.968 67.3887 3.828 66.9087 3.828C66.5567 3.828 66.2447 3.9 65.9727 4.044C65.7007 4.188 65.4887 4.404 65.3367 4.692C65.1927 4.972 65.1207 5.328 65.1207 5.76V9H63.6207V2.592H65.0487V4.32L64.7967 3.792C65.0207 3.384 65.3447 3.072 65.7687 2.856C66.2007 2.632 66.6967 2.52 67.2567 2.52ZM74.2476 9.084C73.5436 9.084 72.9996 8.904 72.6156 8.544C72.2316 8.176 72.0396 7.636 72.0396 6.924V1.176H73.5396V6.888C73.5396 7.192 73.6156 7.428 73.7676 7.596C73.9276 7.764 74.1476 7.848 74.4276 7.848C74.7636 7.848 75.0436 7.76 75.2676 7.584L75.6876 8.652C75.5116 8.796 75.2956 8.904 75.0396 8.976C74.7836 9.048 74.5196 9.084 74.2476 9.084ZM70.9836 3.84V2.64H75.2556V3.84H70.9836ZM80.8695 9V7.704L80.7855 7.428V5.16C80.7855 4.72 80.6535 4.38 80.3895 4.14C80.1255 3.892 79.7255 3.768 79.1895 3.768C78.8295 3.768 78.4735 3.824 78.1215 3.936C77.7775 4.048 77.4855 4.204 77.2455 4.404L76.6575 3.312C77.0015 3.048 77.4095 2.852 77.8815 2.724C78.3615 2.588 78.8575 2.52 79.3695 2.52C80.2975 2.52 81.0135 2.744 81.5175 3.192C82.0295 3.632 82.2855 4.316 82.2855 5.244V9H80.8695ZM78.8535 9.084C78.3735 9.084 77.9535 9.004 77.5935 8.844C77.2335 8.676 76.9535 8.448 76.7535 8.16C76.5615 7.864 76.4655 7.532 76.4655 7.164C76.4655 6.804 76.5495 6.48 76.7175 6.192C76.8935 5.904 77.1775 5.676 77.5695 5.508C77.9615 5.34 78.4815 5.256 79.1295 5.256H80.9895V6.252H79.2375C78.7255 6.252 78.3815 6.336 78.2055 6.504C78.0295 6.664 77.9415 6.864 77.9415 7.104C77.9415 7.376 78.0495 7.592 78.2655 7.752C78.4815 7.912 78.7815 7.992 79.1655 7.992C79.5335 7.992 79.8615 7.908 80.1495 7.74C80.4455 7.572 80.6575 7.324 80.7855 6.996L81.0375 7.896C80.8935 8.272 80.6335 8.564 80.2575 8.772C79.8895 8.98 79.4215 9.084 78.8535 9.084ZM87.1623 9.084C86.4903 9.084 85.8903 8.944 85.3623 8.664C84.8423 8.376 84.4343 7.984 84.1383 7.488C83.8423 6.992 83.6943 6.428 83.6943 5.796C83.6943 5.156 83.8423 4.592 84.1383 4.104C84.4343 3.608 84.8423 3.22 85.3623 2.94C85.8903 2.66 86.4903 2.52 87.1623 2.52C87.7863 2.52 88.3343 2.648 88.8063 2.904C89.2863 3.152 89.6503 3.52 89.8983 4.008L88.7463 4.68C88.5543 4.376 88.3183 4.152 88.0383 4.008C87.7663 3.864 87.4703 3.792 87.1503 3.792C86.7823 3.792 86.4503 3.872 86.1543 4.032C85.8583 4.192 85.6263 4.424 85.4583 4.728C85.2903 5.024 85.2063 5.38 85.2063 5.796C85.2063 6.212 85.2903 6.572 85.4583 6.876C85.6263 7.172 85.8583 7.4 86.1543 7.56C86.4503 7.72 86.7823 7.8 87.1503 7.8C87.4703 7.8 87.7663 7.728 88.0383 7.584C88.3183 7.44 88.5543 7.216 88.7463 6.912L89.8983 7.584C89.6503 8.064 89.2863 8.436 88.8063 8.7C88.3343 8.956 87.7863 9.084 87.1623 9.084ZM93.689 9.084C92.985 9.084 92.441 8.904 92.057 8.544C91.673 8.176 91.481 7.636 91.481 6.924V1.176H92.981V6.888C92.981 7.192 93.057 7.428 93.209 7.596C93.369 7.764 93.589 7.848 93.869 7.848C94.205 7.848 94.485 7.76 94.709 7.584L95.129 8.652C94.953 8.796 94.737 8.904 94.481 8.976C94.225 9.048 93.961 9.084 93.689 9.084ZM90.425 3.84V2.64H94.697V3.84H90.425ZM102.391 9.084C101.847 9.084 101.367 8.984 100.951 8.784C100.535 8.576 100.211 8.264 99.9793 7.848C99.7473 7.424 99.6313 6.892 99.6313 6.252V2.592H101.131V6.048C101.131 6.624 101.259 7.056 101.515 7.344C101.779 7.624 102.151 7.764 102.631 7.764C102.983 7.764 103.287 7.692 103.543 7.548C103.807 7.404 104.011 7.188 104.155 6.9C104.307 6.612 104.383 6.256 104.383 5.832V2.592H105.883V9H104.455V7.272L104.707 7.8C104.491 8.216 104.175 8.536 103.759 8.76C103.343 8.976 102.887 9.084 102.391 9.084ZM109.827 9.084C109.291 9.084 108.775 9.016 108.279 8.88C107.791 8.736 107.403 8.564 107.115 8.364L107.691 7.224C107.979 7.408 108.323 7.56 108.723 7.68C109.123 7.8 109.523 7.86 109.923 7.86C110.395 7.86 110.735 7.796 110.943 7.668C111.159 7.54 111.267 7.368 111.267 7.152C111.267 6.976 111.195 6.844 111.051 6.756C110.907 6.66 110.719 6.588 110.487 6.54C110.255 6.492 109.995 6.448 109.707 6.408C109.427 6.368 109.143 6.316 108.855 6.252C108.575 6.18 108.319 6.08 108.087 5.952C107.855 5.816 107.667 5.636 107.523 5.412C107.379 5.188 107.307 4.892 107.307 4.524C107.307 4.116 107.423 3.764 107.655 3.468C107.887 3.164 108.211 2.932 108.627 2.772C109.051 2.604 109.551 2.52 110.127 2.52C110.559 2.52 110.995 2.568 111.435 2.664C111.875 2.76 112.239 2.896 112.527 3.072L111.951 4.212C111.647 4.028 111.339 3.904 111.027 3.84C110.723 3.768 110.419 3.732 110.115 3.732C109.659 3.732 109.319 3.8 109.095 3.936C108.879 4.072 108.771 4.244 108.771 4.452C108.771 4.644 108.843 4.788 108.987 4.884C109.131 4.98 109.319 5.056 109.551 5.112C109.783 5.168 110.039 5.216 110.319 5.256C110.607 5.288 110.891 5.34 111.171 5.412C111.451 5.484 111.707 5.584 111.939 5.712C112.179 5.832 112.371 6.004 112.515 6.228C112.659 6.452 112.731 6.744 112.731 7.104C112.731 7.504 112.611 7.852 112.371 8.148C112.139 8.444 111.807 8.676 111.375 8.844C110.943 9.004 110.427 9.084 109.827 9.084Z" fill="#859F3D"/>
<path d="M2.88 29.06C2.36 29.06 1.868 28.988 1.404 28.844C0.94 28.692 0.576 28.504 0.312 28.28L0.696 27.608C0.952 27.8 1.28 27.968 1.68 28.112C2.08 28.248 2.5 28.316 2.94 28.316C3.54 28.316 3.972 28.224 4.236 28.04C4.5 27.848 4.632 27.596 4.632 27.284C4.632 27.052 4.556 26.872 4.404 26.744C4.26 26.608 4.068 26.508 3.828 26.444C3.588 26.372 3.32 26.312 3.024 26.264C2.728 26.216 2.432 26.16 2.136 26.096C1.848 26.032 1.584 25.94 1.344 25.82C1.104 25.692 0.908 25.52 0.756 25.304C0.612 25.088 0.54 24.8 0.54 24.44C0.54 24.096 0.636 23.788 0.828 23.516C1.02 23.244 1.3 23.032 1.668 22.88C2.044 22.72 2.5 22.64 3.036 22.64C3.444 22.64 3.852 22.696 4.26 22.808C4.668 22.912 5.004 23.052 5.268 23.228L4.896 23.912C4.616 23.72 4.316 23.584 3.996 23.504C3.676 23.416 3.356 23.372 3.036 23.372C2.468 23.372 2.048 23.472 1.776 23.672C1.512 23.864 1.38 24.112 1.38 24.416C1.38 24.656 1.452 24.844 1.596 24.98C1.748 25.116 1.944 25.224 2.184 25.304C2.432 25.376 2.7 25.436 2.988 25.484C3.284 25.532 3.576 25.592 3.864 25.664C4.16 25.728 4.428 25.82 4.668 25.94C4.916 26.052 5.112 26.216 5.256 26.432C5.408 26.64 5.484 26.916 5.484 27.26C5.484 27.628 5.38 27.948 5.172 28.22C4.972 28.484 4.676 28.692 4.284 28.844C3.9 28.988 3.432 29.06 2.88 29.06ZM9.65138 29.06C9.11538 29.06 8.64738 28.96 8.24738 28.76C7.84738 28.56 7.53538 28.26 7.31138 27.86C7.09538 27.46 6.98738 26.96 6.98738 26.36V22.7H7.83938V26.264C7.83938 26.936 8.00338 27.444 8.33138 27.788C8.66738 28.124 9.13538 28.292 9.73538 28.292C10.1754 28.292 10.5554 28.204 10.8754 28.028C11.2034 27.844 11.4514 27.58 11.6194 27.236C11.7954 26.892 11.8834 26.48 11.8834 26V22.7H12.7354V29H11.9194V27.272L12.0514 27.584C11.8514 28.048 11.5394 28.412 11.1154 28.676C10.6994 28.932 10.2114 29.06 9.65138 29.06ZM18.3619 29.06C17.8179 29.06 17.3259 28.936 16.8859 28.688C16.4459 28.432 16.0939 28.068 15.8299 27.596C15.5739 27.116 15.4459 26.532 15.4459 25.844C15.4459 25.156 15.5739 24.576 15.8299 24.104C16.0859 23.624 16.4339 23.26 16.8739 23.012C17.3139 22.764 17.8099 22.64 18.3619 22.64C18.9619 22.64 19.4979 22.776 19.9699 23.048C20.4499 23.312 20.8259 23.688 21.0979 24.176C21.3699 24.656 21.5059 25.212 21.5059 25.844C21.5059 26.484 21.3699 27.044 21.0979 27.524C20.8259 28.004 20.4499 28.38 19.9699 28.652C19.4979 28.924 18.9619 29.06 18.3619 29.06ZM15.1099 31.328V22.7H15.9259V24.596L15.8419 25.856L15.9619 27.128V31.328H15.1099ZM18.3019 28.304C18.7499 28.304 19.1499 28.204 19.5019 28.004C19.8539 27.796 20.1339 27.508 20.3419 27.14C20.5499 26.764 20.6539 26.332 20.6539 25.844C20.6539 25.356 20.5499 24.928 20.3419 24.56C20.1339 24.192 19.8539 23.904 19.5019 23.696C19.1499 23.488 18.7499 23.384 18.3019 23.384C17.8539 23.384 17.4499 23.488 17.0899 23.696C16.7379 23.904 16.4579 24.192 16.2499 24.56C16.0499 24.928 15.9499 25.356 15.9499 25.844C15.9499 26.332 16.0499 26.764 16.2499 27.14C16.4579 27.508 16.7379 27.796 17.0899 28.004C17.4499 28.204 17.8539 28.304 18.3019 28.304ZM26.4947 29.06C25.9507 29.06 25.4587 28.936 25.0187 28.688C24.5787 28.432 24.2267 28.068 23.9627 27.596C23.7067 27.116 23.5787 26.532 23.5787 25.844C23.5787 25.156 23.7067 24.576 23.9627 24.104C24.2187 23.624 24.5667 23.26 25.0067 23.012C25.4467 22.764 25.9427 22.64 26.4947 22.64C27.0947 22.64 27.6307 22.776 28.1027 23.048C28.5827 23.312 28.9587 23.688 29.2307 24.176C29.5027 24.656 29.6387 25.212 29.6387 25.844C29.6387 26.484 29.5027 27.044 29.2307 27.524C28.9587 28.004 28.5827 28.38 28.1027 28.652C27.6307 28.924 27.0947 29.06 26.4947 29.06ZM23.2427 31.328V22.7H24.0587V24.596L23.9747 25.856L24.0947 27.128V31.328H23.2427ZM26.4347 28.304C26.8827 28.304 27.2827 28.204 27.6347 28.004C27.9867 27.796 28.2667 27.508 28.4747 27.14C28.6827 26.764 28.7867 26.332 28.7867 25.844C28.7867 25.356 28.6827 24.928 28.4747 24.56C28.2667 24.192 27.9867 23.904 27.6347 23.696C27.2827 23.488 26.8827 23.384 26.4347 23.384C25.9867 23.384 25.5827 23.488 25.2227 23.696C24.8707 23.904 24.5907 24.192 24.3827 24.56C24.1827 24.928 24.0827 25.356 24.0827 25.844C24.0827 26.332 24.1827 26.764 24.3827 27.14C24.5907 27.508 24.8707 27.796 25.2227 28.004C25.5827 28.204 25.9867 28.304 26.4347 28.304ZM33.9435 29.06C33.3355 29.06 32.7875 28.924 32.2995 28.652C31.8195 28.372 31.4395 27.992 31.1595 27.512C30.8795 27.024 30.7395 26.468 30.7395 25.844C30.7395 25.212 30.8795 24.656 31.1595 24.176C31.4395 23.696 31.8195 23.32 32.2995 23.048C32.7795 22.776 33.3275 22.64 33.9435 22.64C34.5675 22.64 35.1195 22.776 35.5995 23.048C36.0875 23.32 36.4675 23.696 36.7395 24.176C37.0195 24.656 37.1595 25.212 37.1595 25.844C37.1595 26.468 37.0195 27.024 36.7395 27.512C36.4675 27.992 36.0875 28.372 35.5995 28.652C35.1115 28.924 34.5595 29.06 33.9435 29.06ZM33.9435 28.304C34.3995 28.304 34.8035 28.204 35.1555 28.004C35.5075 27.796 35.7835 27.508 35.9835 27.14C36.1915 26.764 36.2955 26.332 36.2955 25.844C36.2955 25.348 36.1915 24.916 35.9835 24.548C35.7835 24.18 35.5075 23.896 35.1555 23.696C34.8035 23.488 34.4035 23.384 33.9555 23.384C33.5075 23.384 33.1075 23.488 32.7555 23.696C32.4035 23.896 32.1235 24.18 31.9155 24.548C31.7075 24.916 31.6035 25.348 31.6035 25.844C31.6035 26.332 31.7075 26.764 31.9155 27.14C32.1235 27.508 32.4035 27.796 32.7555 28.004C33.1075 28.204 33.5035 28.304 33.9435 28.304ZM38.8989 29V22.7H39.7149V24.416L39.6309 24.116C39.8069 23.636 40.1029 23.272 40.5189 23.024C40.9349 22.768 41.4509 22.64 42.0669 22.64V23.468C42.0349 23.468 42.0029 23.468 41.9709 23.468C41.9389 23.46 41.9069 23.456 41.8749 23.456C41.2109 23.456 40.6909 23.66 40.3149 24.068C39.9389 24.468 39.7509 25.04 39.7509 25.784V29H38.8989ZM45.8831 29.06C45.2911 29.06 44.8351 28.9 44.5151 28.58C44.1951 28.26 44.0351 27.808 44.0351 27.224V21.308H44.8871V27.176C44.8871 27.544 44.9791 27.828 45.1631 28.028C45.3551 28.228 45.6271 28.328 45.9791 28.328C46.3551 28.328 46.6671 28.22 46.9151 28.004L47.2151 28.616C47.0471 28.768 46.8431 28.88 46.6031 28.952C46.3711 29.024 46.1311 29.06 45.8831 29.06ZM42.9071 23.408V22.7H46.8071V23.408H42.9071ZM53.7581 31.4C52.9341 31.4 52.1821 31.264 51.5021 30.992C50.8221 30.728 50.2341 30.352 49.7381 29.864C49.2501 29.384 48.8701 28.812 48.5981 28.148C48.3341 27.476 48.2021 26.744 48.2021 25.952C48.2021 25.152 48.3341 24.424 48.5981 23.768C48.8701 23.104 49.2541 22.532 49.7501 22.052C50.2541 21.564 50.8501 21.188 51.5381 20.924C52.2261 20.66 52.9821 20.528 53.8061 20.528C54.6221 20.528 55.3661 20.656 56.0381 20.912C56.7181 21.168 57.3061 21.532 57.8021 22.004C58.2981 22.468 58.6781 23.024 58.9421 23.672C59.2141 24.32 59.3501 25.036 59.3501 25.82C59.3501 26.492 59.2701 27.072 59.1101 27.56C58.9581 28.04 58.7341 28.412 58.4381 28.676C58.1421 28.932 57.7861 29.06 57.3701 29.06C56.9621 29.06 56.6341 28.936 56.3861 28.688C56.1381 28.44 56.0141 28.092 56.0141 27.644V26.696L56.1101 25.928L55.9901 24.728V22.916H56.7701V27.464C56.7701 27.8 56.8421 28.036 56.9861 28.172C57.1301 28.308 57.3061 28.376 57.5141 28.376C57.7621 28.376 57.9781 28.276 58.1621 28.076C58.3461 27.876 58.4861 27.588 58.5821 27.212C58.6861 26.828 58.7381 26.368 58.7381 25.832C58.7381 25.128 58.6181 24.488 58.3781 23.912C58.1381 23.336 57.7981 22.84 57.3581 22.424C56.9181 22.008 56.3981 21.692 55.7981 21.476C55.1981 21.252 54.5341 21.14 53.8061 21.14C53.0781 21.14 52.4101 21.256 51.8021 21.488C51.1941 21.72 50.6701 22.052 50.2301 22.484C49.7981 22.908 49.4621 23.416 49.2221 24.008C48.9821 24.592 48.8621 25.24 48.8621 25.952C48.8621 26.664 48.9781 27.316 49.2101 27.908C49.4501 28.5 49.7861 29.008 50.2181 29.432C50.6501 29.864 51.1661 30.196 51.7661 30.428C52.3661 30.668 53.0301 30.788 53.7581 30.788C54.1181 30.788 54.5021 30.744 54.9101 30.656C55.3261 30.568 55.7101 30.436 56.0621 30.26L56.2661 30.848C55.9061 31.032 55.4981 31.168 55.0421 31.256C54.5861 31.352 54.1581 31.4 53.7581 31.4ZM53.6141 29.06C53.0461 29.06 52.5381 28.928 52.0901 28.664C51.6421 28.392 51.2861 28.024 51.0221 27.56C50.7661 27.088 50.6381 26.552 50.6381 25.952C50.6381 25.352 50.7661 24.82 51.0221 24.356C51.2861 23.892 51.6421 23.528 52.0901 23.264C52.5381 23 53.0461 22.868 53.6141 22.868C54.1661 22.868 54.6541 22.992 55.0781 23.24C55.5101 23.488 55.8461 23.844 56.0861 24.308C56.3341 24.764 56.4581 25.312 56.4581 25.952C56.4581 26.592 56.3341 27.144 56.0861 27.608C55.8461 28.072 55.5141 28.432 55.0901 28.688C54.6661 28.936 54.1741 29.06 53.6141 29.06ZM53.7221 28.364C54.1541 28.364 54.5421 28.264 54.8861 28.064C55.2381 27.864 55.5101 27.584 55.7021 27.224C55.9021 26.856 56.0021 26.432 56.0021 25.952C56.0021 25.464 55.9021 25.044 55.7021 24.692C55.5101 24.332 55.2381 24.056 54.8861 23.864C54.5421 23.664 54.1541 23.564 53.7221 23.564C53.2741 23.564 52.8781 23.664 52.5341 23.864C52.1901 24.056 51.9181 24.332 51.7181 24.692C51.5261 25.052 51.4301 25.472 51.4301 25.952C51.4301 26.432 51.5261 26.852 51.7181 27.212C51.9181 27.572 52.1901 27.856 52.5341 28.064C52.8781 28.264 53.2741 28.364 53.7221 28.364ZM63.0065 29L60.1745 20.6H61.0865L63.7385 28.508H63.2825L66.0185 20.6H66.8345L69.5345 28.508H69.1025L71.7785 20.6H72.6305L69.7985 29H68.8625L66.2825 21.5H66.5225L63.9305 29H63.0065ZM74.0435 29V22.7H74.8955V29H74.0435ZM74.4755 21.308C74.2995 21.308 74.1515 21.248 74.0315 21.128C73.9115 21.008 73.8515 20.864 73.8515 20.696C73.8515 20.528 73.9115 20.388 74.0315 20.276C74.1515 20.156 74.2995 20.096 74.4755 20.096C74.6515 20.096 74.7995 20.152 74.9195 20.264C75.0395 20.376 75.0995 20.516 75.0995 20.684C75.0995 20.86 75.0395 21.008 74.9195 21.128C74.8075 21.248 74.6595 21.308 74.4755 21.308ZM77.2661 29V22.7H78.0821V24.416L77.9981 24.116C78.1741 23.636 78.4701 23.272 78.8861 23.024C79.3021 22.768 79.8181 22.64 80.4341 22.64V23.468C80.4021 23.468 80.3701 23.468 80.3381 23.468C80.3061 23.46 80.2741 23.456 80.2421 23.456C79.5781 23.456 79.0581 23.66 78.6821 24.068C78.3061 24.468 78.1181 25.04 78.1181 25.784V29H77.2661ZM84.6062 29.06C83.9502 29.06 83.3742 28.924 82.8782 28.652C82.3822 28.372 81.9942 27.992 81.7142 27.512C81.4342 27.024 81.2942 26.468 81.2942 25.844C81.2942 25.22 81.4262 24.668 81.6902 24.188C81.9622 23.708 82.3302 23.332 82.7942 23.06C83.2662 22.78 83.7942 22.64 84.3782 22.64C84.9702 22.64 85.4942 22.776 85.9502 23.048C86.4142 23.312 86.7782 23.688 87.0422 24.176C87.3062 24.656 87.4382 25.212 87.4382 25.844C87.4382 25.884 87.4342 25.928 87.4262 25.976C87.4262 26.016 87.4262 26.06 87.4262 26.108H81.9422V25.472H86.9702L86.6342 25.724C86.6342 25.268 86.5342 24.864 86.3342 24.512C86.1422 24.152 85.8782 23.872 85.5422 23.672C85.2062 23.472 84.8182 23.372 84.3782 23.372C83.9462 23.372 83.5582 23.472 83.2142 23.672C82.8702 23.872 82.6022 24.152 82.4102 24.512C82.2182 24.872 82.1222 25.284 82.1222 25.748V25.88C82.1222 26.36 82.2262 26.784 82.4342 27.152C82.6502 27.512 82.9462 27.796 83.3222 28.004C83.7062 28.204 84.1422 28.304 84.6302 28.304C85.0142 28.304 85.3702 28.236 85.6982 28.1C86.0342 27.964 86.3222 27.756 86.5622 27.476L87.0422 28.028C86.7622 28.364 86.4102 28.62 85.9862 28.796C85.5702 28.972 85.1102 29.06 84.6062 29.06ZM91.6684 29.072C91.0444 29.072 90.4444 28.972 89.8684 28.772C89.3004 28.564 88.8604 28.3 88.5484 27.98L88.8964 27.296C89.1924 27.584 89.5884 27.828 90.0844 28.028C90.5884 28.22 91.1164 28.316 91.6684 28.316C92.1964 28.316 92.6244 28.252 92.9524 28.124C93.2884 27.988 93.5324 27.808 93.6844 27.584C93.8444 27.36 93.9244 27.112 93.9244 26.84C93.9244 26.512 93.8284 26.248 93.6364 26.048C93.4524 25.848 93.2084 25.692 92.9044 25.58C92.6004 25.46 92.2644 25.356 91.8964 25.268C91.5284 25.18 91.1604 25.088 90.7924 24.992C90.4244 24.888 90.0844 24.752 89.7724 24.584C89.4684 24.416 89.2204 24.196 89.0284 23.924C88.8444 23.644 88.7524 23.28 88.7524 22.832C88.7524 22.416 88.8604 22.036 89.0764 21.692C89.3004 21.34 89.6404 21.06 90.0964 20.852C90.5524 20.636 91.1364 20.528 91.8484 20.528C92.3204 20.528 92.7884 20.596 93.2524 20.732C93.7164 20.86 94.1164 21.04 94.4524 21.272L94.1524 21.98C93.7924 21.74 93.4084 21.564 93.0004 21.452C92.6004 21.34 92.2124 21.284 91.8364 21.284C91.3324 21.284 90.9164 21.352 90.5884 21.488C90.2604 21.624 90.0164 21.808 89.8564 22.04C89.7044 22.264 89.6284 22.52 89.6284 22.808C89.6284 23.136 89.7204 23.4 89.9044 23.6C90.0964 23.8 90.3444 23.956 90.6484 24.068C90.9604 24.18 91.3004 24.28 91.6684 24.368C92.0364 24.456 92.4004 24.552 92.7604 24.656C93.1284 24.76 93.4644 24.896 93.7684 25.064C94.0804 25.224 94.3284 25.44 94.5124 25.712C94.7044 25.984 94.8004 26.34 94.8004 26.78C94.8004 27.188 94.6884 27.568 94.4644 27.92C94.2404 28.264 93.8964 28.544 93.4324 28.76C92.9764 28.968 92.3884 29.072 91.6684 29.072ZM97.2272 27.368L97.2512 26.276L101.175 22.7H102.219L99.4472 25.352L98.9672 25.76L97.2272 27.368ZM96.5552 29V20.096H97.4072V29H96.5552ZM101.439 29L98.8112 25.724L99.3632 25.064L102.483 29H101.439ZM106.192 29.06C105.536 29.06 104.96 28.924 104.464 28.652C103.968 28.372 103.58 27.992 103.3 27.512C103.02 27.024 102.88 26.468 102.88 25.844C102.88 25.22 103.012 24.668 103.276 24.188C103.548 23.708 103.916 23.332 104.38 23.06C104.852 22.78 105.38 22.64 105.964 22.64C106.556 22.64 107.08 22.776 107.536 23.048C108 23.312 108.364 23.688 108.628 24.176C108.892 24.656 109.024 25.212 109.024 25.844C109.024 25.884 109.02 25.928 109.012 25.976C109.012 26.016 109.012 26.06 109.012 26.108H103.528V25.472H108.556L108.22 25.724C108.22 25.268 108.12 24.864 107.92 24.512C107.728 24.152 107.464 23.872 107.128 23.672C106.792 23.472 106.404 23.372 105.964 23.372C105.532 23.372 105.144 23.472 104.8 23.672C104.456 23.872 104.188 24.152 103.996 24.512C103.804 24.872 103.708 25.284 103.708 25.748V25.88C103.708 26.36 103.812 26.784 104.02 27.152C104.236 27.512 104.532 27.796 104.908 28.004C105.292 28.204 105.728 28.304 106.216 28.304C106.6 28.304 106.956 28.236 107.284 28.1C107.62 27.964 107.908 27.756 108.148 27.476L108.628 28.028C108.348 28.364 107.996 28.62 107.572 28.796C107.156 28.972 106.696 29.06 106.192 29.06ZM112.75 29.06C112.158 29.06 111.702 28.9 111.382 28.58C111.062 28.26 110.902 27.808 110.902 27.224V21.308H111.754V27.176C111.754 27.544 111.846 27.828 112.03 28.028C112.222 28.228 112.494 28.328 112.846 28.328C113.222 28.328 113.534 28.22 113.782 28.004L114.082 28.616C113.914 28.768 113.71 28.88 113.47 28.952C113.238 29.024 112.998 29.06 112.75 29.06ZM109.774 23.408V22.7H113.674V23.408H109.774ZM118.027 29.06C117.403 29.06 116.843 28.924 116.347 28.652C115.859 28.372 115.475 27.992 115.195 27.512C114.915 27.024 114.775 26.468 114.775 25.844C114.775 25.212 114.915 24.656 115.195 24.176C115.475 23.696 115.859 23.32 116.347 23.048C116.843 22.776 117.403 22.64 118.027 22.64C118.563 22.64 119.047 22.744 119.479 22.952C119.911 23.16 120.251 23.472 120.499 23.888L119.863 24.32C119.647 24 119.379 23.764 119.059 23.612C118.739 23.46 118.391 23.384 118.015 23.384C117.567 23.384 117.163 23.488 116.803 23.696C116.443 23.896 116.159 24.18 115.951 24.548C115.743 24.916 115.639 25.348 115.639 25.844C115.639 26.34 115.743 26.772 115.951 27.14C116.159 27.508 116.443 27.796 116.803 28.004C117.163 28.204 117.567 28.304 118.015 28.304C118.391 28.304 118.739 28.228 119.059 28.076C119.379 27.924 119.647 27.692 119.863 27.38L120.499 27.812C120.251 28.22 119.911 28.532 119.479 28.748C119.047 28.956 118.563 29.06 118.027 29.06ZM125.295 22.64C125.807 22.64 126.255 22.74 126.639 22.94C127.031 23.132 127.335 23.428 127.551 23.828C127.775 24.228 127.887 24.732 127.887 25.34V29H127.035V25.424C127.035 24.76 126.867 24.26 126.531 23.924C126.203 23.58 125.739 23.408 125.139 23.408C124.691 23.408 124.299 23.5 123.963 23.684C123.635 23.86 123.379 24.12 123.195 24.464C123.019 24.8 122.931 25.208 122.931 25.688V29H122.079V20.096H122.931V24.428L122.763 24.104C122.963 23.648 123.283 23.292 123.723 23.036C124.163 22.772 124.687 22.64 125.295 22.64ZM130.272 29.06C130.096 29.06 129.944 28.996 129.816 28.868C129.696 28.74 129.636 28.584 129.636 28.4C129.636 28.208 129.696 28.052 129.816 27.932C129.944 27.812 130.096 27.752 130.272 27.752C130.448 27.752 130.596 27.812 130.716 27.932C130.844 28.052 130.908 28.208 130.908 28.4C130.908 28.584 130.844 28.74 130.716 28.868C130.596 28.996 130.448 29.06 130.272 29.06ZM135.171 29.06C134.547 29.06 133.987 28.924 133.491 28.652C133.003 28.372 132.619 27.992 132.339 27.512C132.059 27.024 131.919 26.468 131.919 25.844C131.919 25.212 132.059 24.656 132.339 24.176C132.619 23.696 133.003 23.32 133.491 23.048C133.987 22.776 134.547 22.64 135.171 22.64C135.707 22.64 136.191 22.744 136.623 22.952C137.055 23.16 137.395 23.472 137.643 23.888L137.007 24.32C136.791 24 136.523 23.764 136.203 23.612C135.883 23.46 135.535 23.384 135.159 23.384C134.711 23.384 134.307 23.488 133.947 23.696C133.587 23.896 133.303 24.18 133.095 24.548C132.887 24.916 132.783 25.348 132.783 25.844C132.783 26.34 132.887 26.772 133.095 27.14C133.303 27.508 133.587 27.796 133.947 28.004C134.307 28.204 134.711 28.304 135.159 28.304C135.535 28.304 135.883 28.228 136.203 28.076C136.523 27.924 136.791 27.692 137.007 27.38L137.643 27.812C137.395 28.22 137.055 28.532 136.623 28.748C136.191 28.956 135.707 29.06 135.171 29.06ZM141.779 29.06C141.171 29.06 140.623 28.924 140.135 28.652C139.655 28.372 139.275 27.992 138.995 27.512C138.715 27.024 138.575 26.468 138.575 25.844C138.575 25.212 138.715 24.656 138.995 24.176C139.275 23.696 139.655 23.32 140.135 23.048C140.615 22.776 141.163 22.64 141.779 22.64C142.403 22.64 142.955 22.776 143.435 23.048C143.923 23.32 144.303 23.696 144.575 24.176C144.855 24.656 144.995 25.212 144.995 25.844C144.995 26.468 144.855 27.024 144.575 27.512C144.303 27.992 143.923 28.372 143.435 28.652C142.947 28.924 142.395 29.06 141.779 29.06ZM141.779 28.304C142.235 28.304 142.639 28.204 142.991 28.004C143.343 27.796 143.619 27.508 143.819 27.14C144.027 26.764 144.131 26.332 144.131 25.844C144.131 25.348 144.027 24.916 143.819 24.548C143.619 24.18 143.343 23.896 142.991 23.696C142.639 23.488 142.239 23.384 141.791 23.384C141.343 23.384 140.943 23.488 140.591 23.696C140.239 23.896 139.959 24.18 139.751 24.548C139.543 24.916 139.439 25.348 139.439 25.844C139.439 26.332 139.543 26.764 139.751 27.14C139.959 27.508 140.239 27.796 140.591 28.004C140.943 28.204 141.339 28.304 141.779 28.304ZM154.607 22.64C155.119 22.64 155.563 22.74 155.939 22.94C156.323 23.132 156.619 23.428 156.827 23.828C157.043 24.228 157.151 24.732 157.151 25.34V29H156.299V25.424C156.299 24.76 156.139 24.26 155.819 23.924C155.507 23.58 155.063 23.408 154.487 23.408C154.055 23.408 153.679 23.5 153.359 23.684C153.047 23.86 152.803 24.12 152.627 24.464C152.459 24.8 152.375 25.208 152.375 25.688V29H151.523V25.424C151.523 24.76 151.363 24.26 151.043 23.924C150.723 23.58 150.275 23.408 149.699 23.408C149.275 23.408 148.903 23.5 148.583 23.684C148.263 23.86 148.015 24.12 147.839 24.464C147.671 24.8 147.587 25.208 147.587 25.688V29H146.735V22.7H147.551V24.404L147.419 24.104C147.611 23.648 147.919 23.292 148.343 23.036C148.775 22.772 149.283 22.64 149.867 22.64C150.483 22.64 151.007 22.796 151.439 23.108C151.871 23.412 152.151 23.872 152.279 24.488L151.943 24.356C152.127 23.844 152.451 23.432 152.915 23.12C153.387 22.8 153.951 22.64 154.607 22.64Z" fill="white"/>
<path d="M0 30.5H14.5094V31.1H0V30.5ZM16.5609 30.5H22.6422V31.1H16.5609V30.5ZM24.6938 30.5H49.9313V31.1H24.6938V30.5ZM56.8656 30.5H158.279V31.1H56.8656V30.5Z" fill="white"/>
<a href="mailto:support@excalidraw.com">
<rect fill="black" fill-opacity="0" y="22.686" width="158.279" height="14.628"/>
</a>
</svg>
