<svg width="28" height="33" viewBox="0 0 28 33" fill="none" xmlns="http://www.w3.org/2000/svg">
<path d="M8.2464 15.1472C8.10387 15.4186 7.87748 15.5976 7.61492 15.6467C7.35236 15.6957 7.07414 15.6109 6.83886 15.4101C6.60359 15.2093 6.42963 14.9081 6.35364 14.5701C6.27765 14.2321 6.30556 13.8836 6.43149 13.5981L9.85256 6.5008C9.99007 6.21594 10.2174 6.02433 10.4847 5.96805C10.752 5.91176 11.0373 5.99542 11.2781 6.20063L17.2707 11.3156C17.5011 11.5262 17.6671 11.8338 17.7339 12.1738C17.8007 12.5137 17.7629 12.8594 17.6286 13.1381C17.4943 13.4167 17.2739 13.6065 17.0139 13.6675C16.7538 13.7285 16.4745 13.656 16.2346 13.4651L12.4336 10.2207L13.7891 16.6583C14.2032 18.6248 15.2025 20.3839 16.5672 21.5488C17.9318 22.7136 19.5501 23.1886 21.0659 22.8694C21.3334 22.8131 21.619 22.8969 21.8598 23.1025C22.1006 23.308 22.2769 23.6185 22.35 23.9655C22.4231 24.3125 22.3869 24.6677 22.2494 24.9529C22.1119 25.2381 21.8844 25.43 21.6169 25.4863C20.6015 25.7002 19.5413 25.6524 18.497 25.3459C17.4526 25.0393 16.4446 24.4799 15.5304 23.6996C14.6162 22.9192 13.8138 21.9333 13.1689 20.7981C12.524 19.6628 12.0493 18.4005 11.7719 17.0831L10.4163 10.6455L8.2464 15.1472Z" fill="white"/>
</svg>
