<svg width="74" height="43" viewBox="0 0 74 43" fill="none" xmlns="http://www.w3.org/2000/svg">
<path fill-rule="evenodd" clip-rule="evenodd" d="M65.595 14.591C66.515 15.739 68.885 22.679 69.954 20.446C71.021 18.214 74.714 2.83495 72.005 1.19995C69.294 -0.43405 54.781 8.39895 53.69 10.638C52.603 12.876 63.538 14.11 65.471 14.632" fill="#D1ECFF"/>
<mask id="mask0_160_56" style="mask-type:luminance" maskUnits="userSpaceOnUse" x="53" y="0" width="20" height="21">
<path fill-rule="evenodd" clip-rule="evenodd" d="M65.595 14.591C66.515 15.739 68.885 22.679 69.954 20.446C71.021 18.214 74.714 2.83495 72.005 1.19995C69.294 -0.43405 54.781 8.39895 53.69 10.638C52.603 12.876 63.538 14.11 65.471 14.632" fill="white"/>
</mask>
<g mask="url(#mask0_160_56)">
<path d="M69.9539 20.446L70.8559 20.878V20.877L69.9539 20.446ZM53.6899 10.638L52.7909 10.2V10.201L53.6909 10.638H53.6899ZM64.8139 15.216C64.8639 15.277 64.9639 15.436 65.1169 15.728C65.2609 16.004 65.4269 16.345 65.6099 16.732C65.9699 17.493 66.3999 18.428 66.8329 19.252C67.2459 20.038 67.7429 20.884 68.2749 21.372C68.5269 21.603 69.0019 21.954 69.6249 21.875C70.2979 21.788 70.6689 21.269 70.8559 20.878L69.0519 20.014C68.9719 20.181 69.0339 19.934 69.3699 19.891C69.6549 19.854 69.7619 20.021 69.6259 19.897C69.3859 19.676 69.0309 19.134 68.6029 18.321C68.1949 17.546 67.7929 16.67 67.4169 15.876C67.2473 15.5136 67.0706 15.1545 66.8869 14.799C66.7309 14.501 66.5559 14.191 66.3759 13.966L64.8139 15.216ZM70.8559 20.877C71.1719 20.217 71.6239 18.744 72.0749 16.974C72.5349 15.169 73.0179 12.958 73.3819 10.763C73.7449 8.57701 73.9959 6.36501 73.9779 4.57301C73.9679 3.68001 73.8919 2.842 73.7049 2.146C73.5249 1.481 73.1949 0.750002 72.5219 0.344002L71.4889 2.05701C71.4849 2.05501 71.5229 2.07601 71.5819 2.17501C71.6429 2.27601 71.7109 2.434 71.7729 2.665C71.8979 3.131 71.9689 3.78 71.9779 4.594C71.9949 6.215 71.7639 8.29401 71.4089 10.435C71.0681 12.4666 70.6438 14.4833 70.1369 16.48C69.6799 18.273 69.2699 19.558 69.0519 20.014L70.8559 20.877ZM72.5219 0.344002C71.8769 -0.0449985 71.0599 -0.0429917 70.3499 0.0540083C69.5939 0.157008 68.7259 0.401003 67.8139 0.730003C65.9839 1.388 63.8299 2.43701 61.7539 3.59301C59.6739 4.75101 57.6389 6.03401 56.0469 7.17701C55.3417 7.67476 54.6628 8.2088 54.0129 8.777C53.5069 9.228 53.0229 9.725 52.7909 10.2L54.5889 11.076C54.6309 10.991 54.8379 10.722 55.3449 10.268C55.8159 9.84801 56.4519 9.348 57.2139 8.801C58.7339 7.709 60.7039 6.466 62.7259 5.34C64.7539 4.212 66.8039 3.219 68.4919 2.611C69.3389 2.307 70.0589 2.112 70.6189 2.036C70.8989 1.998 71.1129 1.993 71.2689 2.008C71.326 2.01275 71.3826 2.02246 71.4379 2.03701C71.4749 2.04801 71.4889 2.05701 71.4889 2.05701L72.5219 0.344002ZM52.7909 10.201C52.6366 10.5101 52.5818 10.8595 52.6339 11.201C52.6879 11.545 52.8439 11.83 53.0239 12.054C53.3619 12.48 53.8699 12.793 54.3629 13.032C55.3739 13.524 56.7939 13.924 58.2229 14.253C59.6709 14.587 61.2079 14.864 62.4889 15.088C63.8089 15.319 64.7849 15.482 65.2109 15.597L65.7309 13.666C65.1909 13.521 64.0729 13.334 62.8339 13.118C61.5539 12.894 60.0639 12.625 58.6719 12.304C57.2619 11.98 56.0309 11.619 55.2369 11.234C54.8279 11.035 54.6449 10.88 54.5869 10.807C54.5669 10.782 54.5969 10.811 54.6099 10.89C54.6209 10.9523 54.6139 11.0165 54.5899 11.075L52.7909 10.201Z" fill="#46464F"/>
</g>
<path d="M65.2231 14.3509C66.0131 15.4819 69.0131 22.7069 70.1331 20.6539C71.2571 18.5979 74.5631 3.60594 71.9461 2.02394C69.3321 0.441942 55.5731 9.12894 54.4391 11.1639C53.3041 13.2019 63.3661 13.7709 65.1441 14.2449M64.8341 14.2149C65.5591 15.4079 68.5861 23.1579 69.8891 21.0369C71.1921 18.9159 75.2151 3.08994 72.6571 1.49094C70.0981 -0.108063 55.8651 9.27593 54.5391 11.4409C53.2151 13.6059 62.8801 14.1009 64.7071 14.4749" stroke="#46464F" stroke-linecap="round"/>
<path d="M6.14988 19.3411L6.22988 19.366L6.31188 19.364C11.7219 19.281 17.1439 19.4191 22.9719 19.5671C25.0219 19.6191 27.1229 19.6721 29.2919 19.7181C37.6089 19.8921 46.8949 19.9491 58.0839 19.3651C59.9069 19.4951 60.9299 19.983 61.5489 20.775C62.1859 21.591 62.4779 22.8291 62.5789 24.6691C61.6829 29.4181 61.9409 31.4321 62.5419 36.1021L62.5849 36.439C62.8059 38.586 62.3349 39.8491 61.5629 40.5951C60.7769 41.3551 59.5719 41.6861 58.0929 41.722C49.0729 41.338 39.8639 41.487 31.0489 41.657L29.5169 41.687C21.2589 41.848 13.3839 42.002 6.35088 41.724C4.30088 41.413 3.07288 40.9881 2.39788 40.2591C1.74988 39.5591 1.50788 38.4541 1.80488 36.4551L1.81188 36.4081L1.80988 36.362C1.79088 35.885 1.74888 35.3931 1.70188 34.8391C1.53388 32.8881 1.30188 30.179 1.80788 24.749L1.81288 24.702L1.80788 24.655C1.59188 22.394 2.15788 20.8861 2.99188 20.0461C3.81888 19.2141 4.97888 18.9641 6.14988 19.3411Z" fill="#D1ECFF" stroke="#46464F"/>
<path d="M6.30409 18.864C19.6391 18.169 32.4571 18.802 58.0891 18.864M6.30409 18.864C22.7501 18.838 38.9041 18.614 58.0891 18.864M6.30409 18.864C2.74709 18.587 0.877085 21.197 1.31109 24.702M6.30409 18.864C3.29609 18.92 1.49709 21.344 1.31109 24.702M58.0891 18.864C61.0921 19.226 63.4781 20.714 63.0821 24.702M58.0891 18.864C61.1451 18.661 62.6541 20.157 63.0821 24.702M1.31109 24.702C1.44909 30.955 1.03109 33.365 1.31109 36.381M1.31109 24.702C1.09409 28.201 1.06109 32.331 1.31109 36.381M63.0821 24.702C63.2331 26.988 63.2431 29.38 63.0821 36.381M63.0821 24.702C62.9591 28.195 63.1931 31.824 63.0821 36.381M63.0821 36.381C63.0421 39.703 60.9311 42.175 58.0891 42.222M63.0821 36.381C63.0671 40.767 61.9961 42.31 58.0891 42.222M58.0891 42.222C45.3891 42.186 32.1881 41.633 6.30409 42.222M58.0891 42.222C47.2291 42.334 36.1591 42.328 6.30409 42.222M6.30409 42.222C3.34409 42.248 0.872085 40.357 1.31109 36.381M6.30409 42.222C3.54509 42.083 1.12209 40.251 1.31109 36.381" stroke="#46464F" stroke-linecap="round"/>
<path d="M11.569 31.507C11.4995 31.5717 11.4417 31.6478 11.398 31.732C10.903 32.272 10.273 32.875 9.481 32.866C9.112 32.911 8.671 32.749 8.437 32.47C8.212 32.119 7.996 31.795 8.095 31.39C8.122 30.679 8.788 30.166 9.292 29.743C9.589 29.5 9.949 29.437 10.318 29.437C10.606 29.437 10.903 29.482 11.173 29.509C11.272 29.581 11.524 29.626 11.452 29.797C11.461 29.824 11.542 29.887 11.569 29.914C11.695 29.968 11.839 30.031 11.911 30.139C12.154 30.634 12.433 31.174 12.703 31.615C12.775 31.705 13.09 31.93 13.162 32.02C13.387 32.182 13.477 32.335 13.675 32.362C13.702 32.371 13.765 32.443 13.792 32.47C13.81 32.533 13.747 32.641 13.729 32.704C13.648 32.821 13.468 32.884 13.333 32.92C13.063 32.983 12.937 32.857 12.685 32.722L12.649 32.704C12.271 32.38 11.92 31.885 11.569 31.507ZM8.95 31.786C9.067 31.966 9.247 32.029 9.436 32.029C9.58 32.029 9.724 31.993 9.859 31.957C10.264 31.804 10.408 31.669 10.66 31.39C10.831 31.156 11.02 30.841 11.056 30.535C11.065 30.427 11.128 30.184 11.119 30.067C10.768 30.148 10.444 30.112 10.084 30.193C9.571 30.265 9.202 30.787 8.896 31.219C8.761 31.39 8.851 31.606 8.95 31.786ZM14.584 31.21C14.593 30.256 14.674 29.473 14.71 28.483C14.692 27.466 14.809 26.107 14.764 25.072C14.818 24.901 14.917 24.838 15.034 24.838C15.187 24.838 15.358 24.964 15.448 25.126C15.448 25.171 15.448 25.243 15.457 25.342L15.493 25.99C15.502 26.089 15.502 26.161 15.502 26.206C15.466 27.79 15.322 29.5 15.277 30.985C15.34 31.687 15.313 32.182 15.619 32.686C15.628 32.776 15.628 32.821 15.556 32.911C15.4652 32.9611 15.3627 32.986 15.259 32.983C15.1466 32.9868 15.0352 32.9621 14.935 32.911C14.503 32.443 14.602 31.795 14.584 31.21ZM16.948 31.21C16.958 30.256 17.038 29.473 17.074 28.483C17.056 27.466 17.174 26.107 17.128 25.072C17.182 24.901 17.281 24.838 17.398 24.838C17.551 24.838 17.722 24.964 17.812 25.126C17.812 25.171 17.812 25.243 17.822 25.342L17.857 25.99C17.867 26.089 17.867 26.161 17.867 26.206C17.83 27.79 17.687 29.5 17.641 30.985C17.704 31.687 17.677 32.182 17.983 32.686C17.993 32.776 17.993 32.821 17.92 32.911C17.8292 32.9611 17.7267 32.986 17.623 32.983C17.5106 32.9868 17.3992 32.9621 17.299 32.911C16.867 32.443 16.965 31.795 16.948 31.21ZM18.889 31.606V30.634C18.799 30.508 18.799 30.193 18.889 30.067C19.186 29.851 19.609 29.626 19.915 29.437C20.203 29.266 20.545 29.212 20.86 29.212C21.733 29.212 22.615 29.608 23.164 30.292C23.416 30.634 23.56 31.102 23.389 31.489C23.002 32.155 22.426 32.569 21.679 32.74C21.265 32.902 20.86 32.848 20.429 32.848C19.393 32.632 19.259 32.605 18.889 31.606ZM19.744 31.606C19.816 31.75 20.041 32.02 20.204 32.056C20.356 32.137 20.572 32.164 20.797 32.164C21.454 32.164 22.561 31.849 22.651 31.093C22.741 30.778 22.435 30.607 22.255 30.409C21.931 30.229 21.499 29.986 21.095 29.986C20.9643 29.9849 20.8349 30.0125 20.716 30.067C20.6553 30.0998 20.5983 30.1391 20.546 30.184C20.437 30.283 20.338 30.4 20.203 30.463C20.086 30.58 19.834 30.778 19.807 30.922C19.69 31.147 19.771 31.372 19.744 31.606ZM24.206 32.173C24.26 32.074 24.332 31.984 24.376 31.885C24.683 31.939 24.935 32.056 25.169 32.281C25.646 32.65 26.258 32.56 26.825 32.569C26.888 32.569 27.265 32.479 27.338 32.452C27.464 32.398 27.482 32.263 27.392 32.173C27.104 31.966 25.961 31.444 25.745 31.318C25.1683 31.1467 24.6261 30.8756 24.143 30.517C23.999 30.337 23.783 30.256 23.747 30.004C23.737 29.734 23.891 29.536 24.089 29.383C24.349 29.284 24.647 29.248 24.889 29.095C25.385 28.897 25.952 28.744 26.483 28.708C26.807 28.735 27.041 28.726 27.167 29.041C27.203 29.257 27.167 29.401 26.996 29.554C26.402 29.581 25.799 29.563 25.295 29.86C25.16 29.905 25.007 30.094 25.232 30.175C25.979 30.688 26.798 30.931 27.562 31.372C28.094 31.705 28.751 32.479 28.076 33.019C27.616 33.388 26.896 33.397 26.321 33.415C25.736 33.442 24.98 33.235 24.485 32.848C24.197 32.74 24.171 32.425 24.206 32.173ZM32.17 31.507C32.1009 31.5717 32.0434 31.6478 32 31.732C31.505 32.272 30.875 32.875 30.082 32.866C29.713 32.911 29.272 32.749 29.038 32.47C28.814 32.119 28.598 31.795 28.697 31.39C28.724 30.679 29.39 30.166 29.894 29.743C30.191 29.5 30.551 29.437 30.92 29.437C31.207 29.437 31.504 29.482 31.774 29.509C31.874 29.581 32.126 29.626 32.054 29.797C32.062 29.824 32.144 29.887 32.17 29.914C32.297 29.968 32.44 30.031 32.513 30.139C32.755 30.634 33.035 31.174 33.304 31.615C33.376 31.705 33.691 31.93 33.764 32.02C33.988 32.182 34.078 32.335 34.276 32.362C34.303 32.371 34.366 32.443 34.393 32.47C34.411 32.533 34.349 32.641 34.33 32.704C34.25 32.821 34.07 32.884 33.935 32.92C33.665 32.983 33.538 32.857 33.286 32.722L33.251 32.704C32.873 32.38 32.521 31.885 32.171 31.507H32.17ZM29.551 31.786C29.669 31.966 29.849 32.029 30.038 32.029C30.181 32.029 30.326 31.993 30.46 31.957C30.865 31.804 31.01 31.669 31.262 31.39C31.432 31.156 31.622 30.841 31.657 30.535C31.667 30.427 31.73 30.184 31.721 30.067C31.369 30.148 31.046 30.112 30.686 30.193C30.172 30.265 29.803 30.787 29.497 31.219C29.363 31.39 29.452 31.606 29.551 31.786ZM38.264 30.265L38.308 30.274C38.327 30.094 38.344 29.905 38.462 29.779C38.552 29.671 38.56 29.644 38.686 29.653C38.822 29.626 38.903 29.743 39.029 29.833C39.1297 30.0038 39.1705 30.2034 39.145 30.4C39.145 30.409 39.046 30.652 38.975 30.823C38.92 31.3 38.903 31.714 39.208 32.128C39.308 32.353 39.371 32.533 39.236 32.704C39.2262 32.7318 39.2077 32.7556 39.1831 32.7719C39.1586 32.7881 39.1294 32.7959 39.1 32.794C38.974 32.794 38.785 32.686 38.66 32.641C38.417 32.479 38.3 32.227 38.246 31.93C37.751 32.461 37.4 32.632 36.67 32.794C36.031 32.866 35.672 32.515 35.212 32.11C34.772 31.507 34.87 31.147 34.87 30.517C34.9004 30.4646 34.9192 30.4063 34.925 30.346V30.292C34.889 30.112 34.997 29.815 35.042 29.662C35.1074 29.5783 35.1826 29.5028 35.266 29.437C35.402 29.401 35.645 29.482 35.78 29.491C36.022 29.554 35.95 29.869 35.95 30.058C35.95 30.085 35.897 30.166 35.897 30.175C35.761 30.463 35.717 30.679 35.717 30.985C35.672 31.318 35.941 31.687 36.185 31.885C36.382 31.93 36.545 31.984 36.715 31.984C36.8474 31.9842 36.9777 31.9501 37.093 31.885C37.678 31.651 37.939 31.066 38.254 30.526C38.254 30.436 38.264 30.346 38.264 30.265ZM39.941 30.391C40.04 29.806 40.381 29.455 40.796 29.077C41.012 28.969 41.318 28.915 41.633 28.915C42.011 28.915 42.398 28.987 42.668 29.131C42.956 29.311 43.505 29.68 43.757 29.932C43.747 30.04 43.811 30.301 43.694 30.328C43.4945 30.3475 43.2934 30.3166 43.109 30.238C42.767 30.049 42.515 29.842 42.155 29.815C41.831 29.824 41.498 29.761 41.192 29.932C41.182 29.932 41.147 29.977 41.138 29.986C40.976 30.202 40.823 30.391 40.733 30.652C40.76 31.138 40.67 31.615 40.796 32.092C40.966 32.398 40.778 32.677 40.625 32.938C40.6028 32.9703 40.5733 32.997 40.5389 33.0157C40.5045 33.0345 40.4662 33.0449 40.427 33.046C40.3305 33.0395 40.2388 33.0016 40.166 32.938C40.004 32.839 39.878 32.596 39.824 32.434C39.824 31.858 39.842 30.913 39.941 30.391ZM47.246 30.265L47.291 30.274C47.309 30.094 47.327 29.905 47.444 29.779C47.534 29.671 47.543 29.644 47.669 29.653C47.804 29.626 47.885 29.743 48.011 29.833C48.112 30.0037 48.1532 30.2033 48.128 30.4C48.128 30.409 48.028 30.652 47.957 30.823C47.903 31.3 47.885 31.714 48.191 32.128C48.29 32.353 48.353 32.533 48.218 32.704C48.2083 32.7316 48.1899 32.7553 48.1655 32.7716C48.1412 32.7878 48.1122 32.7957 48.083 32.794C47.957 32.794 47.768 32.686 47.642 32.641C47.399 32.479 47.282 32.227 47.228 31.93C46.733 32.461 46.382 32.632 45.653 32.794C45.013 32.866 44.653 32.515 44.195 32.11C43.754 31.507 43.853 31.147 43.853 30.517C43.8831 30.4646 43.9015 30.4062 43.907 30.346V30.292C43.871 30.112 43.979 29.815 44.024 29.662C44.0897 29.5783 44.1653 29.5027 44.249 29.437C44.384 29.401 44.627 29.482 44.762 29.491C45.005 29.554 44.932 29.869 44.932 30.058C44.932 30.085 44.879 30.166 44.879 30.175C44.744 30.463 44.699 30.679 44.699 30.985C44.654 31.318 44.924 31.687 45.167 31.885C45.365 31.93 45.527 31.984 45.697 31.984C45.8298 31.9844 45.9604 31.9503 46.076 31.885C46.661 31.651 46.922 31.066 47.236 30.526C47.236 30.436 47.246 30.346 47.246 30.265ZM49.193 32.173C49.247 32.074 49.319 31.984 49.364 31.885C49.67 31.939 49.922 32.056 50.156 32.281C50.633 32.65 51.246 32.56 51.812 32.569C51.875 32.569 52.253 32.479 52.325 32.452C52.451 32.398 52.469 32.263 52.379 32.173C52.091 31.966 50.949 31.444 50.732 31.318C50.1553 31.1467 49.6131 30.8756 49.13 30.517C48.986 30.337 48.77 30.256 48.734 30.004C48.725 29.734 48.878 29.536 49.076 29.383C49.337 29.284 49.634 29.248 49.877 29.095C50.372 28.897 50.939 28.744 51.47 28.708C51.794 28.735 52.028 28.726 52.154 29.041C52.19 29.257 52.154 29.401 51.984 29.554C51.389 29.581 50.786 29.563 50.282 29.86C50.147 29.905 49.994 30.094 50.219 30.175C50.966 30.688 51.785 30.931 52.55 31.372C53.081 31.705 53.738 32.479 53.063 33.019C52.604 33.388 51.884 33.397 51.308 33.415C50.723 33.442 49.968 33.235 49.472 32.848C49.184 32.74 49.157 32.425 49.193 32.173Z" fill="#46464F"/>
</svg>
