<svg width="78" height="43" viewBox="0 0 78 43" fill="none" xmlns="http://www.w3.org/2000/svg">
<path fill-rule="evenodd" clip-rule="evenodd" d="M68.7041 29.9001C69.5861 28.8841 72.5211 20.6001 73.8481 22.5501C75.1741 24.5041 79.1351 40.0471 76.6621 41.6051C74.1901 43.1601 60.2221 33.9671 59.0131 31.8911C57.8051 29.8141 67.8321 29.5411 69.4121 29.1511" fill="#FFDAD6"/>
<path d="M69.409 28.9801C70.251 27.8731 73.237 20.2181 74.387 22.3321C75.533 24.4471 78.991 40.1171 76.297 41.6721C73.606 43.2281 59.399 33.7371 58.232 31.6641C57.065 29.5901 67.49 29.5781 69.297 29.2341M68.913 29.1511C69.635 28.1731 72.492 20.8421 73.771 22.8771C75.047 24.9101 79.194 39.7971 76.58 41.3571C73.968 42.9151 59.399 34.2731 58.093 32.2321C56.788 30.1941 66.989 29.6521 68.745 29.1121" stroke="#46464F" stroke-linecap="round"/>
<path d="M6.269 1.30997C23.133 1.90597 38.449 0.803971 59.746 1.30997C64.055 0.900971 64.036 2.31797 64.903 7.14897C63.873 10.519 64.931 12.595 64.903 18.827C64.544 23.201 63.331 24.297 59.746 24.668C42.411 24.945 23.594 25.237 6.269 24.668C2.393 24.63 1.40701 21.838 1.11301 18.828C1.87001 14.542 0.637009 10.633 1.11301 7.14797C1.26401 2.64197 2.021 0.329971 6.269 1.31097V1.30997Z" fill="#FFDAD6"/>
<path d="M6.26897 1.31C25.888 1.134 46.28 0.709997 59.746 1.31C41.805 1.79 24.16 1.62 6.26897 1.31ZM6.26897 1.31C2.44397 1.4 0.81797 2.919 1.11197 7.149C0.79997 2.943 2.97497 1.061 6.26897 1.311M64.902 7.149C64.431 3.414 63.617 1.65 59.746 1.311C63.128 0.868997 64.848 2.639 64.902 7.149ZM64.902 7.149C65.316 10.589 64.819 14.825 64.902 18.828M64.902 18.828C64.98 13.694 64.718 10.395 64.902 7.148M64.902 18.828C65.155 22.33 62.891 24.38 59.746 24.668M64.902 18.828C64.746 23.143 62.839 24.421 59.746 24.668M59.746 24.668C42.71 25.01 24.826 24.789 6.26897 24.668M59.746 24.668C39.671 24.418 19.251 24.324 6.26897 24.668M6.26897 24.668C2.35797 24.265 1.56197 23.169 1.11197 18.828M6.26897 24.668C3.03197 24.778 0.73197 23.231 1.11197 18.828M1.11197 18.828C1.39097 14.303 0.85497 9.912 1.11197 7.148C1.19297 13.399 1.29997 16.359 1.11197 18.828Z" stroke="#46464F" stroke-linecap="round"/>
<path d="M7.75211 12.463C7.78811 12.283 7.85112 11.986 7.86912 11.842C7.93212 10.879 8.08511 9.84402 8.09411 8.88102C8.13011 8.75502 8.23811 8.68302 8.31911 8.59302C8.3689 8.5488 8.43255 8.52333 8.49911 8.52102C8.66111 8.52102 8.82312 8.66502 8.89512 8.81802C8.88612 9.43802 8.76011 10.024 8.72411 10.645C8.65211 11.239 8.59811 12.085 8.65211 12.499C8.66111 12.499 8.68811 12.489 8.73311 12.489L9.02111 12.436C9.06611 12.426 9.09312 12.426 9.10212 12.426C9.41712 12.4 9.70511 12.364 9.99311 12.364C10.3981 12.364 10.7761 12.427 11.1631 12.607C11.5681 12.805 11.9011 13.372 11.8651 13.795C11.9371 14.272 11.5591 14.605 11.2261 14.911C10.7644 15.2228 10.2171 15.3833 9.66012 15.37C9.21912 15.406 8.92211 15.27 8.51711 15.037C8.3022 14.899 8.1216 14.7137 7.98903 14.4954C7.85647 14.2771 7.77545 14.0314 7.75211 13.777C7.74311 13.3391 7.74311 12.901 7.75211 12.463ZM8.71511 13.705C8.64311 14.011 8.99411 14.29 9.17411 14.461C9.40811 14.515 9.80411 14.541 10.0831 14.515C10.4251 14.443 10.8481 14.29 10.9381 13.885C11.0461 13.543 10.6591 13.183 10.3711 13.093C10.2625 13.0636 10.1506 13.0485 10.0381 13.048C9.63311 13.048 9.16512 13.21 8.89512 13.372C8.76012 13.48 8.67911 13.534 8.71511 13.705ZM12.4301 12.85C12.5291 12.265 12.8711 11.914 13.2851 11.536C13.5011 11.428 13.8071 11.374 14.1221 11.374C14.5001 11.374 14.8871 11.446 15.1571 11.59C15.4451 11.77 15.9941 12.139 16.2461 12.39C16.2371 12.499 16.3001 12.76 16.1831 12.787C15.9836 12.8066 15.7825 12.7756 15.5981 12.697C15.2561 12.507 15.0041 12.301 14.6441 12.274C14.3201 12.283 13.9871 12.22 13.6811 12.391C13.6721 12.391 13.6361 12.436 13.6271 12.445C13.4651 12.661 13.3121 12.85 13.2221 13.111C13.2491 13.597 13.1591 14.074 13.2851 14.551C13.4561 14.857 13.2671 15.136 13.1141 15.397C13.0919 15.4293 13.0624 15.456 13.028 15.4747C12.9936 15.4935 12.9553 15.5039 12.9161 15.505C12.8196 15.4985 12.728 15.4606 12.6551 15.397C12.4931 15.297 12.3671 15.055 12.3131 14.893C12.3131 14.317 12.3311 13.372 12.4301 12.85ZM16.2351 14.065V13.093C16.1451 12.967 16.1451 12.652 16.2351 12.526C16.5321 12.31 16.9551 12.085 17.2611 11.896C17.5491 11.725 17.8911 11.671 18.2061 11.671C19.0791 11.671 19.9611 12.067 20.5101 12.751C20.7621 13.093 20.9061 13.561 20.7351 13.948C20.3481 14.614 19.7721 15.028 19.0251 15.198C18.6111 15.361 18.2061 15.307 17.7741 15.307C16.7391 15.091 16.6041 15.064 16.2351 14.065ZM17.0901 14.065C17.1621 14.209 17.3871 14.479 17.5491 14.515C17.7021 14.595 17.9181 14.623 18.1431 14.623C18.8001 14.623 19.9071 14.308 19.9971 13.552C20.0871 13.237 19.7811 13.066 19.6011 12.868C19.2771 12.688 18.8451 12.445 18.4401 12.445C18.3098 12.4437 18.1807 12.471 18.0621 12.525C18.001 12.5581 17.9437 12.5976 17.8911 12.643C17.7831 12.742 17.6841 12.859 17.5491 12.922C17.4321 13.039 17.1801 13.237 17.1531 13.381C17.0361 13.606 17.1171 13.831 17.0901 14.065ZM21.1011 13.507C21.1911 12.922 21.4341 12.589 21.9021 12.193C22.2981 11.743 22.9101 11.455 23.4951 11.563C23.9001 11.545 24.2061 11.878 24.4671 12.139C24.6471 12.382 24.6561 12.706 24.6381 12.994C24.5931 13.074 24.5121 13.21 24.4041 13.219C24.2511 13.209 24.0261 13.299 23.9541 13.102C23.9091 12.985 23.7741 12.625 23.6751 12.571C23.4681 12.436 23.2611 12.471 23.0361 12.481C22.5681 12.598 22.2801 13.011 22.0101 13.39C22.0191 13.507 21.8571 13.912 22.0731 14.02C22.2441 14.227 22.4421 14.398 22.6851 14.488C23.1261 14.658 23.6031 14.731 24.0621 14.812L25.1511 15.046C25.2231 15.109 25.3401 15.298 25.3221 15.379C25.2771 15.549 25.0341 15.721 24.8631 15.775C24.5301 15.811 24.2781 15.748 23.9541 15.658C23.5041 15.577 23.0811 15.514 22.6401 15.378C22.1451 15.217 21.6411 14.938 21.3261 14.533C21.1191 14.253 21.0651 13.858 21.1011 13.507ZM26.9061 13.975C26.8521 13.831 26.8341 13.705 26.7351 13.642C26.7351 13.632 26.7261 13.632 26.7171 13.632H26.6451C26.5821 13.966 26.6271 14.416 26.4561 14.722C26.3661 14.929 26.2491 15.162 26.0511 15.28C25.8801 15.307 25.6911 15.28 25.6011 15.118C25.4481 14.875 25.4391 14.524 25.5381 14.263C25.7721 14.092 25.8171 13.966 25.8261 13.642C25.8441 13.507 25.7991 13.327 25.7721 13.182V10.618C25.6821 10.24 25.7181 9.90702 25.7091 9.53802C25.7721 9.43002 25.8351 9.40302 25.9701 9.41202C26.1951 9.35802 26.3301 9.65502 26.3931 9.82602C26.3931 9.86202 26.4831 10.429 26.5101 10.618C26.5371 10.744 26.5641 11.14 26.5641 11.185V12.274C26.5821 12.31 26.6361 12.346 26.6811 12.328C27.8781 11.868 27.7881 11.868 28.2381 11.725C28.5351 11.59 28.7961 11.428 29.0931 11.428C29.1921 11.428 29.2911 11.446 29.3991 11.491C29.4711 11.571 29.6241 11.86 29.6061 11.95C29.4891 12.13 29.2461 12.12 29.0301 12.175C28.8141 12.255 28.6971 12.301 28.6251 12.319C28.6431 12.337 28.4901 12.463 27.4191 13.012V13.066C27.6171 13.588 27.9231 14.155 28.4451 14.38C28.5441 14.398 28.6431 14.353 28.7331 14.317C28.8681 14.307 29.0031 14.299 29.0751 14.434C29.2731 14.641 29.1831 15.001 29.1291 15.234C28.9671 15.379 28.7871 15.469 28.5621 15.451C27.8421 15.136 27.3381 14.631 26.9061 13.975ZM30.7871 12.697C31.1561 12.22 31.6151 11.806 32.2091 11.617C32.4161 11.59 32.5421 11.545 32.7311 11.554C33.4331 11.572 34.1081 11.994 34.1441 12.76C34.1531 13.408 33.5231 14.02 32.8931 14.065C32.7686 14.1078 32.6377 14.1291 32.5061 14.128C32.1461 14.128 31.7861 13.975 31.4711 13.786C31.4006 13.7234 31.3253 13.6662 31.2461 13.615C31.2362 13.6106 31.2255 13.6083 31.2146 13.6083C31.2037 13.6083 31.193 13.6106 31.1831 13.615C31.0571 13.804 30.8861 14.074 30.8951 14.299C31.0301 15.073 31.8581 15.721 32.6501 15.667C33.0821 15.721 33.4511 15.559 33.8921 15.442C34.2071 15.316 34.3511 15.307 34.7291 15.28H34.7921C34.8731 15.262 34.9541 15.325 34.9721 15.442V15.775C34.8713 15.8906 34.7486 15.9851 34.6112 16.053C34.4737 16.121 34.3241 16.1611 34.1711 16.171C33.6851 16.297 33.1991 16.477 32.7041 16.459C32.1641 16.486 31.6691 16.351 31.1831 16.054C30.6971 15.802 30.3731 15.37 30.1571 14.866C29.9501 14.074 30.3731 13.346 30.7871 12.697ZM31.4891 13.129C31.5341 13.129 31.7681 13.147 31.8131 13.156C32.0921 13.3 32.3711 13.273 32.6681 13.273C32.9021 13.201 33.1721 13.066 33.2891 12.868C33.3881 12.508 32.9381 12.463 32.6681 12.355C32.2091 12.364 31.8311 12.733 31.5251 13.039C31.5161 13.066 31.4891 13.102 31.4891 13.129ZM36.2941 13.569L36.3121 12.832C36.3121 12.697 36.2761 12.139 36.2671 12.031C36.2491 11.959 36.2311 11.833 36.1681 11.788C35.7901 11.815 35.5471 11.842 35.2591 11.986C35.0701 11.995 34.9621 12.121 34.7641 12.094C34.6201 12.04 34.5211 11.878 34.3951 11.77C34.3501 11.644 34.3501 11.383 34.4311 11.275L34.7281 11.014C35.2501 11.004 35.6371 10.924 36.1231 10.834L36.1861 10.762L36.2041 9.34902C36.3571 9.17802 36.5011 9.14202 36.7171 9.18702C36.8603 9.30558 36.9562 9.47168 36.9871 9.65502C37.0501 9.79902 36.9781 10.447 37.0951 10.564L37.2661 10.618C37.7881 10.573 38.0671 10.438 38.5891 10.501L39.0031 10.519C39.2641 10.555 39.3451 10.744 39.2911 10.969C39.2101 11.049 39.1471 11.122 39.0571 11.139C38.5891 11.176 38.1481 11.302 37.6711 11.401L37.6531 11.41C37.4731 11.419 37.2751 11.473 37.1221 11.527L37.0771 11.59C37.0771 11.986 37.0141 12.319 37.1131 12.724C37.1131 12.913 37.0771 14.209 37.2751 14.686C37.3741 14.776 37.4551 14.848 37.5991 14.856C37.6689 14.8551 37.7383 14.8464 37.8061 14.83C38.2111 14.73 38.2831 14.758 38.5711 14.272C38.5798 14.1252 38.607 13.98 38.6521 13.84C38.7151 13.669 38.7871 13.56 39.0121 13.57C39.2821 13.525 39.3001 13.858 39.3631 13.993C39.3361 14.182 39.3361 14.38 39.2281 14.542C38.9311 15.145 38.8771 15.298 37.8691 15.631C37.7251 15.667 37.5451 15.775 37.3831 15.775C37.1491 15.765 36.9241 15.703 36.7711 15.505C36.6271 15.199 36.3301 14.884 36.3931 14.443C36.3841 14.163 36.3301 13.876 36.3031 13.588C36.2941 13.578 36.2941 13.577 36.2941 13.569ZM39.9251 13.723V13.66C40.0421 12.76 40.9151 11.788 41.9141 11.95C42.3371 11.968 42.7781 12.31 42.7691 12.75C42.7691 12.949 42.5441 12.84 42.4271 12.868C42.1211 12.76 41.8871 12.715 41.5721 12.751C41.1131 12.985 40.6541 13.39 40.6631 13.948C40.5641 14.371 40.9241 14.587 41.2841 14.587C41.4051 14.591 41.5254 14.5664 41.6351 14.515C42.4001 14.119 42.8861 13.363 43.2281 12.58C43.2281 12.508 43.2281 12.382 43.2371 12.22L43.2731 11.122C43.2821 10.96 43.2821 10.825 43.2821 10.762C43.3181 10.375 43.3271 9.99702 43.4531 9.61902C43.4801 9.33102 43.5881 8.77302 43.6241 8.53902C43.6321 8.45964 43.6638 8.38451 43.7152 8.32349C43.7666 8.26246 43.8352 8.21838 43.9121 8.19702C44.0741 8.20602 44.3891 8.32302 44.4161 8.48502C44.5241 8.73702 44.4611 8.96202 44.4791 9.22302C44.4611 9.33102 44.5331 9.77202 44.5331 9.90702C44.5331 10.167 44.4431 10.987 44.4161 11.212C44.3711 11.59 44.1371 11.896 44.0741 12.292V12.868C44.0741 12.868 44.0831 12.877 44.0831 12.895L44.1281 13.003C44.1277 13.0128 44.1309 13.0224 44.1371 13.03L44.3081 13.606C44.4341 14.083 44.6411 14.479 44.8211 14.911C44.8301 15.064 44.8391 15.19 44.7041 15.298C44.6771 15.343 44.6411 15.352 44.6051 15.352C44.5061 15.352 44.3981 15.252 44.3081 15.199C43.9301 14.821 43.7501 14.209 43.5701 13.714C43.3631 13.831 43.0301 14.38 42.8861 14.514C42.5531 14.857 42.1481 15.208 41.6891 15.361C41.4821 15.388 41.2481 15.433 41.0231 15.433C40.7711 15.433 40.5191 15.379 40.3211 15.199C40.2415 15.1256 40.1664 15.0475 40.0961 14.965C39.8711 14.605 39.9071 14.128 39.9251 13.723ZM45.9221 12.697C46.2911 12.22 46.7501 11.806 47.3441 11.617C47.5511 11.59 47.6771 11.545 47.8661 11.554C48.5681 11.572 49.2431 11.994 49.2791 12.76C49.2881 13.408 48.6581 14.02 48.0281 14.065C47.9036 14.1078 47.7727 14.1291 47.6411 14.128C47.2811 14.128 46.9211 13.975 46.6061 13.786C46.5355 13.7234 46.4604 13.6662 46.3811 13.615C46.3712 13.6106 46.3605 13.6083 46.3496 13.6083C46.3387 13.6083 46.328 13.6106 46.3181 13.615C46.1921 13.804 46.0211 14.074 46.0301 14.299C46.1651 15.073 46.9931 15.721 47.7851 15.667C48.2171 15.721 48.5861 15.559 49.0271 15.442C49.3421 15.316 49.4861 15.307 49.8641 15.28H49.9271C50.0081 15.262 50.0891 15.325 50.1071 15.442V15.775C50.0063 15.8906 49.8836 15.9851 49.7462 16.053C49.6087 16.121 49.4591 16.1611 49.3061 16.171C48.8201 16.297 48.3341 16.477 47.8391 16.459C47.2991 16.486 46.8041 16.351 46.3181 16.054C45.8321 15.802 45.5081 15.37 45.2921 14.866C45.0851 14.074 45.5081 13.346 45.9221 12.697ZM46.6241 13.129C46.6691 13.129 46.9031 13.147 46.9481 13.156C47.2271 13.3 47.5061 13.273 47.8031 13.273C48.0371 13.201 48.3071 13.066 48.4241 12.868C48.5231 12.508 48.0731 12.463 47.8031 12.355C47.3441 12.364 46.9661 12.733 46.6601 13.039C46.6511 13.066 46.6241 13.102 46.6241 13.129ZM50.8441 12.697C51.2131 12.22 51.6721 11.806 52.2661 11.617C52.4731 11.59 52.5991 11.545 52.7881 11.554C53.4901 11.572 54.1651 11.994 54.2011 12.76C54.2101 13.408 53.5801 14.02 52.9501 14.065C52.8256 14.1078 52.6947 14.1291 52.5631 14.128C52.2031 14.128 51.8431 13.975 51.5281 13.786C51.4576 13.7234 51.3824 13.6662 51.3031 13.615C51.2932 13.6106 51.2825 13.6083 51.2716 13.6083C51.2608 13.6083 51.25 13.6106 51.2401 13.615C51.1141 13.804 50.9431 14.074 50.9521 14.299C51.0871 15.073 51.9151 15.721 52.7071 15.667C53.1391 15.721 53.5081 15.559 53.9491 15.442C54.2641 15.316 54.4081 15.307 54.7861 15.28H54.8491C54.9301 15.262 55.0111 15.325 55.0291 15.442V15.775C54.9283 15.8906 54.8056 15.9851 54.6682 16.053C54.5307 16.121 54.3811 16.1611 54.2281 16.171C53.7421 16.297 53.2561 16.477 52.7611 16.459C52.2211 16.486 51.7261 16.351 51.2401 16.054C50.7541 15.802 50.4301 15.37 50.2141 14.866C50.0071 14.074 50.4301 13.346 50.8441 12.697ZM51.5461 13.129C51.5911 13.129 51.8251 13.147 51.8701 13.156C52.1491 13.3 52.4281 13.273 52.7251 13.273C52.9591 13.201 53.2291 13.066 53.3461 12.868C53.4451 12.508 52.9951 12.463 52.7251 12.355C52.2661 12.364 51.8881 12.733 51.5821 13.039C51.5731 13.066 51.5461 13.102 51.5461 13.129ZM55.1631 12.849C55.2621 12.265 55.6041 11.914 56.0181 11.536C56.2341 11.428 56.5401 11.374 56.8551 11.374C57.2331 11.374 57.6201 11.446 57.8901 11.59C58.1781 11.77 58.7271 12.139 58.9791 12.39C58.9701 12.499 59.0331 12.76 58.9161 12.787C58.7166 12.8066 58.5155 12.7756 58.3311 12.697C57.9891 12.507 57.7371 12.301 57.3771 12.274C57.0531 12.283 56.7201 12.22 56.4141 12.391C56.4051 12.391 56.3691 12.436 56.3601 12.445C56.1981 12.661 56.0451 12.85 55.9551 13.111C55.9821 13.597 55.8921 14.074 56.0181 14.551C56.1891 14.857 56.0001 15.136 55.8471 15.397C55.8249 15.4293 55.7954 15.456 55.761 15.4747C55.7266 15.4935 55.6883 15.5039 55.6491 15.505C55.5526 15.4985 55.461 15.4606 55.3881 15.397C55.2261 15.297 55.1001 15.055 55.0461 14.893C55.0461 14.317 55.0641 13.372 55.1631 12.85V12.849Z" fill="#46464F"/>
</svg>
