<svg width="152" height="27" viewBox="0 0 152 27" fill="none" xmlns="http://www.w3.org/2000/svg">
<path d="M34.02 22L29.44 8H32.8L36.78 20.4H35.1L39.26 8H42.26L46.26 20.4H44.64L48.72 8H51.82L47.24 22H43.76L40.22 11.12H41.14L37.5 22H34.02ZM53.5845 22V11.24H56.7045V22H53.5845ZM55.1445 9.74C54.5712 9.74 54.1045 9.57333 53.7445 9.24C53.3845 8.90667 53.2045 8.49333 53.2045 8C53.2045 7.50667 53.3845 7.09333 53.7445 6.76C54.1045 6.42667 54.5712 6.26 55.1445 6.26C55.7179 6.26 56.1845 6.42 56.5445 6.74C56.9045 7.04667 57.0845 7.44667 57.0845 7.94C57.0845 8.46 56.9045 8.89333 56.5445 9.24C56.1979 9.57333 55.7312 9.74 55.1445 9.74ZM59.6002 22V11.24H62.5802V14.28L62.1602 13.4C62.4802 12.64 62.9935 12.0667 63.7002 11.68C64.4068 11.28 65.2668 11.08 66.2802 11.08V13.96C66.1468 13.9467 66.0268 13.94 65.9202 13.94C65.8135 13.9267 65.7002 13.92 65.5802 13.92C64.7268 13.92 64.0335 14.1667 63.5002 14.66C62.9802 15.14 62.7202 15.8933 62.7202 16.92V22H59.6002ZM73.3972 22.16C72.1705 22.16 71.0905 21.92 70.1572 21.44C69.2372 20.96 68.5239 20.3067 68.0172 19.48C67.5105 18.64 67.2572 17.6867 67.2572 16.62C67.2572 15.54 67.5039 14.5867 67.9972 13.76C68.5039 12.92 69.1905 12.2667 70.0572 11.8C70.9239 11.32 71.9039 11.08 72.9972 11.08C74.0505 11.08 74.9972 11.3067 75.8372 11.76C76.6905 12.2 77.3639 12.84 77.8572 13.68C78.3505 14.5067 78.5972 15.5 78.5972 16.66C78.5972 16.78 78.5905 16.92 78.5772 17.08C78.5639 17.2267 78.5505 17.3667 78.5372 17.5H69.7972V15.68H76.8972L75.6972 16.22C75.6972 15.66 75.5839 15.1733 75.3572 14.76C75.1305 14.3467 74.8172 14.0267 74.4172 13.8C74.0172 13.56 73.5505 13.44 73.0172 13.44C72.4839 13.44 72.0105 13.56 71.5972 13.8C71.1972 14.0267 70.8839 14.3533 70.6572 14.78C70.4305 15.1933 70.3172 15.6867 70.3172 16.26V16.74C70.3172 17.3267 70.4439 17.8467 70.6972 18.3C70.9639 18.74 71.3305 19.08 71.7972 19.32C72.2772 19.5467 72.8372 19.66 73.4772 19.66C74.0505 19.66 74.5505 19.5733 74.9772 19.4C75.4172 19.2267 75.8172 18.9667 76.1772 18.62L77.8372 20.42C77.3439 20.98 76.7239 21.4133 75.9772 21.72C75.2305 22.0133 74.3705 22.16 73.3972 22.16ZM85.4944 22.24C84.3744 22.24 83.301 22.0933 82.2744 21.8C81.2477 21.4933 80.421 21.1 79.7944 20.62L80.8944 18.18C81.4944 18.6067 82.201 18.96 83.0144 19.24C83.841 19.5067 84.6744 19.64 85.5144 19.64C86.1544 19.64 86.6677 19.58 87.0544 19.46C87.4544 19.3267 87.7477 19.1467 87.9344 18.92C88.121 18.6933 88.2144 18.4333 88.2144 18.14C88.2144 17.7667 88.0677 17.4733 87.7744 17.26C87.481 17.0333 87.0944 16.8533 86.6144 16.72C86.1344 16.5733 85.601 16.44 85.0144 16.32C84.441 16.1867 83.861 16.0267 83.2744 15.84C82.701 15.6533 82.1744 15.4133 81.6944 15.12C81.2144 14.8267 80.821 14.44 80.5144 13.96C80.221 13.48 80.0744 12.8667 80.0744 12.12C80.0744 11.32 80.2877 10.5933 80.7144 9.94C81.1544 9.27333 81.8077 8.74667 82.6744 8.36C83.5544 7.96 84.6544 7.76 85.9744 7.76C86.8544 7.76 87.721 7.86667 88.5744 8.08C89.4277 8.28 90.181 8.58667 90.8344 9L89.8344 11.46C89.181 11.0867 88.5277 10.8133 87.8744 10.64C87.221 10.4533 86.581 10.36 85.9544 10.36C85.3277 10.36 84.8144 10.4333 84.4144 10.58C84.0144 10.7267 83.7277 10.92 83.5544 11.16C83.381 11.3867 83.2944 11.6533 83.2944 11.96C83.2944 12.32 83.441 12.6133 83.7344 12.84C84.0277 13.0533 84.4144 13.2267 84.8944 13.36C85.3744 13.4933 85.901 13.6267 86.4744 13.76C87.061 13.8933 87.641 14.0467 88.2144 14.22C88.801 14.3933 89.3344 14.6267 89.8144 14.92C90.2944 15.2133 90.681 15.6 90.9744 16.08C91.281 16.56 91.4344 17.1667 91.4344 17.9C91.4344 18.6867 91.2144 19.4067 90.7744 20.06C90.3344 20.7133 89.6744 21.24 88.7944 21.64C87.9277 22.04 86.8277 22.24 85.4944 22.24ZM96.0083 19.8L96.0883 16L101.108 11.24H104.828L100.008 16.14L98.3883 17.46L96.0083 19.8ZM93.4283 22V7.16H96.5483V22H93.4283ZM101.448 22L97.8083 17.48L99.7683 15.06L105.228 22H101.448ZM111.522 22.16C110.296 22.16 109.216 21.92 108.282 21.44C107.362 20.96 106.649 20.3067 106.142 19.48C105.636 18.64 105.382 17.6867 105.382 16.62C105.382 15.54 105.629 14.5867 106.122 13.76C106.629 12.92 107.316 12.2667 108.182 11.8C109.049 11.32 110.029 11.08 111.122 11.08C112.176 11.08 113.122 11.3067 113.962 11.76C114.816 12.2 115.489 12.84 115.982 13.68C116.476 14.5067 116.722 15.5 116.722 16.66C116.722 16.78 116.716 16.92 116.702 17.08C116.689 17.2267 116.676 17.3667 116.662 17.5H107.922V15.68H115.022L113.822 16.22C113.822 15.66 113.709 15.1733 113.482 14.76C113.256 14.3467 112.942 14.0267 112.542 13.8C112.142 13.56 111.676 13.44 111.142 13.44C110.609 13.44 110.136 13.56 109.722 13.8C109.322 14.0267 109.009 14.3533 108.782 14.78C108.556 15.1933 108.442 15.6867 108.442 16.26V16.74C108.442 17.3267 108.569 17.8467 108.822 18.3C109.089 18.74 109.456 19.08 109.922 19.32C110.402 19.5467 110.962 19.66 111.602 19.66C112.176 19.66 112.676 19.5733 113.102 19.4C113.542 19.2267 113.942 18.9667 114.302 18.62L115.962 20.42C115.469 20.98 114.849 21.4133 114.102 21.72C113.356 22.0133 112.496 22.16 111.522 22.16ZM123.199 22.16C121.933 22.16 120.946 21.84 120.239 21.2C119.533 20.5467 119.179 19.58 119.179 18.3V8.86H122.299V18.26C122.299 18.7133 122.419 19.0667 122.659 19.32C122.899 19.56 123.226 19.68 123.639 19.68C124.133 19.68 124.553 19.5467 124.899 19.28L125.739 21.48C125.419 21.7067 125.033 21.88 124.579 22C124.139 22.1067 123.679 22.16 123.199 22.16ZM117.519 13.88V11.48H124.979V13.88H117.519ZM132.359 22.16C131.199 22.16 130.165 21.9267 129.259 21.46C128.352 20.98 127.639 20.32 127.119 19.48C126.612 18.64 126.359 17.6867 126.359 16.62C126.359 15.54 126.612 14.5867 127.119 13.76C127.639 12.92 128.352 12.2667 129.259 11.8C130.165 11.32 131.199 11.08 132.359 11.08C133.492 11.08 134.479 11.32 135.319 11.8C136.159 12.2667 136.779 12.94 137.179 13.82L134.759 15.12C134.479 14.6133 134.125 14.24 133.699 14C133.285 13.76 132.832 13.64 132.339 13.64C131.805 13.64 131.325 13.76 130.899 14C130.472 14.24 130.132 14.58 129.879 15.02C129.639 15.46 129.519 15.9933 129.519 16.62C129.519 17.2467 129.639 17.78 129.879 18.22C130.132 18.66 130.472 19 130.899 19.24C131.325 19.48 131.805 19.6 132.339 19.6C132.832 19.6 133.285 19.4867 133.699 19.26C134.125 19.02 134.479 18.64 134.759 18.12L137.179 19.44C136.779 20.3067 136.159 20.98 135.319 21.46C134.479 21.9267 133.492 22.16 132.359 22.16ZM145.457 11.08C146.31 11.08 147.07 11.2533 147.737 11.6C148.417 11.9333 148.95 12.4533 149.337 13.16C149.723 13.8533 149.917 14.7467 149.917 15.84V22H146.797V16.32C146.797 15.4533 146.603 14.8133 146.217 14.4C145.843 13.9867 145.31 13.78 144.617 13.78C144.123 13.78 143.677 13.8867 143.277 14.1C142.89 14.3 142.583 14.6133 142.357 15.04C142.143 15.4667 142.037 16.0133 142.037 16.68V22H138.917V7.16H142.037V14.22L141.337 13.32C141.723 12.6 142.277 12.0467 142.997 11.66C143.717 11.2733 144.537 11.08 145.457 11.08Z" fill="#859F3D"/>
<path fill-rule="evenodd" clip-rule="evenodd" d="M23.7386 3.17344L24.7471 4.11742C25.5493 4.86857 26 5.88722 26 6.94935C26 8.01148 25.5493 9.03012 24.7471 9.78128L20.5035 13.7535L25.0424 18.002C25.3074 18.25 25.5176 18.5444 25.6611 18.8685C25.8045 19.1925 25.8783 19.5399 25.8783 19.8906C25.8783 20.2414 25.8045 20.5887 25.6611 20.9128C25.5176 21.2369 25.3074 21.5313 25.0424 21.7793L21.0084 25.5552C20.7435 25.8032 20.429 26 20.0828 26.1343C19.7366 26.2686 19.3655 26.3377 18.9908 26.3377C18.616 26.3377 18.245 26.2686 17.8988 26.1343C17.5526 26 17.238 25.8032 16.9731 25.5552L12.4342 21.3066L9.06359 24.463C8.73226 24.7732 8.30128 24.973 7.83686 25.0318L2.24529 25.7394C2.02725 25.7673 1.80527 25.7476 1.59673 25.6818C1.38819 25.616 1.19873 25.5059 1.04319 25.3602C0.887649 25.2145 0.770237 25.0371 0.700142 24.8418C0.630046 24.6465 0.609168 24.4387 0.639141 24.2347L1.39514 19.0021C1.45789 18.5674 1.67137 18.1639 2.0028 17.8538L5.37486 14.6988L0.835987 10.4502C0.570954 10.2022 0.360711 9.9078 0.21727 9.58374C0.0738289 9.25969 0 8.91235 0 8.56158C0 8.21082 0.0738289 7.86348 0.21727 7.53943C0.360711 7.21537 0.570954 6.92094 0.835987 6.67296L4.86991 2.89706C5.13483 2.64898 5.44938 2.45218 5.79558 2.31791C6.14178 2.18365 6.51284 2.11454 6.88758 2.11454C7.26232 2.11454 7.63338 2.18365 7.97958 2.31791C8.32578 2.45218 8.64033 2.64898 8.90525 2.89706L13.4441 7.14562L17.6863 3.17344C18.0837 2.80142 18.5555 2.50631 19.0747 2.30497C19.5939 2.10363 20.1504 2 20.7125 2C21.2745 2 21.831 2.10363 22.3502 2.30497C22.8695 2.50631 23.3412 2.80142 23.7386 3.17344ZM18.4865 15.6427L14.4526 19.4186L14.9561 19.8913L15.9646 18.9473C16.2207 18.7053 16.5659 18.5641 16.9297 18.5525C17.2934 18.541 17.648 18.66 17.9211 18.8852C18.1941 19.1104 18.3649 19.4248 18.3984 19.764C18.4319 20.1032 18.3257 20.4415 18.1014 20.7098L17.983 20.8353L16.9745 21.7793L18.9915 23.6672L23.0254 19.8913L18.4865 15.6427ZM16.6778 7.89332L4.1895 19.5829L3.71736 22.8581L7.21637 22.4148L19.7047 10.7266L16.6778 7.89332ZM6.88687 4.78635L2.85437 8.56092L4.87133 10.4502L5.87981 9.50623C6.13592 9.26422 6.48115 9.12299 6.84485 9.11144C7.20856 9.09989 7.56323 9.21889 7.83626 9.4441C8.1093 9.6693 8.28006 9.98367 8.31358 10.3229C8.3471 10.6621 8.24086 11.0004 8.01659 11.2687L7.89677 11.3942L6.88829 12.3382L7.39325 12.8095L11.4272 9.03357L6.88687 4.78635ZM19.7047 5.06273L18.6962 6.00671L21.7202 8.83864L22.7301 7.89466C22.9975 7.64427 23.1478 7.30473 23.1478 6.95068C23.1478 6.59664 22.9975 6.25709 22.7301 6.00671L21.7216 5.06273C21.4542 4.81242 21.0914 4.6718 20.7132 4.6718C20.3349 4.6718 19.9722 4.81242 19.7047 5.06273Z" fill="#31511E"/>
</svg>
