<svg width="77" height="73" viewBox="0 0 77 73" fill="none" xmlns="http://www.w3.org/2000/svg">
<path fill-rule="evenodd" clip-rule="evenodd" d="M7.80204 23.9386C7.0104 25.9606 4.96884 38.1841 4.04712 34.2511C3.12799 30.3199 -0.0531839 3.23257 2.28039 0.35282C4.61569 -2.52517 17.1183 13.0325 18.0572 16.9761C18.9944 20.918 9.57486 23.0914 7.90888 24.0108" fill="#D3FFD2"/>
<mask id="mask0_157_56" style="mask-type:luminance" maskUnits="userSpaceOnUse" x="1" y="0" width="18" height="36">
<path fill-rule="evenodd" clip-rule="evenodd" d="M7.80204 23.9386C7.0104 25.9606 4.96884 38.1841 4.04712 34.2511C3.12799 30.3199 -0.0531839 3.23257 2.28039 0.35282C4.61569 -2.52517 17.1183 13.0325 18.0572 16.9761C18.9944 20.918 9.57486 23.0914 7.90888 24.0108" fill="white"/>
</mask>
<g mask="url(#mask0_157_56)">
<path d="M4.04692 34.2511L3.26994 35.012V35.0102L4.04692 34.2511ZM18.057 16.9761L18.8314 16.2046L18.8323 16.2064L18.057 16.9761ZM8.47461 25.0394C8.4324 25.1468 8.34626 25.4269 8.21446 25.9412C8.08956 26.4273 7.94744 27.0279 7.7898 27.7095C7.47883 29.0499 7.10928 30.6967 6.73543 32.1481C6.37966 33.5324 5.95239 35.0225 5.49325 35.882C5.27617 36.2889 4.867 36.9071 4.3312 36.768C3.75061 36.6148 3.43189 35.7006 3.26994 35.012L4.82395 33.4902C4.89286 33.7843 4.83941 33.3493 4.54997 33.2735C4.30533 33.2084 4.21231 33.5025 4.32947 33.2841C4.53707 32.8949 4.84202 31.9402 5.2107 30.5083C5.56216 29.1432 5.90843 27.6003 6.23232 26.2019C6.39168 25.5149 6.54592 24.8597 6.68806 24.3049C6.8233 23.78 6.97405 23.234 7.12996 22.8377L8.47461 25.0394ZM3.26994 35.0102C2.99774 33.8477 2.60922 31.2533 2.22072 28.1358C1.7713 24.5227 1.39541 20.873 1.09401 17.1962C0.781312 13.346 0.565069 9.44996 0.581436 6.29368C0.589189 4.72083 0.655527 3.24484 0.816611 2.01896C0.969943 0.847687 1.25508 -0.439839 1.83481 -1.15493L2.72467 1.86222C2.72812 1.8587 2.69537 1.89568 2.64454 2.07005C2.57081 2.34114 2.51547 2.63147 2.48003 2.93308C2.37235 3.75385 2.31118 4.89695 2.30343 6.33066C2.28878 9.18576 2.48774 12.8475 2.79355 16.6185C3.08737 20.1969 3.45321 23.7489 3.89014 27.2657C4.2838 30.4237 4.63702 32.687 4.82395 33.4902L3.26994 35.0102ZM1.83481 -1.15493C2.39042 -1.84009 3.0942 -1.83655 3.7058 -1.6657C4.35703 -1.48429 5.10475 -1.05454 5.89036 -0.475063C7.46675 0.683884 9.32308 2.53152 11.1114 4.5676C12.9031 6.6072 14.6552 8.86697 16.0266 10.8802C16.7106 11.8841 17.3119 12.844 17.7796 13.6982C18.2146 14.4926 18.6324 15.368 18.8314 16.2046L17.2826 17.7475C17.2472 17.5978 17.0689 17.124 16.6313 16.3244C16.2256 15.5846 15.6777 14.704 15.0213 13.7405C13.7111 11.8172 12.0159 9.62785 10.2733 7.64461C8.52717 5.65784 6.76127 3.90885 5.30634 2.83797C4.57672 2.30253 3.95735 1.95908 3.4741 1.82522C3.28895 1.76601 3.10111 1.74946 2.91416 1.7759C2.86499 1.7842 2.81628 1.8013 2.76857 1.82699C2.73756 1.84636 2.72467 1.86222 2.72467 1.86222L1.83481 -1.15493ZM18.8323 16.2064C18.9598 16.7436 19.0149 17.346 18.9666 17.9677C18.9201 18.5736 18.7858 19.0756 18.6316 19.4701C18.3396 20.2204 17.9019 20.7717 17.4773 21.1927C16.6064 22.0592 15.3832 22.7638 14.1522 23.3432C12.9049 23.9315 11.5809 24.4194 10.4774 24.8139C9.33948 25.2208 8.50046 25.5079 8.13349 25.7104L7.6847 22.3093C8.15072 22.0539 9.1129 21.7246 10.1802 21.3441C11.2819 20.9496 12.5672 20.4758 13.7654 19.9104C14.9809 19.3398 16.0404 18.7039 16.7244 18.0258C17.0767 17.6753 17.2352 17.4023 17.2852 17.2737C17.3016 17.2297 17.2757 17.2808 17.2645 17.4199C17.2549 17.5298 17.2612 17.6431 17.2826 17.7458L18.8323 16.2064Z" fill="#46464F"/>
</g>
<path d="M8.12172 23.5159C7.4412 25.5079 4.85692 38.2335 3.89214 34.6175C2.92477 30.9962 0.0760749 4.59055 2.3304 1.80414C4.58214 -0.98226 16.4344 14.3183 17.4121 17.9026C18.3889 21.4921 9.72133 22.4943 8.19059 23.3292M8.45679 23.2763C7.83226 25.3776 5.22476 39.0278 4.10234 35.2921C2.97991 31.5563 -0.485587 3.6817 1.71878 0.865354C3.92228 -1.95099 16.1828 14.5772 17.325 18.3905C18.4656 22.2037 10.14 23.0756 8.5662 23.7343" stroke="#46464F" stroke-linecap="round"/>
<path d="M16.7358 31.3607L16.7927 31.3907H16.8521C22.4539 31.2428 28.0901 31.4858 34.1424 31.7465C44.4648 32.1903 55.9965 32.687 70.632 31.3907C72.5633 31.6214 73.6659 32.5038 74.324 33.9358C74.9873 35.3642 75.2802 37.513 75.3922 40.7204C74.9184 44.9546 74.7461 47.9753 74.7892 51.0347C74.8236 53.9479 75.0476 56.8752 75.3491 60.8646C75.3664 61.0671 75.3836 61.275 75.3922 61.4828C75.6248 65.208 75.1424 67.4026 74.3327 68.7288C73.4928 70.1115 72.1998 70.7051 70.6389 70.7685C61.2736 70.0921 51.711 70.3545 42.5524 70.654L40.9597 70.7068C32.38 70.9904 24.1922 71.2616 16.8805 70.7702C14.7373 70.2207 13.4202 69.4598 12.6958 68.1335C12.0239 66.9024 11.7784 65.0001 12.0842 61.518L12.0928 61.4194L12.0902 61.3208C12.0645 60.4211 12.0266 59.523 11.9765 58.6277C11.8025 55.1896 11.5621 50.4358 12.0876 40.8895L12.0936 40.7908L12.0876 40.6905C11.8662 36.7645 12.4399 34.1366 13.3143 32.6465C14.1981 31.1371 15.4618 30.6668 16.7358 31.3607Z" fill="#D3FFD2" stroke="#46464F"/>
<path d="M16.8459 30.5084C30.6966 29.2842 44.0115 30.3991 70.6353 30.5084M16.8459 30.5084C33.9286 30.4626 50.7081 30.068 70.6353 30.5084M16.8459 30.5084C13.1513 30.0205 11.2097 34.6175 11.6593 40.7909M16.8459 30.5084C13.7215 30.607 11.8531 34.8764 11.6593 40.7909M70.6353 30.5084C73.7545 31.1459 76.2362 33.7668 75.8227 40.7909M70.6353 30.5084C73.8096 30.1508 75.3748 32.7857 75.8227 40.7909M11.6593 40.7909C11.8032 51.8044 11.369 56.0492 11.6593 61.3613M11.6593 40.7909C11.4169 47.6388 11.4169 54.5135 11.6593 61.3613M75.8227 40.7909C75.9777 44.8173 75.9864 49.0304 75.8227 61.3613M75.8227 40.7909C75.6935 46.9432 75.9347 53.335 75.8227 61.3613M75.8227 61.3613C75.7796 67.2124 73.5865 71.5664 70.6353 71.6492M75.8227 61.3613C75.8055 69.0865 74.6943 71.8042 70.6353 71.6492M70.6353 71.6492C57.4435 71.5858 43.7315 70.6118 16.8459 71.6492M70.6353 71.6492C59.3542 71.8465 47.8551 71.8359 16.8459 71.6492M16.8459 71.6492C13.7715 71.695 11.2045 68.3643 11.6593 61.3613M16.8459 71.6492C13.9808 71.4044 11.4629 68.1776 11.6593 61.3613" stroke="#46464F" stroke-linecap="round"/>
<path d="M16.1042 50.3494C16.1895 49.3191 16.4841 48.7008 16.8407 48.0351C17.0268 47.8448 17.2904 47.7497 17.5617 47.7497C17.8874 47.7497 18.2207 47.8765 18.4533 48.1302C18.7014 48.4472 19.1743 49.0971 19.3914 49.541C19.3836 49.7312 19.4379 50.1909 19.3371 50.2385C19.1653 50.2729 18.992 50.2184 18.8332 50.0799C18.5386 49.7471 18.3215 49.3825 18.0114 49.3349C17.7323 49.3508 17.4454 49.2398 17.1818 49.541C17.1741 49.541 17.1431 49.6202 17.1353 49.6361C16.9958 50.0165 16.864 50.3494 16.7864 50.8091C16.8097 51.6651 16.7322 52.5053 16.8407 53.3454C16.988 53.8844 16.8252 54.3758 16.6934 54.8355C16.6743 54.8924 16.6489 54.9393 16.6193 54.9724C16.5897 55.0054 16.5566 55.0237 16.5229 55.0257C16.4398 55.0143 16.3608 54.9475 16.298 54.8355C16.1585 54.6611 16.0499 54.2331 16.0034 53.9478C16.0034 52.9333 16.0189 51.2688 16.1042 50.3494ZM22.3193 52.3151C22.2595 52.4289 22.2097 52.563 22.172 52.7114C21.7456 53.6625 21.2029 54.7246 20.5207 54.7087C20.2028 54.788 19.8229 54.5026 19.6214 54.0112C19.4276 53.393 19.2415 52.8223 19.3268 52.109C19.35 50.8567 19.9237 49.9531 20.3579 49.2081C20.6137 48.7801 20.9238 48.6691 21.2417 48.6691C21.4898 48.6691 21.7456 48.7484 21.9782 48.7959C22.0635 48.9228 22.2806 49.002 22.2186 49.3032C22.2263 49.3508 22.2961 49.4617 22.3193 49.5093C22.4279 49.6044 22.5519 49.7154 22.6139 49.9056C22.8233 50.7774 23.0636 51.7285 23.2962 52.5053C23.3582 52.6638 23.6295 53.0601 23.6915 53.2186C23.8854 53.5039 23.9629 53.7734 24.1334 53.821C24.1567 53.8369 24.211 53.9636 24.2342 54.0112C24.2497 54.1222 24.1955 54.3124 24.18 54.4234C24.1102 54.6294 23.9552 54.7404 23.8389 54.8038C23.6063 54.9148 23.4977 54.6929 23.2807 54.4551L23.2496 54.4234C22.924 53.8527 22.6217 52.9808 22.3193 52.3151ZM20.0633 52.8065C20.1641 53.1235 20.3191 53.2345 20.4819 53.2345C20.606 53.2345 20.73 53.171 20.8463 53.1076C21.1952 52.8382 21.3192 52.6004 21.5363 52.109C21.6836 51.6969 21.8464 51.142 21.8774 50.6031C21.8852 50.4128 21.9395 49.9848 21.9317 49.7788C21.6293 49.9214 21.3502 49.858 21.0401 50.0007C20.5982 50.1275 20.2803 51.0469 20.0168 51.8078C19.9005 52.109 19.978 52.4894 20.0633 52.8065ZM24.4358 45.7682C24.4708 45.6047 24.5301 45.4678 24.6052 45.3768C24.6803 45.2858 24.7675 45.2453 24.8545 45.261C25.0638 45.1976 25.2033 45.6573 25.3196 45.9743C25.3351 46.0536 25.5987 46.6401 25.6142 46.6718C25.684 46.862 25.7073 47.2266 25.6142 47.3851H25.4437C25.1568 47.4802 24.8235 47.0047 24.5831 46.7828C24.4998 46.6842 24.4381 46.5242 24.4107 46.3355C24.3833 46.1468 24.3923 45.9438 24.4358 45.7682ZM24.932 53.8051C24.8932 53.3771 24.808 51.2371 24.7847 50.7933C24.777 50.4923 24.777 50.1907 24.7847 49.8897C24.8622 49.6202 25.0173 49.5251 25.1723 49.5886C25.2653 49.6837 25.3351 50.0007 25.3739 50.1909C25.3816 51.1579 25.5134 51.9029 25.6142 52.8065C25.622 53.0918 25.5677 53.9319 25.5677 54.0112C25.5367 54.2331 25.529 54.566 25.4204 54.6928C25.2886 54.7404 25.1723 54.6928 25.0793 54.5026C25.0405 54.36 24.9475 54.0112 24.932 53.8051ZM28.1632 50.286C27.7988 50.9201 27.4809 51.7127 27.2328 52.4894C27.1088 52.9491 26.8917 53.6149 26.7909 54.0905C26.7289 54.2966 26.6514 54.3441 26.5428 54.2965L26.2017 53.5832C26.1862 53.4722 26.2017 53.1869 26.2017 53.0918C26.2715 52.3785 26.3025 50.8884 26.349 50.0799C26.349 50.0482 26.3491 50.0007 26.3413 49.9373L26.3103 49.5251C26.3025 49.4617 26.3025 49.4142 26.3025 49.3825V49.3191C26.3025 48.9703 26.4265 48.7484 26.5894 48.7643C26.7289 48.7643 26.8607 48.8435 26.9383 49.0813C26.9925 49.5093 26.9925 49.6678 26.9925 50.1909C26.9925 50.4445 26.9847 50.6982 26.9847 50.7774C27.0623 50.6506 27.4111 49.9373 27.4732 49.7788C27.6437 49.3508 27.7135 48.9862 27.9538 48.6057C28.0701 48.3045 28.2174 48.3838 28.388 48.3679C28.6361 48.2094 28.8764 49.0813 29.0005 49.4934C29.1633 50.2702 29.2408 51.0786 29.2408 51.9822L29.3881 53.282C29.3881 53.3613 29.4889 53.8368 29.4889 53.8844C29.4967 54.0746 29.4734 54.3599 29.3881 54.4868C29.3183 54.5185 29.2175 54.6453 29.14 54.6453C29.1012 54.6453 29.0625 54.6136 29.047 54.4868C28.9617 54.2173 28.8842 53.9161 28.7989 53.6942C28.7061 53.0358 28.6412 52.3622 28.6051 51.681C28.5431 51.4115 28.5353 50.9359 28.4578 50.6823C28.4035 50.5555 28.2872 50.3019 28.2407 50.2702C28.2174 50.2702 28.1864 50.2543 28.1632 50.286ZM29.8283 49.6678C29.8593 49.3508 29.9136 48.8277 29.9291 48.574C29.9833 46.8779 30.1151 45.0549 30.1229 43.3588C30.1539 43.1368 30.247 43.01 30.3167 42.8515C30.3596 42.7736 30.4144 42.7288 30.4718 42.7247C30.6113 42.7247 30.7509 42.9783 30.8129 43.2478C30.8051 44.3416 30.6966 45.3719 30.6656 46.4657C30.6035 47.5119 30.5571 49.002 30.6036 49.7312C30.6113 49.7312 30.6346 49.7154 30.6734 49.7154L30.9214 49.6202C30.9602 49.6044 30.9834 49.6044 30.9912 49.6044C31.2625 49.5568 31.5106 49.4934 31.7587 49.4934C32.1076 49.4934 32.4332 49.6044 32.7666 49.9214C33.1155 50.2702 33.4023 51.2688 33.3713 52.0139C33.4333 52.854 33.1077 53.4405 32.8208 53.9795C32.4231 54.5287 31.9517 54.8113 31.4719 54.788C31.092 54.8514 30.8362 54.6136 30.4873 54.2014C30.3022 53.9583 30.1466 53.632 30.0324 53.2475C29.9182 52.8629 29.8484 52.4302 29.8283 51.9822C29.8205 51.2108 29.8205 50.4392 29.8283 49.6678ZM30.6578 51.8553C30.5958 52.3943 30.8982 52.8857 31.0532 53.1869C31.2548 53.282 31.5959 53.3296 31.8362 53.282C32.1308 53.1552 32.4952 52.8857 32.5727 52.1724C32.6658 51.57 32.3324 50.9359 32.0844 50.7774C31.9908 50.7256 31.8944 50.699 31.7975 50.6982C31.4486 50.6982 31.0455 50.9835 30.8129 51.2688C30.6966 51.4591 30.6268 51.5542 30.6578 51.8553ZM33.8037 52.4894V50.7774C33.7262 50.5555 33.7262 50.0007 33.8037 49.7788C34.0596 49.3983 34.4239 49.002 34.6875 48.6691C34.9356 48.368 35.2302 48.2728 35.5016 48.2728C36.2536 48.2728 37.0134 48.9703 37.4863 50.1751C37.7034 50.7774 37.8274 51.6017 37.6801 52.2834C37.3467 53.4564 36.8505 54.1856 36.207 54.4868C35.8504 54.7721 35.5016 54.677 35.1294 54.677C34.2379 54.2965 34.1216 54.249 33.8037 52.4894ZM34.5402 52.4894C34.6022 52.7431 34.7961 53.2186 34.9356 53.282C35.0674 53.4247 35.2535 53.4722 35.4473 53.4722C36.0133 53.4722 36.9669 52.9174 37.0444 51.5859C37.1219 51.0311 36.8583 50.7299 36.7033 50.3811C36.4242 50.0641 36.052 49.6361 35.7031 49.6361C35.5908 49.6344 35.4797 49.683 35.3775 49.7788C35.325 49.8364 35.2756 49.9055 35.2302 49.9848C35.1372 50.1592 35.0519 50.3653 34.9356 50.4763C34.8349 50.6823 34.6178 51.0311 34.5945 51.2847C34.4937 51.681 34.5635 52.0773 34.5402 52.4894ZM38.0505 50.0324C38.0737 49.5727 38.0582 49.0179 38.1513 48.8435C38.2753 48.6216 38.4614 48.4948 38.6165 48.4313C38.7715 48.3838 38.88 48.7484 38.9808 48.9386C38.9731 49.3666 39.0971 50.0007 38.9808 50.3336C38.8645 50.6665 38.8103 51.3481 38.787 51.7444C38.7793 52.1458 38.7793 52.5477 38.787 52.9491C38.7948 52.9967 38.8335 53.0601 38.8568 53.0601C39.0429 52.8382 39.2134 52.2041 39.3762 51.8395L39.4227 51.6493C39.4615 51.4591 39.4538 51.1896 39.5235 51.0469C39.6476 50.7774 39.8957 50.6823 40.0662 50.6348C40.2368 50.6189 40.3221 51.0786 40.4073 51.3481C40.4228 51.4591 40.5003 52.2041 40.5003 52.3468C40.5081 52.3943 40.5779 52.5053 40.6011 52.5528H40.7485C41.2059 51.7603 41.5392 50.714 41.9269 49.7312C41.9966 49.4934 42.2292 48.8435 42.268 48.7325C42.3067 48.6057 42.5936 48.0668 42.6556 47.94C42.7719 47.7339 42.9192 47.8607 43.051 47.829C43.2138 48.0668 43.1596 48.4948 43.0975 48.8435C42.7099 49.8739 42.3533 50.8091 41.9269 51.8395C41.6578 52.6284 41.3514 53.3611 41.012 54.0271C40.8492 54.3441 40.5624 54.5502 40.3531 54.5502C40.1127 54.3758 39.9267 53.932 39.8181 53.4405L39.7639 53.3454C39.446 53.7259 39.2521 54.5185 38.8878 54.8355C38.7715 54.8355 38.5854 54.8989 38.4924 54.7404C38.3218 54.5185 38.2133 53.9795 38.1513 53.5515C38.0427 52.6797 38.1203 51.8712 38.097 50.9835V50.5397C38.097 50.4921 38.0505 50.0958 38.0505 50.0324ZM43.1854 51.7919C43.1931 50.1117 43.2629 48.7325 43.294 46.9888C43.2785 45.1976 43.3792 42.8039 43.3404 40.981C43.3869 40.6798 43.4722 40.5688 43.573 40.5688C43.7048 40.5688 43.8521 40.7908 43.9297 41.0761C43.9297 41.1554 43.9296 41.2822 43.9374 41.4565L43.9684 42.5979C43.9762 42.7722 43.9762 42.8991 43.9762 42.9783C43.9452 45.7682 43.8211 48.7801 43.7823 51.3956C43.8366 52.6321 43.8134 53.5039 44.077 54.3916C44.0847 54.5502 44.0847 54.6294 44.0227 54.788C43.9445 54.8762 43.8561 54.92 43.7668 54.9148C43.67 54.9215 43.574 54.8779 43.4878 54.788C43.1156 53.9637 43.2009 52.8223 43.1854 51.7919ZM44.8574 52.4894V50.7774C44.7799 50.5555 44.7799 50.0007 44.8574 49.7788C45.1133 49.3983 45.4776 49.002 45.7412 48.6691C45.9893 48.368 46.2839 48.2728 46.5552 48.2728C47.3072 48.2728 48.067 48.9703 48.5399 50.1751C48.757 50.7774 48.8811 51.6017 48.7338 52.2834C48.4004 53.4564 47.9042 54.1856 47.2608 54.4868C46.9041 54.7721 46.5553 54.677 46.1831 54.677C45.2916 54.2965 45.1753 54.249 44.8574 52.4894ZM45.5939 52.4894C45.6559 52.7431 45.8497 53.2186 45.9893 53.282C46.1211 53.4247 46.3072 53.4722 46.501 53.4722C47.0669 53.4722 48.0205 52.9174 48.098 51.5859C48.1756 51.0311 47.912 50.7299 47.7569 50.3811C47.4778 50.0641 47.1057 49.6361 46.7568 49.6361C46.6445 49.6344 46.5333 49.683 46.4312 49.7788C46.3786 49.8364 46.3292 49.9055 46.2839 49.9848C46.1909 50.1592 46.1056 50.3653 45.9893 50.4763C45.8885 50.6823 45.6714 51.0311 45.6482 51.2847C45.5474 51.681 45.6172 52.0773 45.5939 52.4894ZM49.205 50.3494C49.2903 49.3191 49.5849 48.7008 49.9415 48.0351C50.1275 47.8448 50.3911 47.7497 50.6625 47.7497C50.9881 47.7497 51.3215 47.8765 51.5541 48.1302C51.8022 48.4472 52.2751 49.0971 52.4921 49.541C52.4844 49.7312 52.5387 50.1909 52.4379 50.2385C52.2661 50.2729 52.0927 50.2184 51.9339 50.0799C51.6393 49.7471 51.4223 49.3825 51.1122 49.3349C50.8331 49.3508 50.5462 49.2398 50.2826 49.541C50.2748 49.541 50.2438 49.6202 50.2361 49.6361C50.0965 50.0165 49.9648 50.3494 49.8872 50.8091C49.9105 51.6651 49.8329 52.5053 49.9415 53.3454C50.0888 53.8844 49.926 54.3758 49.7942 54.8355C49.7751 54.8924 49.7497 54.9393 49.72 54.9724C49.6904 55.0054 49.6574 55.0237 49.6236 55.0257C49.5405 55.0143 49.4615 54.9475 49.3988 54.8355C49.2592 54.6611 49.1507 54.2331 49.1042 53.9478C49.1042 52.9333 49.1197 51.2688 49.205 50.3494ZM52.3655 45.7682C52.4005 45.6047 52.4598 45.4678 52.5349 45.3768C52.61 45.2858 52.6972 45.2453 52.7841 45.261C52.9935 45.1976 53.1331 45.6573 53.2493 45.9743C53.2649 46.0536 53.5284 46.6401 53.5439 46.6718C53.6137 46.862 53.637 47.2266 53.5439 47.3851H53.3734C53.0865 47.4802 52.7531 47.0047 52.5128 46.7828C52.4295 46.6842 52.3677 46.5242 52.3403 46.3355C52.313 46.1468 52.322 45.9438 52.3655 45.7682ZM52.8617 53.8051C52.8229 53.3771 52.7376 51.2371 52.7144 50.7933C52.7066 50.4923 52.7066 50.1907 52.7144 49.8897C52.7919 49.6202 52.947 49.5251 53.102 49.5886C53.1951 49.6837 53.2648 50.0007 53.3036 50.1909C53.3114 51.1579 53.4431 51.9029 53.5439 52.8065C53.5517 53.0918 53.4974 53.9319 53.4974 54.0112C53.4664 54.2331 53.4586 54.566 53.3501 54.6928C53.2183 54.7404 53.102 54.6928 53.009 54.5026C52.9702 54.36 52.8772 54.0112 52.8617 53.8051ZM55.1858 52.3309C55.1393 52.0773 55.1238 51.8554 55.0385 51.7444C55.0385 51.7286 55.0307 51.7285 55.023 51.7285H54.961C54.9067 52.3151 54.9454 53.1076 54.7981 53.6466C54.7206 54.0112 54.6198 54.4234 54.4492 54.6294C54.3019 54.677 54.1392 54.6294 54.0617 54.3441C53.9299 53.9161 53.9221 53.2979 54.0073 52.8382C54.2089 52.537 54.2477 52.3151 54.2555 51.7444C54.271 51.5066 54.2322 51.1896 54.2089 50.936V46.4182C54.1314 45.7524 54.1624 45.1659 54.1547 44.516C54.2089 44.3257 54.2632 44.2782 54.3795 44.294C54.5733 44.1989 54.6896 44.722 54.7439 45.0232C54.7439 45.0866 54.8214 46.0853 54.8447 46.4182C54.8679 46.6401 54.8912 47.3376 54.8912 47.4168V49.3349C54.9067 49.3983 54.9532 49.4617 54.9919 49.43C56.0231 48.6216 55.9455 48.6216 56.3332 48.3679C56.589 48.1302 56.8139 47.8448 57.0697 47.8448C57.155 47.8448 57.2403 47.8766 57.3333 47.9558C57.3953 48.0985 57.5271 48.6057 57.5116 48.7643C57.4108 49.0813 57.2015 49.0654 57.0154 49.1605C56.8293 49.3032 56.7286 49.3825 56.6666 49.4142C56.6821 49.4459 56.5503 49.6678 55.6277 50.6348V50.7299C55.7983 51.6493 56.0619 52.6479 56.5115 53.0442C56.5968 53.0759 56.682 52.9967 56.7596 52.9333C56.8759 52.9174 56.9922 52.9016 57.0542 53.1394C57.2248 53.5039 57.1472 54.138 57.1007 54.5502C56.9611 54.8038 56.8061 54.9623 56.6123 54.9306C55.9921 54.3758 55.5579 53.4881 55.1858 52.3309ZM58.5289 50.0799C58.8468 49.2398 59.2422 48.5106 59.7539 48.1777C59.9322 48.1302 60.0407 48.0509 60.2036 48.0668C60.8083 48.0985 61.3897 48.8435 61.4207 50.1909C61.4285 51.3322 60.8858 52.4102 60.3431 52.4894C60.2358 52.5648 60.1231 52.6023 60.0097 52.6004C59.6996 52.6004 59.3895 52.3309 59.1182 51.998C59.0574 51.8877 58.9926 51.787 58.9243 51.6968C58.9158 51.689 58.9065 51.685 58.8972 51.685C58.8878 51.685 58.8786 51.689 58.87 51.6968C58.7615 52.0297 58.6142 52.5053 58.622 52.9016C58.7383 54.2648 59.4515 55.4062 60.1337 55.3111C60.5059 55.4062 60.8237 55.1208 61.2036 54.9148C61.475 54.6928 61.599 54.677 61.9246 54.6294H61.9789C62.0487 54.5977 62.1185 54.7087 62.134 54.9148V55.5013C62.0471 55.7048 61.9414 55.8712 61.823 55.9909C61.7046 56.1106 61.5758 56.1813 61.444 56.1988C61.0253 56.4207 60.6067 56.7377 60.1803 56.706C59.7151 56.7536 59.2887 56.5158 58.87 55.9927C58.4514 55.5488 58.1723 54.788 57.9862 53.9003C57.8079 52.5053 58.1723 51.2213 58.5289 50.0799ZM59.1337 50.8408C59.1724 50.8408 59.374 50.8725 59.4127 50.8884C59.6531 51.142 59.8934 51.0945 60.1492 51.0945C60.3508 50.9677 60.5834 50.7299 60.6842 50.3811C60.7695 49.7471 60.3818 49.6678 60.1492 49.4776C59.7538 49.4934 59.4282 50.1433 59.1646 50.6823C59.1569 50.7299 59.1337 50.7933 59.1337 50.8408ZM62.7688 50.0799C63.0867 49.2398 63.4821 48.5106 63.9937 48.1777C64.1721 48.1302 64.2806 48.0509 64.4434 48.0668C65.0482 48.0985 65.6296 48.8435 65.6606 50.1909C65.6683 51.3322 65.1257 52.4102 64.583 52.4894C64.4757 52.5648 64.363 52.6023 64.2496 52.6004C63.9395 52.6004 63.6294 52.3309 63.358 51.998C63.2973 51.8877 63.2324 51.787 63.1642 51.6968C63.1557 51.689 63.1464 51.685 63.1371 51.685C63.1277 51.685 63.1185 51.689 63.1099 51.6968C63.0014 52.0297 62.8541 52.5053 62.8619 52.9016C62.9782 54.2648 63.6914 55.4062 64.3736 55.3111C64.7457 55.4062 65.0636 55.1208 65.4435 54.9148C65.7148 54.6928 65.8389 54.677 66.1645 54.6294H66.2188C66.2886 54.5977 66.3583 54.7087 66.3738 54.9148V55.5013C66.287 55.7048 66.1813 55.8712 66.0629 55.9909C65.9445 56.1106 65.8157 56.1813 65.6839 56.1988C65.2652 56.4207 64.8465 56.7377 64.4201 56.706C63.955 56.7536 63.5286 56.5158 63.1099 55.9927C62.6913 55.5488 62.4122 54.788 62.2261 53.9003C62.0478 52.5053 62.4122 51.2213 62.7688 50.0799ZM63.3736 50.8408C63.4123 50.8408 63.6139 50.8725 63.6526 50.8884C63.893 51.142 64.1333 51.0945 64.3891 51.0945C64.5907 50.9677 64.8233 50.7299 64.9241 50.3811C65.0094 49.7471 64.6217 49.6678 64.3891 49.4776C63.9937 49.4934 63.6681 50.1433 63.4045 50.6823C63.3968 50.7299 63.3736 50.7933 63.3736 50.8408ZM67.5127 51.6176L67.5282 50.3177C67.5282 50.0799 67.4971 49.0971 67.4894 48.9069C67.4739 48.7801 67.4584 48.5582 67.4041 48.4789C67.0785 48.5265 66.8691 48.574 66.6211 48.8277C66.4582 48.8435 66.3652 49.0654 66.1947 49.0179C66.0706 48.9228 65.9854 48.6374 65.8768 48.4472C65.8381 48.2253 65.838 47.7656 65.9078 47.5754L66.1636 47.1157C66.6133 47.0998 66.9467 46.9571 67.3653 46.7986L67.4196 46.6718L67.4351 44.1831C67.5669 43.8819 67.6909 43.8185 67.877 43.8977C68.0004 44.1066 68.0829 44.3991 68.1096 44.722C68.1639 44.9757 68.1018 46.117 68.2026 46.3231L68.3499 46.4182C68.7996 46.3389 69.0399 46.1011 69.4896 46.2121L69.8462 46.2438C70.071 46.3072 70.1408 46.6401 70.0943 47.0364C70.0245 47.1791 69.9703 47.3059 69.8927 47.3376C69.4896 47.401 69.1097 47.6229 68.6988 47.7973L68.6833 47.8131C68.5283 47.829 68.3577 47.9241 68.2259 48.0192L68.1871 48.1302C68.1871 48.8277 68.1328 49.4142 68.2181 50.1275C68.2181 50.4604 68.1871 52.7431 68.3577 53.5832C68.4429 53.7417 68.5127 53.8685 68.6368 53.8844C68.6969 53.8822 68.7567 53.8663 68.8151 53.8368C69.164 53.6625 69.226 53.71 69.4741 52.854C69.4816 52.5954 69.505 52.3397 69.5438 52.0931C69.5981 51.792 69.6602 51.6017 69.854 51.6176C70.0866 51.5383 70.102 52.1248 70.1563 52.3626C70.1331 52.6955 70.133 53.0442 70.04 53.3296C69.7842 54.3917 69.7377 54.6611 68.8694 55.2477C68.7453 55.3111 68.5903 55.5013 68.4507 55.5013C68.2492 55.4854 68.0553 55.3745 67.9235 55.0257C67.7995 54.4868 67.5437 53.932 67.5979 53.1552C67.5902 52.6638 67.5436 52.1566 67.5204 51.6493C67.5126 51.6334 67.5127 51.6334 67.5127 51.6176Z" fill="#46464F"/>
</svg>
