<svg width="115" height="25" viewBox="0 0 115 25" fill="none" xmlns="http://www.w3.org/2000/svg">
<rect width="25" height="25" rx="6" fill="#1A1A19"/>
<path d="M14.2942 11.928L19.3572 6H18.1572L13.7622 11.147L10.2502 6H6.2002L11.5102 13.784L6.2002 20H7.4002L12.0422 14.564L15.7512 20H19.8012L14.2942 11.928ZM12.6512 13.852L12.1132 13.077L7.8322 6.91H9.6752L13.1292 11.887L13.6672 12.662L18.1582 19.132H16.3152L12.6512 13.852Z" fill="white"/>
<rect x="45" width="25" height="25" rx="6" fill="#1A1A19"/>
<path d="M58.0002 6.33325C57.1247 6.33325 56.2578 6.50569 55.4489 6.84072C54.6401 7.17575 53.9052 7.66682 53.2861 8.28587C52.0359 9.53612 51.3335 11.2318 51.3335 12.9999C51.3335 15.9466 53.2468 18.4466 55.8935 19.3333C56.2268 19.3866 56.3335 19.1799 56.3335 18.9999V17.8733C54.4868 18.2733 54.0935 16.9799 54.0935 16.9799C53.7868 16.2066 53.3535 15.9999 53.3535 15.9999C52.7468 15.5866 53.4002 15.5999 53.4002 15.5999C54.0668 15.6466 54.4202 16.2866 54.4202 16.2866C55.0002 17.2999 55.9802 16.9999 56.3602 16.8399C56.4202 16.4066 56.5935 16.1133 56.7802 15.9466C55.3002 15.7799 53.7468 15.2066 53.7468 12.6666C53.7468 11.9266 54.0002 11.3333 54.4335 10.8599C54.3668 10.6933 54.1335 9.99992 54.5002 9.09992C54.5002 9.09992 55.0602 8.91992 56.3335 9.77992C56.8602 9.63325 57.4335 9.55992 58.0002 9.55992C58.5668 9.55992 59.1402 9.63325 59.6668 9.77992C60.9402 8.91992 61.5002 9.09992 61.5002 9.09992C61.8668 9.99992 61.6335 10.6933 61.5668 10.8599C62.0002 11.3333 62.2535 11.9266 62.2535 12.6666C62.2535 15.2133 60.6935 15.7733 59.2068 15.9399C59.4468 16.1466 59.6668 16.5533 59.6668 17.1733V18.9999C59.6668 19.1799 59.7735 19.3933 60.1135 19.3333C62.7602 18.4399 64.6668 15.9466 64.6668 12.9999C64.6668 12.1244 64.4944 11.2575 64.1594 10.4487C63.8243 9.63986 63.3333 8.90493 62.7142 8.28587C62.0951 7.66682 61.3602 7.17575 60.5514 6.84072C59.7425 6.50569 58.8756 6.33325 58.0002 6.33325Z" fill="white"/>
<rect x="90" width="25" height="25" rx="6" fill="#1A1A19"/>
<path d="M107.667 7C108.02 7 108.359 7.14048 108.609 7.39052C108.86 7.64057 109 7.97971 109 8.33333V17.6667C109 18.0203 108.86 18.3594 108.609 18.6095C108.359 18.8595 108.02 19 107.667 19H98.3333C97.9797 19 97.6406 18.8595 97.3905 18.6095C97.1405 18.3594 97 18.0203 97 17.6667V8.33333C97 7.97971 97.1405 7.64057 97.3905 7.39052C97.6406 7.14048 97.9797 7 98.3333 7H107.667ZM107.333 17.3333V13.8C107.333 13.2236 107.104 12.6708 106.697 12.2632C106.289 11.8556 105.736 11.6267 105.16 11.6267C104.593 11.6267 103.933 11.9733 103.613 12.4933V11.7533H101.753V17.3333H103.613V14.0467C103.613 13.5333 104.027 13.1133 104.54 13.1133C104.788 13.1133 105.025 13.2117 105.2 13.3867C105.375 13.5617 105.473 13.7991 105.473 14.0467V17.3333H107.333ZM99.5867 10.7067C99.8837 10.7067 100.169 10.5887 100.379 10.3786C100.589 10.1686 100.707 9.88371 100.707 9.58667C100.707 8.96667 100.207 8.46 99.5867 8.46C99.2879 8.46 99.0013 8.5787 98.79 8.78999C98.5787 9.00128 98.46 9.28786 98.46 9.58667C98.46 10.2067 98.9667 10.7067 99.5867 10.7067ZM100.513 17.3333V11.7533H98.6667V17.3333H100.513Z" fill="white"/>
</svg>
