<svg width="75" height="50" viewBox="0 0 75 50" fill="none" xmlns="http://www.w3.org/2000/svg">
<path d="M7.444 12.7903C7.23318 12.707 7.06855 12.5703 6.95011 12.3802C6.83543 12.1987 6.75281 11.9905 6.70227 11.7555C6.64927 11.5267 6.61178 11.304 6.58979 11.0875C6.57952 11.0046 6.59529 10.9284 6.63707 10.8588C6.67886 10.7893 6.74128 10.7674 6.82434 10.793C6.89875 10.8224 6.95479 10.8983 6.99246 11.0207C7.03634 11.1456 7.09212 11.3038 7.1598 11.4954C7.23369 11.6894 7.35473 11.9092 7.52293 12.1549C7.64075 12.2014 7.75579 12.1823 7.86808 12.0976C7.98657 12.0154 8.08515 11.911 8.16383 11.7844C8.32983 11.5274 8.46687 11.2984 8.57494 11.0974C8.68675 10.905 8.77629 10.7146 8.84356 10.5261C8.91083 10.3376 8.96504 10.1369 9.0062 9.92374C9.06549 9.61027 9.13841 9.2986 9.22496 8.98873C9.3177 8.6813 9.40302 8.37453 9.48092 8.06841C9.49186 8.02256 9.4966 7.97425 9.49514 7.9235C9.49988 7.8752 9.50267 7.80462 9.5035 7.71177C9.32692 7.81406 9.16575 7.90451 9.02002 7.98314C8.87673 8.05557 8.73409 8.13542 8.5921 8.2227C8.40197 8.34114 8.22458 8.4001 8.05992 8.39958C7.90147 8.40151 7.74343 8.35701 7.58581 8.26609C7.35983 8.11233 7.23389 7.9049 7.20799 7.6438C7.18209 7.3827 7.21812 7.12813 7.31607 6.88011C7.3773 6.7251 7.4559 6.58053 7.55187 6.44641C7.6503 6.30609 7.7568 6.17254 7.87138 6.04576C8.0537 5.83823 8.25722 5.66773 8.48195 5.53429C8.70913 5.39464 8.95189 5.27907 9.21022 5.18757C9.38941 5.11499 9.56941 5.08573 9.75022 5.09979C9.93723 5.11631 10.109 5.18055 10.2654 5.29253C10.4828 5.45004 10.6544 5.63251 10.7804 5.83994C10.9063 6.04737 10.9444 6.27747 10.8948 6.53024C10.8793 6.66029 10.8438 6.7502 10.7883 6.79996C10.739 6.85217 10.6691 6.87476 10.5787 6.86773C10.4883 6.86069 10.4321 6.88508 10.4101 6.94089C10.388 6.99669 10.3654 7.06302 10.3422 7.13988C10.3033 7.31089 10.2555 7.55003 10.1986 7.8573C10.1418 8.16456 10.0727 8.50283 9.99138 8.87211C9.91869 9.23763 9.83116 9.60445 9.72878 9.97258C9.63014 10.3494 9.51773 10.6884 9.39153 10.9898C9.30207 11.1982 9.20143 11.3986 9.08961 11.5909C8.9778 11.7833 8.86598 11.9757 8.75416 12.1681C8.68169 12.2971 8.56646 12.4165 8.40847 12.5261C8.25424 12.6444 8.0881 12.7293 7.91006 12.7808C7.73577 12.841 7.58041 12.8442 7.444 12.7903ZM7.93299 7.82262C8.28189 7.77405 8.59587 7.66869 8.87495 7.50653C9.15402 7.34438 9.39011 7.11865 9.58321 6.82936C9.68409 6.68284 9.77256 6.53142 9.84863 6.3751C9.92716 6.21258 10.0076 6.05439 10.0898 5.90052C10.0373 5.77943 9.95841 5.71602 9.85316 5.71029C9.75656 5.70081 9.65448 5.71425 9.54694 5.75062C9.191 5.88959 8.86746 6.0736 8.57629 6.30266C8.29378 6.52797 8.07661 6.83284 7.92477 7.21728C7.89049 7.30409 7.86861 7.39579 7.85912 7.4924C7.85584 7.59145 7.88046 7.70152 7.93299 7.82262ZM13.0374 11.1395C12.8079 11.0489 12.6101 10.96 12.4438 10.8729C12.2838 10.7881 12.119 10.6335 11.9497 10.4089C11.7791 10.1695 11.6504 9.89645 11.5636 9.58981C11.4855 9.27942 11.4774 8.98234 11.5393 8.69857C11.6384 8.4295 11.7241 8.21248 11.7964 8.04751C11.8749 7.88499 11.9604 7.7503 12.0528 7.64343C12.1538 7.53281 12.2734 7.42953 12.4117 7.3336C12.7805 7.03488 13.1782 6.8264 13.6048 6.70817C14.0401 6.58618 14.4468 6.59988 14.825 6.74927C14.9428 6.7958 15.0354 6.86101 15.1026 6.94489C15.3521 7.0936 15.4841 7.28553 15.4988 7.52068C15.5134 7.75584 15.4314 7.96356 15.2527 8.14384C15.0418 8.33294 14.7979 8.46956 14.5209 8.55371C14.2502 8.64032 13.9323 8.70113 13.5673 8.73614C13.2022 8.77116 12.7629 8.8127 12.2493 8.86074C12.1483 9.24372 12.2167 9.59687 12.4545 9.92018C12.6924 10.2435 13.0741 10.4839 13.5997 10.6413C13.8365 10.7133 14.0564 10.7643 14.2596 10.7944C14.4628 10.8244 14.6152 10.8739 14.7171 10.9428C14.8213 11.0055 14.8379 11.1267 14.7669 11.3065C14.7351 11.3871 14.6493 11.4321 14.5094 11.4414C14.3695 11.4506 14.2055 11.4396 14.0172 11.4082C13.835 11.3793 13.6547 11.3368 13.4762 11.2806C13.2953 11.2306 13.149 11.1836 13.0374 11.1395ZM12.4786 8.19866C12.9355 8.22143 13.3612 8.19605 13.7558 8.12252C14.1529 8.0428 14.4906 7.85005 14.7691 7.5443C14.7095 7.51361 14.6518 7.48724 14.596 7.4652C14.5489 7.43941 14.5005 7.41672 14.4509 7.39713C13.8742 7.16938 13.2168 7.43656 12.4786 8.19866ZM16.7548 12.6614C16.5563 12.5831 16.4108 12.4253 16.3182 12.188C16.2544 12.0409 16.2176 11.8436 16.2079 11.5961C16.2043 11.351 16.2125 11.1033 16.2325 10.8532C16.2586 10.6055 16.2782 10.4017 16.2911 10.242C16.3052 10.0612 16.3404 9.89947 16.3967 9.75685C16.4248 9.6676 16.4343 9.58894 16.4254 9.52089C16.4188 9.44664 16.3795 9.37377 16.3074 9.30228C16.2639 9.24924 16.2209 9.18567 16.1785 9.11158C16.1447 9.03373 16.1357 8.96568 16.1516 8.90743C16.171 8.82192 16.2203 8.76971 16.2994 8.7508C16.3872 8.72813 16.4763 8.72032 16.5667 8.72735C16.5902 8.72229 16.6168 8.71846 16.6465 8.71586C16.6762 8.71325 16.7152 8.71432 16.7635 8.71906C16.8605 8.52799 16.9532 8.33879 17.0415 8.15147C17.1298 7.96415 17.2231 7.78238 17.3214 7.60616C17.4443 7.40383 17.5722 7.20705 17.705 7.01582C17.8403 6.81839 17.9775 6.62529 18.1166 6.43651C18.2175 6.28999 18.333 6.24244 18.4632 6.29387C18.55 6.32815 18.6091 6.38732 18.6404 6.47136C18.6804 6.55166 18.6796 6.64451 18.6379 6.74992C18.633 6.76232 18.5961 6.81943 18.5273 6.92124C18.4608 7.01686 18.3821 7.12553 18.291 7.24724C18.2086 7.36521 18.1366 7.4658 18.075 7.54902C18.0197 7.63468 17.9933 7.67441 17.9957 7.66821C17.9023 7.83203 17.8115 8.0076 17.7232 8.19492C17.6373 8.37604 17.5391 8.57021 17.4286 8.77744C17.5487 8.78187 17.6602 8.79005 17.763 8.80198C17.872 8.81636 17.9624 8.82339 18.0342 8.82308C18.1802 8.81625 18.3021 8.80705 18.3999 8.79548C18.5038 8.78636 18.6078 8.77724 18.7117 8.76812C18.8157 8.75901 18.9407 8.75103 19.0867 8.7442C19.1758 8.73639 19.2694 8.7626 19.3675 8.82283C19.4717 8.88551 19.5043 8.96646 19.4651 9.06567C19.4357 9.14007 19.3809 9.19726 19.3006 9.23723C19.2227 9.27099 19.1486 9.29546 19.0781 9.31062C18.8677 9.33506 18.6765 9.35632 18.5045 9.3744C18.3412 9.38873 18.1766 9.40616 18.0108 9.42669C17.8537 9.44347 17.6668 9.46286 17.4503 9.48485C17.3723 9.48271 17.3067 9.48548 17.2535 9.49314C17.2065 9.50325 17.164 9.56533 17.1261 9.67939C17.0613 9.86166 16.9992 10.0916 16.9397 10.3691C16.8889 10.643 16.8549 10.9198 16.8375 11.1997C16.8226 11.4733 16.8354 11.7041 16.8758 11.8921C16.9024 12.0245 16.9498 12.1041 17.018 12.1311C17.1048 12.1653 17.2217 12.1506 17.3688 12.0868C17.522 12.0255 17.6808 11.9592 17.8451 11.8879C17.9279 11.8417 17.9953 11.8254 18.0473 11.8387C18.0994 11.8521 18.1453 11.881 18.1851 11.9254C18.2226 12.0119 18.2279 12.0713 18.2008 12.1036C18.1737 12.1359 18.141 12.1732 18.1028 12.2155C17.9698 12.3708 17.8205 12.4946 17.6551 12.587C17.4958 12.6817 17.3066 12.7253 17.0874 12.7176C17.0242 12.7141 16.9654 12.7088 16.9109 12.7016C16.8564 12.6944 16.8044 12.681 16.7548 12.6614ZM21.1555 17.3777C21.0563 17.3385 21.0039 17.2533 20.9984 17.1221C20.9929 16.9909 21.0017 16.8869 21.0249 16.8101C21.1844 16.2065 21.3452 15.5998 21.5072 14.99C21.6667 14.3864 21.8275 13.7797 21.9895 13.1699C22.0613 12.8972 22.1332 12.6246 22.2051 12.3519C22.2856 12.0755 22.363 11.7978 22.4373 11.519C22.4763 11.3838 22.506 11.2451 22.5264 11.1026C22.553 10.9626 22.5766 10.8214 22.597 10.6789C22.6285 10.5265 22.6943 10.4235 22.7943 10.3698C22.9006 10.3186 23.0164 10.3249 23.1417 10.3887C23.1888 10.4145 23.2199 10.4447 23.2349 10.4793C23.2561 10.5163 23.2919 10.6165 23.3421 10.7796C23.7468 10.7531 24.1156 10.8809 24.4487 11.1629C24.64 11.3317 24.7839 11.5211 24.8801 11.7311C24.9825 11.9436 25.0288 12.1805 25.0188 12.4417C25.0179 12.5346 25.0097 12.6281 24.994 12.7223C24.9869 12.8127 24.9694 12.9025 24.9413 12.9917C24.8548 13.3016 24.7004 13.5381 24.4783 13.7013C24.2562 13.8644 23.9955 13.9801 23.6962 14.0482C23.5206 14.0936 23.3375 14.1216 23.1469 14.1323C22.9625 14.1455 22.7779 14.1228 22.5932 14.0642C22.509 14.0596 22.4552 14.0778 22.4319 14.1187C22.4172 14.1559 22.3927 14.2179 22.3584 14.3048C22.2213 14.652 22.128 14.9699 22.0785 15.2586C22.0327 15.5559 21.9934 15.7554 21.9604 15.8571C21.908 16.0442 21.8634 16.1843 21.8266 16.2773C21.7961 16.3728 21.7711 16.4453 21.7515 16.4949C21.7294 16.5507 21.7074 16.6065 21.6853 16.6623C21.6695 16.7206 21.6482 16.8018 21.6214 16.9059C21.5812 17.062 21.5205 17.1886 21.4392 17.2855C21.3555 17.3886 21.2609 17.4194 21.1555 17.3777ZM22.7803 13.536C22.8919 13.5801 23.0213 13.5882 23.1685 13.5603C23.3244 13.5287 23.4783 13.4748 23.6302 13.3986C23.7846 13.3162 23.9228 13.2203 24.0449 13.1108C24.167 13.0013 24.2525 12.8846 24.3015 12.7606C24.3652 12.5993 24.3787 12.4291 24.342 12.2497C24.3139 12.0666 24.247 11.9004 24.1411 11.7511C24.0414 11.6042 23.911 11.4989 23.7498 11.4352C23.4249 11.3141 23.2061 11.3961 23.0935 11.6814C23.0837 11.7062 23.0739 11.731 23.0641 11.7558C23.0567 11.7744 23.05 11.8004 23.044 11.8338C22.9893 12.0631 22.9315 12.2912 22.8706 12.518C22.8097 12.7448 22.7457 12.9704 22.6785 13.1947C22.6286 13.3757 22.6625 13.4895 22.7803 13.536ZM25.2801 15.878C25.1251 15.8168 25.0201 15.7287 24.9651 15.6138C24.9188 15.4952 24.9133 15.364 24.9485 15.2202C24.9766 15.1309 25.0035 15.0448 25.0291 14.9617C25.0609 14.8811 25.0928 14.8005 25.1246 14.7199L25.2642 14.3665C25.296 14.2859 25.3218 14.2208 25.3413 14.1712C25.3671 14.124 25.3966 14.0675 25.4297 14.0018C25.4653 13.9298 25.5113 13.8225 25.5676 13.6799C25.6239 13.5373 25.7016 13.3315 25.8008 13.0624C25.8375 12.9694 25.8742 12.8764 25.911 12.7834C25.9477 12.6904 25.9863 12.6017 26.0268 12.5173C26.0513 12.4553 26.0739 12.389 26.0946 12.3183C26.1154 12.2477 26.1467 12.1955 26.1886 12.1619C26.2392 12.1246 26.3172 12.1267 26.4226 12.1683C26.5529 12.2198 26.6344 12.3129 26.6671 12.4477C26.7061 12.5849 26.6913 12.7403 26.6227 12.914C26.6129 12.9388 26.586 13.007 26.5419 13.1186C26.5003 13.224 26.4574 13.3325 26.4134 13.4441C26.3779 13.552 26.3646 13.622 26.3734 13.6541C26.3733 13.6182 26.3996 13.5605 26.4525 13.4811C26.5116 13.4041 26.5726 13.3314 26.6354 13.263C26.6982 13.1947 26.7352 13.1555 26.7463 13.1455C27.1224 12.7923 27.528 12.5547 27.9632 12.4327C28.4071 12.307 28.8749 12.266 29.3666 12.3096C29.5325 12.325 29.6386 12.374 29.6847 12.4568C29.7309 12.5395 29.7295 12.6429 29.6805 12.7669C29.6413 12.8661 29.5351 12.9173 29.3618 12.9206C29.1167 12.9241 28.8729 12.9425 28.6304 12.9758C28.3879 13.009 28.1498 13.0583 27.9161 13.1237C27.7764 13.1689 27.6393 13.2438 27.5048 13.3484C27.3766 13.4554 27.2588 13.563 27.1516 13.6712C26.894 13.9422 26.6476 14.2212 26.4124 14.5082C26.1772 14.7952 25.9743 15.1093 25.8037 15.4504C25.7523 15.5807 25.6711 15.6955 25.5601 15.795C25.4578 15.8908 25.3644 15.9185 25.2801 15.878ZM30.7308 18.1275C30.5014 18.0369 30.3036 17.948 30.1373 17.8608C29.9772 17.7761 29.8125 17.6215 29.6432 17.3969C29.4725 17.1575 29.3438 16.8844 29.2571 16.5778C29.179 16.2674 29.1709 15.9703 29.2328 15.6865C29.3319 15.4175 29.4176 15.2005 29.4899 15.0355C29.5684 14.873 29.6539 14.7383 29.7462 14.6314C29.8473 14.5208 29.9669 14.4175 30.1051 14.3216C30.474 14.0229 30.8717 13.8144 31.2983 13.6961C31.7335 13.5742 32.1403 13.5879 32.5185 13.7372C32.6363 13.7838 32.7288 13.849 32.7961 13.9329C33.0455 14.0816 33.1776 14.2735 33.1923 14.5087C33.2069 14.7438 33.1249 14.9515 32.9461 15.1318C32.7353 15.3209 32.4914 15.4575 32.2144 15.5417C31.9437 15.6283 31.6258 15.6891 31.2607 15.7241C30.8957 15.7591 30.4564 15.8007 29.9428 15.8487C29.8417 16.2317 29.9101 16.5848 30.148 16.9082C30.3859 17.2315 30.7676 17.4718 31.2932 17.6292C31.53 17.7012 31.7499 17.7523 31.9531 17.7823C32.1562 17.8124 32.3087 17.8619 32.4105 17.9308C32.5148 17.9934 32.5314 18.1147 32.4604 18.2945C32.4286 18.3751 32.3427 18.4201 32.2029 18.4293C32.063 18.4386 31.899 18.4276 31.7106 18.3962C31.5285 18.3673 31.3482 18.3247 31.1697 18.2686C30.9887 18.2186 30.8425 18.1716 30.7308 18.1275ZM30.1721 15.1866C30.629 15.2094 31.0547 15.184 31.4493 15.1105C31.8464 15.0308 32.1841 14.838 32.4626 14.5323C32.403 14.5016 32.3453 14.4752 32.2895 14.4532C32.2424 14.4274 32.194 14.4047 32.1444 14.3851C31.5677 14.1574 30.9103 14.4245 30.1721 15.1866ZM35.2181 19.6202C35.0321 19.5467 34.9447 19.3868 34.956 19.1404C34.9567 19.0116 34.9722 18.8816 35.0026 18.7502C35.0417 18.6151 35.0875 18.4899 35.1403 18.3745C35.258 18.1128 35.3862 17.8516 35.5249 17.591C35.6661 17.3242 35.8147 17.0389 35.9706 16.7349L34.6975 16.9094C34.6232 16.9159 34.541 16.9336 34.4507 16.9625C34.3629 16.9852 34.2725 16.9781 34.1795 16.9414C34.0865 16.9047 34.0323 16.8331 34.017 16.7267C34.0104 16.6165 34.0193 16.5305 34.0438 16.4685C34.0878 16.3568 34.1853 16.2914 34.3363 16.2722C34.5664 16.2341 34.7984 16.2002 35.0322 16.1707C35.2661 16.1412 35.4999 16.1118 35.7338 16.0823C35.8761 16.0668 36.0202 16.0556 36.1663 16.0488C36.3186 16.0444 36.4412 16.0606 36.5342 16.0973C36.7884 16.1977 36.8481 16.4005 36.7133 16.7056C36.6189 16.9264 36.514 17.1466 36.3986 17.3662C36.2918 17.5821 36.1882 17.7992 36.0876 18.0175C36.0447 18.1081 35.9999 18.2123 35.9534 18.3301C35.9131 18.4504 35.8758 18.5539 35.8415 18.6407L35.9086 18.6887C36.0492 18.5866 36.1893 18.477 36.3287 18.36C36.4742 18.2455 36.6143 18.1359 36.7488 18.0314C36.8808 17.933 37.0129 17.8526 37.1451 17.7901C37.2835 17.7301 37.4357 17.7077 37.6016 17.7231C37.7403 17.7349 37.8476 17.7808 37.9235 17.861C37.9993 17.9411 38.0271 18.0524 38.0066 18.1949C37.9923 18.3039 37.9686 18.4092 37.9356 18.5109C37.9051 18.6063 37.8783 18.7104 37.8553 18.8232C37.8298 18.9421 37.8068 19.0728 37.7864 19.2153C37.7684 19.3516 37.7412 19.5021 37.7048 19.6669C37.8372 19.6403 37.9559 19.6119 38.061 19.5818C38.1747 19.5479 38.2705 19.514 38.3484 19.4802C38.5189 19.4114 38.6801 19.3389 38.8321 19.2627C38.984 19.1865 39.1422 19.1128 39.3065 19.0415C39.4325 18.9766 39.5604 18.916 39.6901 18.8597C39.8198 18.8035 39.9502 18.7546 40.0813 18.7132C40.2371 18.6816 40.3647 18.6853 40.4639 18.7245C40.6313 18.7906 40.7304 18.948 40.7612 19.1967C40.7728 19.2945 40.7757 19.396 40.7699 19.5012C40.7729 19.6027 40.7777 19.7086 40.7843 19.8187C40.7828 20.0403 40.8048 20.2569 40.8503 20.4684C40.9044 20.6761 41.008 20.8676 41.1611 21.0427C41.2643 21.1623 41.3001 21.2804 41.2685 21.3969C41.2454 21.5097 41.1832 21.5854 41.0819 21.6243C40.9892 21.6593 40.8782 21.6227 40.749 21.5143C40.5364 21.3085 40.3664 21.0765 40.239 20.8183C40.1203 20.5564 40.0565 20.2731 40.0478 19.9686L40.0415 19.3856C39.8982 19.458 39.7703 19.5186 39.6579 19.5674C39.5455 19.6162 39.4411 19.6717 39.3448 19.734C39.2288 19.81 39.0861 19.8899 38.9169 19.9736C38.7477 20.0573 38.5685 20.1298 38.3793 20.1913C38.1964 20.2553 38.022 20.2975 37.8562 20.318C37.6966 20.341 37.5641 20.3317 37.4587 20.2901C37.2913 20.2239 37.178 20.0932 37.119 19.8979C37.0686 19.6988 37.0528 19.4847 37.0716 19.2556C37.0929 19.0202 37.1304 18.8164 37.1841 18.6441C37.0651 18.6186 36.968 18.6376 36.8928 18.7011C36.82 18.7584 36.7515 18.8138 36.6874 18.8673C36.5183 18.9869 36.3492 19.1064 36.1802 19.226C36.0111 19.3456 35.8327 19.4615 35.645 19.5738C35.5709 19.6162 35.4937 19.6394 35.4132 19.6435C35.3389 19.65 35.2739 19.6422 35.2181 19.6202ZM44.5086 18.1501C44.428 18.1183 44.3602 18.0449 44.3053 17.9301C44.2503 17.8152 44.2114 17.6959 44.1886 17.5722C44.1658 17.4485 44.1654 17.3587 44.1874 17.3029C44.2217 17.2161 44.2815 17.1645 44.3669 17.148C44.4522 17.1315 44.5371 17.1435 44.6214 17.184C44.7058 17.2245 44.7599 17.2961 44.7839 17.3987C44.8152 17.4828 44.8348 17.5693 44.8426 17.6584C44.8566 17.75 44.8613 17.8379 44.8568 17.9221C44.8473 18.0187 44.8117 18.0906 44.75 18.1379C44.6945 18.1877 44.6141 18.1918 44.5086 18.1501ZM42.5623 22.7788C42.374 22.7474 42.2752 22.6618 42.2659 22.522C42.2653 22.3784 42.295 22.2396 42.3551 22.1056C42.4815 21.8401 42.6128 21.5802 42.7491 21.3258C42.8878 21.0652 43.013 20.8029 43.1245 20.5387C43.2226 20.3266 43.3052 20.1083 43.3723 19.8839C43.4419 19.6534 43.5121 19.4302 43.5829 19.2145C43.638 19.0571 43.6988 18.9485 43.7654 18.8887C43.832 18.829 43.9216 18.8107 44.0344 18.8337C44.1285 18.8494 44.205 18.919 44.2637 19.0426C44.3286 19.1685 44.3428 19.296 44.3062 19.4249C44.2977 19.4646 44.2647 19.5483 44.207 19.676C44.1494 19.8038 44.079 19.9731 43.9957 20.1839C43.9067 20.5 43.8243 20.7541 43.7483 20.9463C43.6724 21.1386 43.5915 21.3073 43.5054 21.4525C43.4194 21.5977 43.3198 21.7591 43.2067 21.9366C43.1022 22.1104 42.9726 22.3387 42.8179 22.6217C42.7945 22.6626 42.7545 22.7006 42.6977 22.7355C42.6409 22.7704 42.5958 22.7848 42.5623 22.7788ZM48.1069 24.8396C47.8103 24.6651 47.6371 24.4139 47.5874 24.0861C47.5595 23.9389 47.5434 23.7891 47.539 23.6369C47.5433 23.4809 47.5494 23.3292 47.5574 23.1819L47.5714 22.9831C47.5393 22.9919 47.5078 23.0081 47.4769 23.0318C47.4461 23.0554 47.4165 23.076 47.3881 23.0935C47.1498 23.2431 46.9103 23.3958 46.6696 23.5515C46.4313 23.7011 46.158 23.776 45.8498 23.7761C45.5923 23.7748 45.3829 23.7422 45.2217 23.6786C44.7876 23.5071 44.5865 23.0908 44.6183 22.4296C44.6312 22.2699 44.64 22.1479 44.6446 22.0637C44.6578 21.9757 44.6833 21.8747 44.7212 21.7606C44.7653 21.649 44.8339 21.4754 44.9269 21.2398C45.0151 21.0166 45.1144 20.8014 45.2249 20.5941C45.3441 20.3832 45.5006 20.2048 45.6943 20.0591C45.7498 20.0094 45.8077 19.9534 45.8681 19.8912C45.9347 19.8315 46.0083 19.8176 46.0889 19.8494C46.1571 19.8764 46.2217 19.9306 46.2827 20.012C46.3499 20.0959 46.3701 20.1719 46.3432 20.2401C46.3309 20.2711 46.31 20.3059 46.2805 20.3444C46.2509 20.3829 46.2134 20.4326 46.1678 20.4935C45.8969 20.8165 45.6916 21.1548 45.552 21.5082C45.4174 21.8492 45.3422 22.2209 45.3266 22.6234C45.3193 22.9143 45.3931 23.0904 45.5481 23.1516C45.6535 23.1933 45.7884 23.1784 45.9527 23.1071C46.4297 22.9157 46.8713 22.6779 47.2773 22.3939C47.6858 22.1036 48.0302 21.7307 48.3105 21.2752C48.4445 21.0629 48.5735 20.9812 48.6975 21.0302C48.7843 21.0645 48.862 21.131 48.9305 21.2298C49.0015 21.3223 49.0198 21.412 48.9855 21.4988C48.9599 21.5818 48.925 21.6612 48.8807 21.7369C48.8365 21.8126 48.7861 21.8859 48.7294 21.9567C48.5866 22.1368 48.4748 22.3292 48.394 22.5338C48.3034 22.7633 48.2438 23.0049 48.2152 23.2588C48.1952 23.509 48.1845 23.7628 48.1832 24.0203C48.186 24.0859 48.2116 24.157 48.2603 24.2335C48.3113 24.3039 48.3642 24.3606 48.4188 24.4037C48.4835 24.4579 48.5165 24.5104 48.518 24.5611C48.5281 24.6081 48.5221 24.6595 48.5001 24.7153C48.4511 24.8393 48.3907 24.9015 48.3189 24.9018C48.2495 24.8959 48.1789 24.8752 48.1069 24.8396ZM57.928 29.471C57.8721 29.4489 57.8113 29.4034 57.7454 29.3344C57.6795 29.2653 57.6482 29.1992 57.6517 29.1361C57.6578 28.8303 57.6678 28.587 57.6819 28.4062C57.7022 28.2278 57.7219 28.0779 57.7412 27.9565C57.7667 27.8375 57.7953 27.7198 57.827 27.6033C57.8586 27.4868 57.8896 27.3449 57.9198 27.1777C57.9562 27.0128 57.9936 26.7911 58.032 26.5124C58.0489 26.3972 58.0688 26.2832 58.0918 26.1704C58.1173 26.0515 58.0964 25.95 58.0292 25.8662C57.9396 25.7663 57.8368 25.7364 57.7206 25.7765C57.6044 25.8166 57.4882 25.8747 57.3722 25.9507C57.2191 26.048 57.0698 26.1538 56.9242 26.2684C56.7848 26.3853 56.6504 26.5079 56.521 26.636C56.4138 26.7441 56.3134 26.8622 56.2199 26.9901C56.1325 27.1205 56.034 27.2428 55.9243 27.3572C55.875 27.4094 55.8072 27.4543 55.7207 27.4918C55.6366 27.5231 55.5544 27.5408 55.4739 27.5449C55.3649 27.5305 55.3003 27.4763 55.2801 27.3823C55.2661 27.2908 55.2582 27.2017 55.2566 27.115C55.2573 26.9862 55.2611 26.8587 55.268 26.7324C55.2748 26.6061 55.2829 26.4767 55.2923 26.3442L55.4012 24.925C55.1832 24.8962 55.0007 24.9317 54.8539 25.0314C54.7156 25.1273 54.5842 25.2331 54.4597 25.3488C54.202 25.5839 53.9875 25.7823 53.8161 25.944C53.6447 26.1057 53.498 26.2412 53.3759 26.3507C53.26 26.4626 53.1503 26.5591 53.0466 26.64C52.943 26.7209 52.8257 26.8 52.6948 26.8773C52.5652 26.9695 52.4415 26.9923 52.3237 26.9458C52.1935 26.8944 52.1262 26.7926 52.1218 26.6403C52.115 26.4942 52.1336 26.3654 52.1777 26.2538C52.1998 26.198 52.2489 26.1099 52.3251 25.9895C52.4014 25.8691 52.4837 25.7331 52.5722 25.5817C52.6607 25.4303 52.7331 25.2833 52.7894 25.1407C52.858 24.967 52.9184 24.7867 52.9709 24.5995C53.0233 24.4123 53.0726 24.2239 53.1188 24.0343C53.2134 23.5771 53.1149 23.2909 52.8235 23.1758C52.6313 23.0999 52.4126 23.0637 52.1675 23.0673C51.9224 23.0708 51.6725 23.1047 51.4178 23.169C51.163 23.2332 50.9282 23.3197 50.7132 23.4283C50.5403 23.5033 50.4171 23.5156 50.3439 23.4652C50.2706 23.4148 50.2331 23.3283 50.2313 23.2057C50.2357 23.0856 50.2649 22.9574 50.3188 22.821C50.3359 22.7775 50.4218 22.7326 50.5763 22.6861C50.737 22.6421 50.9325 22.601 51.1626 22.5629C51.4013 22.521 51.6469 22.4889 51.8994 22.4668C52.1543 22.4385 52.3882 22.4269 52.6011 22.4322C52.8141 22.4374 52.9733 22.4609 53.0787 22.5025C53.3205 22.598 53.502 22.7557 53.623 22.9755C53.7527 23.1916 53.804 23.452 53.7768 23.7566C53.7642 23.9882 53.7312 24.226 53.6778 24.4701C53.6306 24.7167 53.5834 24.9633 53.5362 25.2098C53.6633 25.1239 53.8003 25.0131 53.947 24.8775C54.0962 24.7357 54.2534 24.6007 54.4187 24.4725C54.5841 24.3442 54.7632 24.2537 54.9561 24.2009C55.149 24.148 55.3539 24.1645 55.571 24.2502C55.8934 24.3775 56.0561 24.6461 56.0591 25.0558C56.0549 25.2118 56.0389 25.3883 56.0113 25.5853C55.9837 25.7822 55.9623 25.9816 55.9471 26.1835C56.1705 26.0352 56.3827 25.8789 56.5838 25.7146C56.7911 25.5528 56.9879 25.4083 57.1743 25.2812C57.3101 25.1915 57.4535 25.137 57.6044 25.1178C57.7554 25.0986 57.9101 25.1059 58.0687 25.1399L58.2714 25.1984C58.4326 25.2621 58.5581 25.3618 58.6478 25.4976C58.7462 25.6297 58.784 25.788 58.7613 25.9725C58.7281 26.3106 58.6813 26.647 58.6209 26.9815C58.5629 27.3098 58.5006 27.64 58.4339 27.9721C58.3939 28.1641 58.3465 28.3568 58.2916 28.5502C58.2454 28.7398 58.2494 28.9385 58.3035 29.1462C58.335 29.2662 58.3304 29.3504 58.2897 29.3988C58.2491 29.4473 58.1842 29.4754 58.0951 29.4832L57.928 29.471ZM65.9035 31.75C65.8297 31.8642 65.7545 31.9277 65.6778 31.9404C65.6049 31.9618 65.5131 31.9399 65.4027 31.8748C65.2537 31.7801 65.1474 31.6772 65.0838 31.566C65.0202 31.4549 64.9725 31.3214 64.9409 31.1656C64.9117 31.0035 64.875 30.8062 64.8306 30.5737C64.6465 30.6587 64.497 30.7286 64.3822 30.7836C64.2697 30.8324 64.164 30.8731 64.0651 30.9057C63.9725 30.9408 63.8618 30.9759 63.7332 31.0111C63.6071 31.0402 63.432 31.075 63.2081 31.1156C62.9137 31.1713 62.6914 31.1444 62.5411 31.0349C62.3946 30.934 62.2608 30.7737 62.1398 30.5538C62.0338 30.3686 61.9982 30.1682 62.0332 29.9526C62.0706 29.7309 62.1688 29.5367 62.3277 29.3701C62.5336 29.1575 62.7587 28.9777 63.0032 28.8305C63.2477 28.6834 63.4978 28.5492 63.7535 28.428C63.9697 28.3342 64.1829 28.2392 64.3929 28.1429C64.6092 28.0491 64.8353 27.9485 65.0712 27.841C64.9296 27.7277 64.8117 27.6453 64.7173 27.5937C64.6292 27.5446 64.5405 27.506 64.4513 27.4779C64.3707 27.4461 64.2678 27.4162 64.1426 27.3882C64.0199 27.3541 63.8538 27.3028 63.6443 27.2344C63.5216 27.2003 63.4124 27.15 63.3168 27.0836C63.2299 27.0134 63.2015 26.8947 63.2317 26.7274C63.2399 26.616 63.3058 26.5488 63.4295 26.526C63.5532 26.5032 63.6975 26.51 63.8623 26.5464C64.0357 26.5791 64.1926 26.6267 64.3327 26.6892C64.5721 26.7909 64.8133 26.8969 65.0565 27.0073C65.2996 27.1177 65.5347 27.2392 65.7619 27.3719C65.9989 27.5157 66.1141 27.6687 66.1074 27.8309C66.1031 27.9869 65.98 28.1354 65.7379 28.2763C65.5008 28.4049 65.2494 28.5242 64.9837 28.6343C64.7205 28.7382 64.4672 28.8532 64.2239 28.9793C64.0089 29.088 63.7946 29.204 63.581 29.3275C63.3736 29.4535 63.1674 29.5763 62.9624 29.696C62.9143 29.7272 62.8717 29.7713 62.8348 29.8284C62.8004 29.8794 62.7734 29.9296 62.7538 29.9792C62.6926 30.1342 62.695 30.2642 62.7611 30.3691C62.8358 30.4703 62.9511 30.5051 63.1069 30.4735C63.4038 30.4115 63.6869 30.3298 63.9563 30.2284C64.2282 30.1207 64.4715 29.9767 64.6861 29.7962C64.9032 29.6096 65.0748 29.3656 65.201 29.0642C65.3332 28.7294 65.5029 28.5992 65.71 28.6739C65.8798 28.7338 65.9705 28.8126 65.9821 28.9104C65.9937 29.0081 65.9645 29.1364 65.8947 29.2951C65.831 29.4564 65.7588 29.6572 65.6782 29.8977C65.6184 30.1035 65.5754 30.3123 65.5491 30.5241C65.5252 30.7297 65.5496 30.9401 65.6224 31.1552C65.6488 31.2516 65.6901 31.3467 65.7462 31.4406C65.8023 31.5344 65.8547 31.6376 65.9035 31.75ZM70.1192 33.8881C69.5363 33.6579 69.1312 33.3043 68.9038 32.8275C68.7601 32.5198 68.6591 32.204 68.6007 31.8799C68.5424 31.5558 68.5267 31.2234 68.5537 30.8829C68.5761 30.6265 68.6096 30.3782 68.6544 30.1378C68.7053 29.8999 68.7699 29.6638 68.8481 29.4294L69.081 28.7581C69.0176 28.6828 68.9449 28.6219 68.863 28.5752C68.7873 28.5309 68.7091 28.4929 68.6285 28.4611C68.4735 28.3998 68.3186 28.3566 68.1637 28.3312C68.0088 28.3059 67.8601 28.2651 67.7175 28.2088C67.5873 28.1573 67.5022 28.0915 67.4622 28.0112C67.4223 27.9309 67.4219 27.8591 67.4613 27.7958C67.5006 27.7325 67.5741 27.7006 67.6818 27.7001C67.7833 27.6972 67.8855 27.7017 67.9883 27.7136C68.0973 27.728 68.2063 27.7424 68.3153 27.7568C68.4937 27.777 68.674 27.8196 68.8562 27.8844C69.0385 27.9492 69.2008 27.9739 69.3431 27.9584C69.4568 27.9245 69.526 27.8765 69.5505 27.8145C69.5774 27.7463 69.6093 27.6837 69.6462 27.6266C69.8099 27.4117 69.9488 27.187 70.0629 26.9525C70.177 26.718 70.3309 26.51 70.5244 26.3284C70.6369 26.2796 70.7365 26.2724 70.8233 26.3067C70.9101 26.341 70.9698 26.4076 71.0025 26.5065C71.0437 26.6016 71.0436 26.7019 71.0019 26.8073C71.0019 26.8073 70.9743 26.8501 70.9189 26.9358C70.8698 27.0239 70.8071 27.1282 70.7309 27.2486C70.6608 27.3714 70.5945 27.485 70.5318 27.5893C70.4691 27.6935 70.4317 27.7612 70.4194 27.7922C70.3887 27.8517 70.3642 27.9137 70.3459 27.9782C70.3339 28.0451 70.3174 28.1139 70.2967 28.1845C70.2722 28.2465 70.2916 28.2972 70.3549 28.3365C70.4269 28.3721 70.4834 28.4016 70.5243 28.4249C70.6149 28.4679 70.7067 28.5077 70.7997 28.5444C70.8951 28.575 70.9863 28.6074 71.0731 28.6417C71.2653 28.7176 71.4594 28.7978 71.6553 28.8824C71.8538 28.9607 72.0095 29.0473 72.1226 29.1422C72.2419 29.2395 72.2696 29.3508 72.2057 29.4761C72.1617 29.5877 72.0894 29.6344 71.9891 29.6163C71.8887 29.5982 71.7709 29.5516 71.6357 29.4767C71.5066 29.4042 71.3677 29.3386 71.2188 29.2798C71.0638 29.2186 70.9101 29.1722 70.7577 29.1407C70.6077 29.103 70.3791 29.0557 70.0719 28.9989C69.8912 29.0207 69.7567 29.1253 69.6684 29.3126C69.5701 29.4888 69.4894 29.7114 69.4262 29.9803C69.363 30.2492 69.3178 30.536 69.2907 30.8407C69.266 31.1391 69.2617 31.4313 69.2778 31.7172C69.2963 31.9969 69.3401 32.24 69.4091 32.4464C69.5812 32.7366 69.7208 32.9458 69.8278 33.0741C69.9348 33.2024 70.069 33.2984 70.2302 33.362C70.3728 33.4184 70.5029 33.4518 70.6206 33.4625C70.7382 33.4731 70.8417 33.4925 70.9309 33.5205C71.0289 33.5449 71.1046 33.6071 71.1583 33.7071C71.2108 33.8282 71.1858 33.9187 71.0834 33.9786C70.9895 34.0347 70.8931 34.0611 70.794 34.0578C70.5488 34.0255 70.3238 33.9689 70.1192 33.8881ZM8.34608 23.8767C8.19987 23.8476 8.0615 23.7715 7.93098 23.6483C7.80045 23.525 7.6749 23.4074 7.55433 23.2952C7.49592 23.2435 7.47398 23.1811 7.48852 23.108C7.5068 23.0435 7.54492 22.9833 7.60286 22.9273C7.6608 22.8714 7.7238 22.8389 7.79185 22.83C7.8599 22.821 7.91945 22.8517 7.97052 22.922C8.06514 23.0454 8.16279 23.1521 8.26346 23.242C8.37033 23.3344 8.51604 23.3919 8.7006 23.4146C8.99906 23.4393 9.28194 23.44 9.54924 23.4165C9.81899 23.3869 10.0755 23.291 10.3186 23.129C10.7506 22.8338 11.0951 22.4788 11.352 22.0642C11.6152 21.652 11.7604 21.1754 11.7877 20.6343C11.8041 20.4114 11.7632 20.2519 11.665 20.1557C11.5729 20.062 11.4217 20.0095 11.2112 19.998C10.9524 19.9818 10.7086 20.0181 10.48 20.107C10.26 20.1922 10.0476 20.3126 9.84278 20.4682C9.72804 20.5591 9.61625 20.6153 9.5074 20.6368C9.4072 20.6546 9.30669 20.6005 9.20586 20.4747C9.10879 20.3575 9.07674 20.2481 9.10972 20.1464C9.15136 20.041 9.21461 19.9262 9.29949 19.8021C9.53698 19.473 9.7602 19.1347 9.96914 18.7871C10.1781 18.4396 10.3727 18.0828 10.5531 17.7168C10.6243 17.5729 10.6938 17.4785 10.7617 17.4336C10.8321 17.3826 10.9397 17.3641 11.0846 17.3784C11.6159 17.4305 12.1485 17.4796 12.6822 17.5255C13.2222 17.5739 13.7579 17.6242 14.2892 17.6764C14.3499 17.686 14.4137 17.6969 14.4806 17.7089C14.5499 17.7148 14.6014 17.7387 14.635 17.7807C14.6934 17.8324 14.747 17.8966 14.7956 17.9731C14.8442 18.0497 14.8686 18.1238 14.869 18.1956C14.8667 18.2377 14.8174 18.2899 14.7211 18.3523C14.6272 18.4084 14.55 18.4316 14.4893 18.422C14.1523 18.3677 13.8147 18.3061 13.4764 18.237C13.1381 18.1679 12.7999 18.0988 12.4616 18.0297C12.4468 18.031 12.43 18.028 12.4114 18.0207C12.4015 18.0096 12.3891 18.0047 12.3742 18.006C12.0409 17.9245 11.7704 17.9288 11.5628 18.0188C11.3576 18.1026 11.1678 18.2929 10.9933 18.5895C10.9257 18.7062 10.8415 18.8378 10.7406 18.9843C10.6398 19.1308 10.5525 19.2791 10.4789 19.4293C11.1126 19.3856 11.5864 19.4653 11.9005 19.6682C12.2146 19.8711 12.3886 20.1656 12.4225 20.5517C12.4625 20.9402 12.3735 21.3925 12.1554 21.9084C11.7866 22.7878 11.2699 23.3793 10.6052 23.683C9.94291 23.9806 9.18988 24.0451 8.34608 23.8767ZM15.601 25.5056C15.1221 25.5386 14.7291 25.4265 14.4222 25.1691C14.1153 24.9117 13.9528 24.5428 13.9346 24.0626C13.9312 23.8534 13.9439 23.6398 13.9727 23.4218C14.0076 23.2062 14.0383 22.9925 14.0646 22.7807C14.3073 22.2386 14.6297 21.7854 15.0317 21.4209C15.4399 21.0589 15.8954 20.7585 16.3982 20.5199C16.5996 20.4274 16.8148 20.3905 17.0439 20.4093C17.2792 20.4306 17.5036 20.4977 17.717 20.6107C17.9305 20.7236 18.1199 20.8701 18.2853 21.0501C18.457 21.2326 18.5798 21.4388 18.6539 21.6688C18.8545 22.2497 18.8915 22.7912 18.7649 23.2931C18.6384 23.7951 18.371 24.2271 17.9628 24.5891C17.5608 24.9536 17.0303 25.2171 16.3711 25.3797C16.2425 25.4149 16.1133 25.4427 15.9834 25.4631C15.8559 25.4772 15.7285 25.4914 15.601 25.5056ZM15.539 24.9005C15.7369 24.8712 15.9243 24.8412 16.1012 24.8108C16.5626 24.7134 16.9592 24.5439 17.2912 24.3023C17.6318 24.057 17.8886 23.7606 18.0617 23.4132C18.2409 23.0683 18.3142 22.6922 18.2814 22.2851C18.25 21.8927 18.1138 21.6024 17.8728 21.4141C17.6318 21.2257 17.3252 21.1763 16.953 21.2658C16.4435 21.3943 16 21.6098 15.6225 21.9123C15.2536 22.211 14.9564 22.6097 14.7308 23.1083C14.7092 23.2718 14.679 23.4391 14.6401 23.6101C14.6099 23.7774 14.5964 23.9476 14.5997 24.121C14.6021 24.3871 14.6933 24.5916 14.8734 24.7344C15.0598 24.8797 15.2816 24.935 15.539 24.9005ZM18.4653 27.6797C18.498 27.5063 18.5877 27.3697 18.7346 27.27C19.3297 26.8886 19.9241 26.4998 20.5178 26.1035C21.1202 25.7035 21.7326 25.3325 22.3551 24.9906C23.0935 24.5726 23.8414 24.1763 24.5987 23.8016C25.3646 23.4232 26.1261 23.0466 26.8834 22.6719C26.9291 22.6469 26.9929 22.6578 27.0748 22.7045C27.1591 22.745 27.2366 22.7756 27.3073 22.7963C27.3507 22.8135 27.3695 22.8567 27.3636 22.9261C27.3601 22.9892 27.3419 23.0537 27.3087 23.1194C27.2842 23.1814 27.2535 23.223 27.2164 23.2442C26.6457 23.5277 26.0669 23.8045 25.4801 24.0745C24.9018 24.3407 24.333 24.6285 23.7735 24.938C23.166 25.2786 22.5708 25.6421 21.9882 26.0284C21.4142 26.4109 20.8309 26.7898 20.2383 27.165C20.0963 27.2523 19.9587 27.3557 19.8256 27.4751C19.6948 27.5883 19.5591 27.696 19.4184 27.7981C19.2827 27.8879 19.1337 27.9473 18.9717 27.9765C18.8072 28.0119 18.6735 28.0057 18.5705 27.9578C18.4651 27.9162 18.43 27.8235 18.4653 27.6797ZM22.0049 24.3255C21.8502 24.336 21.6767 24.3034 21.4845 24.2275C21.2923 24.1515 21.1396 24.0482 21.0263 23.9175C20.9218 23.783 20.8369 23.6348 20.7719 23.4729C20.7154 23.3073 20.712 23.0801 20.7615 22.7915C20.9508 22.4935 21.1423 22.2717 21.3361 22.126C21.5298 21.9803 21.7926 21.9228 22.1245 21.9536C22.2657 21.9592 22.4001 21.9728 22.5277 21.9945C22.6615 22.0187 22.8003 22.0484 22.944 22.0837C23.1274 22.1275 23.2696 22.2123 23.3704 22.3381C23.4774 22.4664 23.5381 22.6122 23.5524 22.7756C23.5692 22.9327 23.5377 23.0851 23.4579 23.2328C23.2945 23.5195 23.09 23.7649 22.8445 23.969C22.6077 24.1693 22.3278 24.2881 22.0049 24.3255ZM21.7394 23.9088C22.0104 23.894 22.2447 23.8181 22.4422 23.681C22.6459 23.5464 22.7981 23.3879 22.8988 23.2055C23.002 23.0169 23.0315 22.8422 22.9875 22.6815C22.9674 22.6234 22.8756 22.5835 22.7121 22.562C22.5511 22.5342 22.374 22.5288 22.181 22.5457C21.9941 22.5651 21.8396 22.6116 21.7173 22.6851C21.6432 22.7276 21.5661 22.7867 21.486 22.8626C21.4083 22.9322 21.3548 23.0222 21.3256 23.1325C21.3026 23.2453 21.3248 23.3795 21.3924 23.5352C21.4547 23.6315 21.5169 23.7098 21.5791 23.7702C21.6412 23.8306 21.6947 23.8768 21.7394 23.9088ZM23.1575 28.4578C22.9532 28.4487 22.7612 28.4087 22.5814 28.3377C22.4015 28.2667 22.2604 28.1249 22.158 27.9125C22.0555 27.7 22.0243 27.4977 22.0643 27.3056C22.1043 27.1136 22.1958 26.9275 22.3386 26.7473C22.4494 26.6119 22.5962 26.4943 22.779 26.3945C22.9618 26.2946 23.1558 26.2207 23.3611 26.1728C23.5689 26.1187 23.7675 26.0967 23.9569 26.1071C24.1464 26.1174 24.3044 26.1619 24.431 26.2405C24.8469 26.5123 24.9592 26.8362 24.7677 27.2121C24.6072 27.6003 24.3783 27.9077 24.0809 28.1343C23.7922 28.3572 23.4844 28.465 23.1575 28.4578ZM22.5122 27.8051C22.7963 27.9388 23.0613 27.9754 23.3074 27.9149C23.5622 27.8506 23.7714 27.7111 23.9351 27.4962C24.105 27.2837 24.1998 27.0165 24.2195 26.6946C24.1017 26.648 23.9549 26.6295 23.7791 26.6389C23.6058 26.6422 23.4283 26.6832 23.2467 26.762C23.0713 26.8432 22.9146 26.9677 22.7767 27.1354C22.6387 27.3031 22.5506 27.5263 22.5122 27.8051ZM31.0933 32.1618C30.9879 32.1202 30.9343 32.0381 30.9325 31.9155C30.9327 31.6791 30.9461 31.4908 30.9728 31.3508C30.9994 31.2108 31.0427 31.0738 31.1028 30.9399C31.1653 30.7997 31.2419 30.6149 31.3325 30.3855C31.3408 30.3099 31.3111 30.2946 31.2432 30.3394C31.1753 30.3843 31.0889 30.4577 30.9842 30.5597C30.888 30.6579 30.7956 30.7468 30.7068 30.8265C30.5649 30.9496 30.4113 31.0574 30.2458 31.1497C30.0865 31.2445 29.906 31.3022 29.7043 31.3229C29.4729 31.3462 29.2722 31.31 29.1022 31.2141C28.9322 31.1183 28.8077 30.9616 28.7287 30.7441C28.6048 30.4228 28.5464 30.0987 28.5537 29.7718C28.5695 29.4412 28.6604 29.1294 28.8263 28.8366C28.9123 28.6913 28.9952 28.5449 29.075 28.3972C29.1611 28.252 29.2539 28.1167 29.3537 27.9912C29.6419 27.6606 29.9988 27.4468 30.4242 27.3496C30.8496 27.2524 31.2639 27.2834 31.6669 27.4426C31.6421 27.4328 31.6657 27.4457 31.7377 27.4813C31.8121 27.5106 31.8945 27.5468 31.9851 27.5897C32.0819 27.6351 32.1426 27.6627 32.1674 27.6725C32.429 27.1737 32.629 26.7761 32.7676 26.4796C32.9149 26.1793 33.0272 25.9585 33.1045 25.817C33.1881 25.678 33.2602 25.5954 33.3207 25.5691C33.3875 25.5453 33.4674 25.5517 33.5604 25.5885C33.6658 25.6301 33.7186 25.6868 33.7189 25.7586C33.7279 25.8267 33.7179 25.9338 33.6888 26.08C33.5635 26.5968 33.38 27.0977 33.1383 27.5829C32.9027 28.0704 32.658 28.5902 32.4041 29.1422C32.2435 29.4945 32.1108 29.8578 32.0059 30.2321C31.9011 30.6065 31.7652 30.9685 31.5984 31.3184C31.5457 31.4337 31.5252 31.5582 31.5369 31.6919C31.5486 31.8255 31.5361 31.9389 31.4994 32.0319C31.4651 32.1187 31.3991 32.1679 31.3013 32.1794C31.2122 32.1873 31.1429 32.1814 31.0933 32.1618ZM29.5088 30.7834C29.5981 30.8115 29.7094 30.7838 29.8427 30.7002C29.9847 30.613 30.1371 30.4904 30.2998 30.3324C30.465 30.1683 30.6375 29.9855 30.8174 29.7842C30.9972 29.5829 31.1759 29.3846 31.3533 29.1895C31.5429 28.9634 31.6628 28.7598 31.7127 28.5788C31.7713 28.3941 31.7416 28.2426 31.6235 28.1243C31.5053 28.0059 31.2729 27.9321 30.9261 27.9026C30.6549 27.8815 30.3965 27.9551 30.1509 28.1233C29.9115 28.2939 29.7292 28.5194 29.6042 28.7997C29.5441 28.9337 29.4755 29.0894 29.3982 29.2667C29.3297 29.4404 29.2808 29.5823 29.2515 29.6926C29.2236 29.8178 29.192 29.9522 29.1567 30.096C29.1239 30.2336 29.1263 30.3635 29.164 30.4859C29.2079 30.6108 29.3228 30.7099 29.5088 30.7834ZM34.905 29.4526C34.8616 29.4354 34.8225 29.3985 34.7876 29.3417C34.7052 29.1873 34.6209 29.0286 34.5348 28.8655C34.4573 28.6987 34.4094 28.5114 34.3912 28.3035C34.548 28.2149 34.673 28.189 34.766 28.2257C34.8404 28.2551 34.8945 28.3267 34.9285 28.4404C35.011 28.6307 35.0847 28.7888 35.1497 28.9148C35.217 29.0346 35.225 29.1596 35.1736 29.2898C35.1466 29.358 35.106 29.4065 35.0517 29.4352C35.0035 29.4664 34.9546 29.4722 34.905 29.4526ZM32.9988 33.0541C32.9072 33.0681 32.8476 33.0195 32.8199 32.9082C32.7897 32.8031 32.7817 32.6781 32.796 32.5332C32.8126 32.3821 32.8319 32.2607 32.8538 32.169C32.9305 31.8839 33.0092 31.6032 33.0897 31.3267C33.1788 31.0466 33.2649 30.7652 33.3478 30.4826L33.6848 29.82C33.7437 29.7071 33.8195 29.6331 33.9122 29.598C34.0111 29.5654 34.1046 29.5737 34.1927 29.6228C34.2709 29.6608 34.3262 29.7293 34.3589 29.8282C34.3915 29.9271 34.3889 30.0336 34.351 30.1476C34.3338 30.191 34.308 30.2382 34.2736 30.2891C34.2416 30.3338 34.2146 30.3841 34.1926 30.4399C34.0432 30.8181 33.8938 31.1963 33.7444 31.5746C33.595 31.9528 33.4487 32.3323 33.3056 32.713C33.2615 32.8246 33.2074 32.9071 33.1432 32.9606C33.0853 33.0166 33.0371 33.0478 32.9988 33.0541ZM35.2377 33.7986C35.1571 33.7668 35.0765 33.7349 34.9959 33.7031C34.9177 33.6651 34.8396 33.627 34.7614 33.589C34.6113 33.5154 34.5093 33.4106 34.4555 33.2746C34.4017 33.1387 34.3992 33.0087 34.4482 32.8847C34.4825 32.7979 34.5459 32.719 34.6384 32.648C34.731 32.5771 34.8176 32.5575 34.8982 32.5893C34.9726 32.6187 35.0131 32.6885 35.0198 32.7987C35.0327 32.9113 35.0596 32.9972 35.1008 33.0564C35.1505 33.1119 35.2157 33.1556 35.2963 33.1874C35.4327 33.2413 35.6032 33.2907 35.8076 33.3356C36.0145 33.3743 36.2189 33.4013 36.4208 33.4165C36.6251 33.4255 36.7903 33.4155 36.9165 33.3865C36.9932 33.3737 37.094 33.3634 37.219 33.3554C37.3527 33.3437 37.4354 33.2975 37.4672 33.2169C37.4757 33.1773 37.4464 33.1155 37.3792 33.0316C37.3206 32.944 37.2484 32.8545 37.1626 32.7633C37.0854 32.6683 37.0201 32.5887 36.9666 32.5246C36.816 32.3433 36.6642 32.1651 36.5111 31.9899C36.3605 31.8086 36.2099 31.6273 36.0594 31.446C35.8975 31.2387 35.7963 31.0231 35.7557 30.7992C35.7176 30.5691 35.7364 30.3579 35.8124 30.1657C35.8785 29.9983 35.9893 29.8629 36.1448 29.7594C36.309 29.6523 36.5192 29.5919 36.7754 29.5784C37.0378 29.5674 37.2997 29.5848 37.5611 29.6307C37.8312 29.6729 38.0957 29.72 38.3547 29.7721C38.7563 29.8805 39.0687 30.1329 39.2921 30.5294C39.3906 30.6973 39.4117 30.8526 39.3554 30.9952C39.2941 31.1502 39.1788 31.2516 39.0094 31.2994C38.8425 31.341 38.6982 31.3342 38.5767 31.279C38.4055 31.2042 38.3444 31.1048 38.3934 30.9808C38.4056 30.9498 38.4444 30.897 38.5097 30.8225C38.575 30.7479 38.6168 30.6963 38.6353 30.6678C38.532 30.5481 38.4122 30.4614 38.2758 30.4075C38.1393 30.3536 37.998 30.3122 37.8518 30.2831C37.7118 30.2565 37.5712 30.2404 37.4301 30.2348C37.2555 30.2232 37.0927 30.227 36.9418 30.2462C36.7908 30.2654 36.6425 30.3144 36.4967 30.393C36.3807 30.469 36.3155 30.5615 36.3011 30.6705C36.2954 30.7758 36.3237 30.8766 36.386 30.9729C36.4969 31.1457 36.6177 31.3117 36.7484 31.4708C36.8815 31.6237 37.0134 31.7798 37.1441 31.9389C37.2511 32.0672 37.3594 32.1924 37.4689 32.3144C37.5783 32.4365 37.6866 32.5617 37.7936 32.69C37.8969 32.8096 37.9551 32.9616 37.9683 33.146C37.9815 33.3304 37.9636 33.4846 37.9146 33.6087C37.8583 33.7513 37.7578 33.8514 37.6132 33.9089C37.5008 33.9577 37.3834 34.0009 37.261 34.0386C37.1386 34.0763 37.0149 34.0991 36.8899 34.1071C36.6002 34.1145 36.3154 34.0916 36.0354 34.0384C35.764 33.9814 35.4981 33.9015 35.2377 33.7986ZM39.9544 36.2098C39.5824 36.0628 39.3313 35.8454 39.2013 35.5576C39.0689 35.2759 38.9907 34.9475 38.9668 34.5725C38.9366 34.1951 38.984 33.8482 39.1089 33.532C39.2191 33.253 39.3846 33.0065 39.6052 32.7926C39.8259 32.5787 40.0863 32.3913 40.3864 32.2303C40.5297 32.1578 40.6724 32.0959 40.8146 32.0446C40.9592 31.987 41.0908 31.935 41.2094 31.8887C41.432 31.8333 41.6356 31.8169 41.8201 31.8396C42.0072 31.8561 42.1906 31.8999 42.3704 31.9709C42.4138 31.9881 42.456 32.0083 42.4969 32.0316C42.5465 32.0512 42.5918 32.0727 42.6328 32.096C42.84 32.2066 42.875 32.4354 42.7379 32.7827C42.6615 32.8672 42.5875 32.9275 42.5158 32.9638C42.4442 33 42.3527 33.014 42.2412 33.0058C42.1284 32.9828 42.0359 32.9176 41.9637 32.8102C41.9 32.699 41.8105 32.6171 41.6952 32.5644C41.5206 32.5528 41.3196 32.5988 41.0923 32.7026C40.8711 32.8088 40.6698 32.9192 40.4883 33.0339C39.9969 33.3344 39.713 33.7993 39.6365 34.4285C39.6068 34.7034 39.6258 34.9547 39.6936 35.1822C39.7701 35.4059 39.9324 35.5667 40.1804 35.6647C40.3602 35.7357 40.5194 35.7592 40.658 35.735C40.7965 35.7109 40.9301 35.6812 41.0587 35.646C41.1873 35.6108 41.316 35.6115 41.4449 35.648C41.5354 35.6551 41.5943 35.6963 41.6219 35.7717C41.6557 35.8495 41.6523 35.9306 41.6118 36.015C41.5775 36.1018 41.5023 36.1653 41.3861 36.2054C41.1723 36.293 40.9992 36.3501 40.8669 36.3766C40.7408 36.4057 40.612 36.405 40.4806 36.3746C40.353 36.3529 40.1776 36.2979 39.9544 36.2098ZM43.7863 36.949C43.5817 36.8682 43.4041 36.7372 43.2535 36.5558C43.0779 36.3288 42.9549 36.0867 42.8845 35.8295C42.8165 35.5661 42.7937 35.3062 42.8161 35.0499C42.8314 34.8839 42.8746 34.711 42.9457 34.5312C43.0803 34.1902 43.2889 33.8891 43.5712 33.6279C43.7353 33.4848 43.9196 33.4536 44.1242 33.5345C44.1552 33.5467 44.1862 33.559 44.2172 33.5712C44.2544 33.5859 44.2892 33.6068 44.3215 33.6339C44.3735 33.6473 44.4213 33.6625 44.4647 33.6797C44.5167 33.6931 44.5662 33.6947 44.6132 33.6846C44.8322 33.6564 45.0285 33.6766 45.2022 33.7452C45.3634 33.8088 45.5018 33.9029 45.6175 34.0275C45.7418 34.1482 45.8514 34.2883 45.9462 34.4476C46.0745 34.6488 46.1386 34.8497 46.1382 35.0502C46.1403 35.2446 46.1034 35.4379 46.0275 35.6301C46.0103 35.6735 45.9907 35.7231 45.9687 35.7789C45.9491 35.8285 45.9233 35.8757 45.8913 35.9204C45.7684 36.1227 45.6163 36.2992 45.4349 36.4498C45.2598 36.6028 45.0685 36.7423 44.8611 36.8682C44.6994 36.9692 44.5232 37.0251 44.3326 37.0358C44.142 37.0465 43.9599 37.0176 43.7863 36.949ZM43.8894 36.3339C43.9948 36.3756 44.1119 36.3788 44.2404 36.3436C44.5025 36.2607 44.7298 36.139 44.9222 35.9785C45.1146 35.8179 45.2773 35.642 45.4102 35.4508C45.4776 35.2982 45.4973 35.1304 45.4692 34.9473C45.4474 34.7667 45.3936 34.6307 45.3078 34.5395C45.2319 34.4594 45.1413 34.3985 45.0358 34.3568C44.8808 34.2956 44.6964 34.2908 44.4824 34.3425C44.2104 34.4143 43.9997 34.5031 43.8503 34.609C43.7097 34.7111 43.6112 34.8335 43.5548 34.9761C43.5083 35.0939 43.4853 35.2246 43.486 35.3682C43.4953 35.5081 43.5133 35.6621 43.54 35.8304C43.5666 35.9627 43.6091 36.0727 43.6677 36.1604C43.7349 36.2442 43.8088 36.3021 43.8894 36.3339ZM50.0393 39.5799C49.7426 39.4054 49.5695 39.1543 49.5198 38.8264C49.4919 38.6792 49.4758 38.5295 49.4714 38.3772C49.4756 38.2212 49.4818 38.0695 49.4898 37.9222L49.5038 37.7234C49.4717 37.7322 49.4402 37.7485 49.4093 37.7721C49.3785 37.7958 49.3488 37.8163 49.3204 37.8338C49.0822 37.9834 48.8427 38.1361 48.6019 38.2919C48.3637 38.4415 48.0904 38.5163 47.7821 38.5164C47.5246 38.5151 47.3153 38.4826 47.1541 38.4189C46.72 38.2475 46.5189 37.8312 46.5507 37.1699C46.5636 37.0102 46.5723 36.8882 46.5769 36.804C46.5902 36.7161 46.6157 36.615 46.6536 36.501C46.6977 36.3894 46.7662 36.2158 46.8593 35.9801C46.9475 35.7569 47.0468 35.5417 47.1573 35.3345C47.2765 35.1235 47.4329 34.9452 47.6266 34.7995C47.6821 34.7497 47.7401 34.6937 47.8005 34.6316C47.8671 34.5719 47.9407 34.5579 48.0213 34.5898C48.0895 34.6167 48.1541 34.6709 48.2151 34.7523C48.2823 34.8362 48.3025 34.9123 48.2755 34.9805C48.2633 35.0115 48.2424 35.0462 48.2128 35.0847C48.1833 35.1232 48.1457 35.1729 48.1002 35.2338C47.8293 35.5568 47.624 35.8951 47.4844 36.2485C47.3497 36.5896 47.2746 36.9613 47.259 37.3637C47.2516 37.6547 47.3254 37.8307 47.4804 37.892C47.5858 37.9336 47.7207 37.9188 47.8851 37.8475C48.3621 37.656 48.8036 37.4182 49.2097 37.1342C49.6182 36.844 49.9626 36.4711 50.2429 36.0155C50.3769 35.8032 50.5059 35.7216 50.6299 35.7706C50.7167 35.8048 50.7944 35.8714 50.8629 35.9701C50.9338 36.0626 50.9522 36.1523 50.9179 36.2391C50.8923 36.3222 50.8573 36.4016 50.8131 36.4773C50.7689 36.553 50.7184 36.6262 50.6618 36.697C50.519 36.8772 50.4072 37.0696 50.3263 37.2742C50.2357 37.5036 50.1761 37.7453 50.1475 37.9992C50.1276 38.2493 50.1169 38.5032 50.1156 38.7607C50.1183 38.8263 50.144 38.8973 50.1926 38.9739C50.2437 39.0442 50.2966 39.1009 50.3512 39.144C50.4158 39.1982 50.4489 39.2507 50.4503 39.3014C50.4604 39.3484 50.4545 39.3998 50.4324 39.4557C50.3834 39.5797 50.3231 39.6418 50.2513 39.6421C50.1819 39.6363 50.1112 39.6155 50.0393 39.5799ZM54.6602 42.0178C54.5722 42.0045 54.5169 41.954 54.4943 41.8662C54.4778 41.7809 54.478 41.6806 54.4948 41.5654C54.5092 41.4564 54.5254 41.3517 54.5436 41.2514C54.5905 40.933 54.633 40.6165 54.6713 40.3019C54.7157 39.9897 54.7571 39.6763 54.7953 39.3617C54.8422 39.0434 54.832 38.8422 54.7648 38.7583C54.7 38.6682 54.6071 38.6495 54.486 38.702C54.3649 38.7545 54.2359 38.8362 54.099 38.9469C53.9485 39.0739 53.8067 39.215 53.6737 39.3703C53.5431 39.5195 53.4045 39.6618 53.2578 39.7974C53.153 39.8994 53.0451 40.0001 52.9341 40.0996C52.8256 40.193 52.7121 40.2807 52.5936 40.363C52.5183 40.4264 52.435 40.4652 52.3434 40.4792C52.2519 40.4932 52.1589 40.4744 52.0646 40.4228C51.9517 40.3639 51.8789 40.285 51.8463 40.1861C51.8199 40.0896 51.8108 39.9857 51.819 39.8742C51.8333 39.7652 51.8508 39.6575 51.8714 39.5509C51.892 39.4443 51.9144 39.3421 51.9388 39.2442C52.008 38.9418 52.0822 38.645 52.1614 38.3537C52.2406 38.0625 52.3179 37.7669 52.3934 37.467C52.4215 37.3777 52.4633 37.3082 52.5188 37.2584C52.5767 37.2025 52.6509 37.178 52.7413 37.185C52.7561 37.1837 52.7728 37.1867 52.7915 37.1941C52.8101 37.2014 52.8225 37.2063 52.8287 37.2088C52.9155 37.2431 52.9819 37.3016 53.0281 37.3843C53.0805 37.4695 53.0945 37.5611 53.0702 37.659C53.0351 37.8386 52.9894 38.0177 52.9332 38.1962C52.8771 38.3748 52.8252 38.5514 52.7777 38.7262C52.7473 38.8575 52.7104 39.0508 52.667 39.306C52.7608 39.2499 52.8355 39.197 52.891 39.1472C52.9527 39.0999 53.0002 39.0613 53.0334 39.0314C53.1555 38.922 53.2714 38.81 53.3811 38.6957C53.497 38.5837 53.6209 38.4786 53.753 38.3802C53.8628 38.3017 53.9733 38.2307 54.0844 38.1671C54.1956 38.1035 54.3123 38.0528 54.4347 38.0151C54.6363 37.9585 54.8146 37.9609 54.9696 38.0221C55.1928 38.1102 55.3422 38.2947 55.4177 38.5754C55.4565 38.6767 55.4792 38.7825 55.4859 38.8926C55.495 38.9966 55.501 39.0993 55.504 39.2008C55.4872 39.6242 55.4383 40.0386 55.3571 40.4437C55.2846 40.8452 55.1898 41.2485 55.0727 41.6539C55.0337 41.789 54.9765 41.8883 54.9013 41.9517C54.8323 42.0176 54.7519 42.0397 54.6602 42.0178ZM57.5892 42.766C57.3908 42.6876 57.2452 42.5298 57.1526 42.2925C57.0888 42.1455 57.052 41.9482 57.0423 41.7006C57.0387 41.4555 57.0469 41.2079 57.0669 40.9577C57.0931 40.71 57.1126 40.5063 57.1255 40.3465C57.1396 40.1657 57.1748 40.004 57.2311 39.8614C57.2592 39.7722 57.2687 39.6935 57.2598 39.6254C57.2533 39.5512 57.214 39.4783 57.1418 39.4068C57.0983 39.3538 57.0553 39.2902 57.0129 39.2161C56.9791 39.1383 56.9701 39.0702 56.986 39.012C57.0054 38.9265 57.0547 38.8743 57.1339 38.8554C57.2217 38.8327 57.3108 38.8249 57.4012 38.8319C57.4247 38.8269 57.4513 38.823 57.481 38.8204C57.5107 38.8178 57.5497 38.8189 57.598 38.8236C57.6949 38.6325 57.7876 38.4433 57.8759 38.256C57.9642 38.0687 58.0575 37.8869 58.1558 37.7107C58.2787 37.5084 58.4066 37.3116 58.5394 37.1204C58.6748 36.923 58.8119 36.7298 58.951 36.5411C59.0519 36.3945 59.1674 36.347 59.2976 36.3984C59.3845 36.4327 59.4435 36.4919 59.4748 36.5759C59.5148 36.6562 59.514 36.7491 59.4723 36.8545C59.4674 36.8669 59.4305 36.924 59.3617 37.0258C59.2952 37.1214 59.2165 37.2301 59.1254 37.3518C59.043 37.4698 58.971 37.5704 58.9094 37.6536C58.8541 37.7392 58.8277 37.779 58.8301 37.7728C58.7367 37.9366 58.6459 38.1122 58.5576 38.2995C58.4717 38.4806 58.3735 38.6748 58.263 38.882C58.3831 38.8864 58.4946 38.8946 58.5974 38.9065C58.7064 38.9209 58.7968 38.9279 58.8686 38.9276C59.0146 38.9208 59.1365 38.9116 59.2343 38.9C59.3382 38.8909 59.4422 38.8818 59.5461 38.8727C59.6501 38.8636 59.7751 38.8556 59.9211 38.8488C60.0102 38.8409 60.1038 38.8672 60.2019 38.9274C60.3062 38.9901 60.3387 39.071 60.2995 39.1702C60.2701 39.2446 60.2153 39.3018 60.135 39.3418C60.0571 39.3755 59.983 39.4 59.9125 39.4152C59.7021 39.4396 59.5109 39.4609 59.3389 39.479C59.1756 39.4933 59.011 39.5107 58.8452 39.5313C58.6881 39.548 58.5012 39.5674 58.2847 39.5894C58.2067 39.5873 58.1411 39.59 58.0879 39.5977C58.0409 39.6078 57.9984 39.6699 57.9605 39.7839C57.8957 39.9662 57.8336 40.1961 57.7741 40.4737C57.7233 40.7475 57.6893 41.0243 57.6719 41.3042C57.657 41.5779 57.6698 41.8087 57.7102 41.9967C57.7368 42.129 57.7842 42.2087 57.8524 42.2356C57.9392 42.2699 58.0561 42.2552 58.2032 42.1914C58.3564 42.13 58.5152 42.0637 58.6796 41.9925C58.7623 41.9463 58.8297 41.9299 58.8817 41.9433C58.9338 41.9567 58.9797 41.9856 59.0195 42.03C59.0571 42.1165 59.0623 42.1759 59.0352 42.2082C59.0081 42.2405 58.9754 42.2778 58.9372 42.32C58.8042 42.4753 58.655 42.5992 58.4895 42.6915C58.3302 42.7863 58.141 42.8298 57.9218 42.8221C57.8587 42.8187 57.7998 42.8134 57.7453 42.8062C57.6908 42.799 57.6388 42.7856 57.5892 42.766ZM59.9905 43.6284C59.8569 43.6401 59.7552 43.6071 59.6855 43.5294C59.6221 43.4542 59.5974 43.3441 59.6117 43.1992C59.6246 43.0395 59.6656 42.9266 59.7346 42.8607C59.8061 42.7886 59.9211 42.7516 60.0795 42.7497C60.134 42.7568 60.1959 42.7634 60.2653 42.7693C60.3346 42.7752 60.4176 42.7828 60.5142 42.7923C60.5392 42.838 60.5753 42.8917 60.6226 42.9534C60.6786 43.0113 60.7117 43.0818 60.722 43.1647C60.7225 43.2724 60.6826 43.3642 60.6025 43.44C60.5248 43.5097 60.442 43.5559 60.3542 43.5785C60.2937 43.6048 60.2319 43.6162 60.1687 43.6128C60.1118 43.6118 60.0524 43.617 59.9905 43.6284Z" fill="white"/>
</svg>
